{
.appVersion = "1356";
DisplayStrings = (
"/horncomb/Uhorn.ss01/Uhorngrave.ss01",
"th/uhorn/ohorn ng",
"/dieresiscomb ï",
"/dieresisbelowcomb",
"/dieresiscomb.case",
"/dieresiscomb ¨",
"/Udieresismacron.ss01"
);
classes = (
{
automatic = 1;

glyphs = (
{
glyphname = .notdef;
lastChange = "2021-07-28 10:59:02 +0000";
layers = (
{
layerId = "D7866281-830A-4E76-BB32-392A4BC3306E";
paths = (
{
closed = 1;
nodes = (
"379 0 LINE",
"379 650 LINE",
"50 650 LINE",
"50 0 LINE"
);
},
{
closed = 1;
nodes = (
"212 287 LINE",
"309 64 LINE",
"115 64 LINE"
);
},
{
closed = 1;
nodes = (
"104 534 LINE",
"193 330 LINE",
"104 129 LINE"
);
},
{
closed = 1;
nodes = (
"231 330 LINE",
"321 537 LINE",
"321 127 LINE"
);
},
{
closed = 1;
nodes = (
"119 584 LINE",
"305 584 LINE",
"212 374 LINE"
);
}
);
width = 429;
}
);
},
{
glyphname = A;
lastChange = "2021-07-28 10:59:02 +0000";
layers = (
{
anchors = (
{
name = bottom;
position = "{188, 0}";
},
{
name = ogonek;
position = "{421, 10}";
},
{
name = top;
position = "{596, 509}";
}
);
layerId = "D7866281-830A-4E76-BB32-392A4BC3306E";
paths = (
{
closed = 1;
nodes = (
"16 -24 OFFCURVE",
"22 -17 OFFCURVE",
"26 -13 CURVE SMOOTH",
"50 14 OFFCURVE",
"72 44 OFFCURVE",
"95 71 CURVE SMOOTH",
"142 128 OFFCURVE",
"191 184 OFFCURVE",
"242 238 CURVE",
"263 240 OFFCURVE",
"285 242 OFFCURVE",
"306 242 CURVE SMOOTH",
"336 242 OFFCURVE",
"426 233 OFFCURVE",
"444 207 CURVE",
"421 168 OFFCURVE",
"362 73 OFFCURVE",
"362 33 CURVE SMOOTH",
"362 10 OFFCURVE",
"365 -6 OFFCURVE",
"390 -6 CURVE SMOOTH",
"399 -6 OFFCURVE",
"410 -4 OFFCURVE",
"418 0 CURVE",
"417 2 OFFCURVE",
"417 3 OFFCURVE",
"417 5 CURVE SMOOTH",
"417 43 OFFCURVE",
"582 318 OFFCURVE",
"610 363 CURVE SMOOTH",
"626 388 OFFCURVE",
"643 419 OFFCURVE",
"643 450 CURVE SMOOTH",
"643 491 OFFCURVE",
"610 509 OFFCURVE",
"573 509 CURVE SMOOTH",
"538 509 OFFCURVE",
"504 496 OFFCURVE",
"476 477 CURVE SMOOTH",
"399 425 OFFCURVE",
"330 356 OFFCURVE",
"265 290 CURVE",
"186 291 OFFCURVE",
"53 278 OFFCURVE",
"25 188 CURVE SMOOTH",
"23 182 OFFCURVE",
"22 175 OFFCURVE",
"22 168 CURVE SMOOTH",
"22 145 OFFCURVE",
"39 112 OFFCURVE",
"64 112 CURVE SMOOTH",
"66 112 OFFCURVE",
"70 112 OFFCURVE",
"70 114 CURVE SMOOTH",
"70 120 OFFCURVE",
"55 126 OFFCURVE",
"55 145 CURVE SMOOTH",
"55 154 OFFCURVE",
"58 163 OFFCURVE",
"63 170 CURVE SMOOTH",
"91 213 OFFCURVE",
"165 229 OFFCURVE",
"213 235 CURVE",
"188 209 OFFCURVE",
"6 8 OFFCURVE",
"6 -20 CURVE SMOOTH",
"6 -22 OFFCURVE",
"7 -24 OFFCURVE",
"10 -24 CURVE SMOOTH"
);
},
{
closed = 1;
nodes = (
"443 274 OFFCURVE",
"332 286 OFFCURVE",
"290 289 CURVE",
"349 350 OFFCURVE",
"412 412 OFFCURVE",
"482 461 CURVE SMOOTH",
"499 473 OFFCURVE",
"528 486 OFFCURVE",
"549 486 CURVE SMOOTH",
"562 486 OFFCURVE",
"586 483 OFFCURVE",
"580 456 CURVE SMOOTH",
"574 422 OFFCURVE",
"475 260 OFFCURVE",
"452 220 CURVE"
);
}
);
width = 525;
}
);
unicode = 0041;
},
{
glyphname = AE;
lastChange = "2021-07-28 10:59:02 +0000";
layers = (
{
anchors = (
{
name = bottom;
position = "{354, 0}";
},
{
name = top;
position = "{598, 487}";
}
);
layerId = "D7866281-830A-4E76-BB32-392A4BC3306E";
paths = (
{
closed = 1;
nodes = (
"-34 -17 OFFCURVE",
"103 162 OFFCURVE",
"143 209 CURVE",
"152 209 OFFCURVE",
"161 210 OFFCURVE",
"170 210 CURVE SMOOTH",
"215 210 OFFCURVE",
"298 200 OFFCURVE",
"339 180 CURVE",
"318 144 OFFCURVE",
"274 73 OFFCURVE",
"274 33 CURVE SMOOTH",
"274 10 OFFCURVE",
"286 -6 OFFCURVE",
"309 -6 CURVE SMOOTH",
"317 -6 OFFCURVE",
"324 -4 OFFCURVE",
"331 -2 CURVE",
"355 -21 OFFCURVE",
"390 -23 OFFCURVE",
"419 -23 CURVE SMOOTH",
"423 -23 LINE SMOOTH",
"490 -23 OFFCURVE",
"560 -14 OFFCURVE",
"627 -1 CURVE SMOOTH",
"636 1 OFFCURVE",
"649 3 OFFCURVE",
"658 7 CURVE SMOOTH",
"678 16 OFFCURVE",
"693 44 OFFCURVE",
"701 64 CURVE",
"629 35 OFFCURVE",
"520 -3 OFFCURVE",
"443 -3 CURVE SMOOTH",
"403 -3 OFFCURVE",
"361 9 OFFCURVE",
"361 57 CURVE SMOOTH",
"361 74 OFFCURVE",
"365 96 OFFCURVE",
"373 111 CURVE SMOOTH",
"418 190 LINE SMOOTH",
"424 201 OFFCURVE",
"430 216 OFFCURVE",
"438 225 CURVE SMOOTH",
"446 235 OFFCURVE",
"465 242 OFFCURVE",
"477 243 CURVE SMOOTH",
"506 247 OFFCURVE",
"536 249 OFFCURVE",
"566 252 CURVE SMOOTH",
"614 256 OFFCURVE",
"663 260 OFFCURVE",
"712 260 CURVE",
"716 263 OFFCURVE",
"734 278 OFFCURVE",
"734 282 CURVE SMOOTH",
"734 284 OFFCURVE",
"732 284 OFFCURVE",
"731 284 CURVE SMOOTH",
"645 284 OFFCURVE",
"558 283 OFFCURVE",
"472 283 CURVE",
"479 296 LINE SMOOTH",
"507 348 OFFCURVE",
"546 416 OFFCURVE",
"606 434 CURVE SMOOTH",
"632 442 OFFCURVE",
"662 443 OFFCURVE",
"689 443 CURVE SMOOTH",
"724 443 OFFCURVE",
"760 437 OFFCURVE",
"795 437 CURVE SMOOTH",
"808 437 OFFCURVE",
"853 467 OFFCURVE",
"853 481 CURVE SMOOTH",
"853 483 OFFCURVE",
"851 483 OFFCURVE",
"849 483 CURVE SMOOTH",
"774 483 OFFCURVE",
"699 484 OFFCURVE",
"624 484 CURVE",
"609 492 OFFCURVE",
"589 508 OFFCURVE",
"572 508 CURVE SMOOTH",
"563 508 OFFCURVE",
"558 499 OFFCURVE",
"553 492 CURVE",
"542 504 OFFCURVE",
"525 509 OFFCURVE",
"510 509 CURVE SMOOTH",
"387 509 OFFCURVE",
"229 325 OFFCURVE",
"151 240 CURVE",
"116 240 OFFCURVE",
"81 240 OFFCURVE",
"45 236 CURVE",
"19 197 LINE",
"52 202 OFFCURVE",
"87 203 OFFCURVE",
"121 207 CURVE",
"93 176 OFFCURVE",
"-57 6 OFFCURVE",
"-57 -30 CURVE SMOOTH",
"-57 -44 OFFCURVE",
"-43 -65 OFFCURVE",
"-35 -76 CURVE"
);
},
{
closed = 1;
nodes = (
"302 222 OFFCURVE",
"224 237 OFFCURVE",
"171 240 CURVE",
"223 298 OFFCURVE",
"400 487 OFFCURVE",
"474 487 CURVE SMOOTH",
"486 487 OFFCURVE",
"490 478 OFFCURVE",
"490 468 CURVE SMOOTH",
"490 457 OFFCURVE",
"486 446 OFFCURVE",
"482 436 CURVE SMOOTH",
"470 409 OFFCURVE",
"455 382 OFFCURVE",
"441 356 CURVE SMOOTH",
"410 300 OFFCURVE",
"377 245 OFFCURVE",
"345 189 CURVE"
);
}
);
width = 707;
}
);
unicode = 00C6;
},
{
glyphname = B;
lastChange = "2021-07-28 10:59:02 +0000";
layers = (
{
layerId = "D7866281-830A-4E76-BB32-392A4BC3306E";
paths = (
{
closed = 1;
nodes = (
"328 -38 OFFCURVE",
"432 0 OFFCURVE",
"489 80 CURVE SMOOTH",
"505 102 OFFCURVE",
"517 129 OFFCURVE",
"517 157 CURVE SMOOTH",
"517 239 OFFCURVE",
"416 258 OFFCURVE",
"352 258 CURVE SMOOTH",
"341 258 OFFCURVE",
"330 257 OFFCURVE",
"319 257 CURVE SMOOTH",
"316 257 LINE",
"317 259 OFFCURVE",
"556 317 OFFCURVE",
"556 425 CURVE SMOOTH",
"556 494 OFFCURVE",
"471 509 OFFCURVE",
"417 509 CURVE SMOOTH",
"351 509 OFFCURVE",
"285 493 OFFCURVE",
"221 477 CURVE SMOOTH",
"212 475 OFFCURVE",
"201 474 OFFCURVE",
"192 470 CURVE SMOOTH",
"178 464 OFFCURVE",
"171 451 OFFCURVE",
"171 436 CURVE SMOOTH",
"171 421 OFFCURVE",
"179 409 OFFCURVE",
"195 409 CURVE SMOOTH",
"200 409 OFFCURVE",
"206 411 OFFCURVE",
"211 412 CURVE SMOOTH",
"281 434 OFFCURVE",
"351 458 OFFCURVE",
"426 458 CURVE SMOOTH",
"453 458 OFFCURVE",
"510 454 OFFCURVE",
"510 416 CURVE SMOOTH",
"510 366 OFFCURVE",
"422 315 OFFCURVE",
"383 296 CURVE SMOOTH",
"325 270 OFFCURVE",
"254 250 OFFCURVE",
"191 242 CURVE",
"230 287 OFFCURVE",
"270 332 OFFCURVE",
"310 377 CURVE",
"304 384 OFFCURVE",
"267 397 OFFCURVE",
"257 397 CURVE SMOOTH",
"240 397 OFFCURVE",
"83 135 OFFCURVE",
"65 101 CURVE SMOOTH",
"47 69 OFFCURVE",
"28 35 OFFCURVE",
"17 -1 CURVE",
"16 -2 OFFCURVE",
"16 -4 OFFCURVE",
"16 -6 CURVE SMOOTH",
"16 -9 OFFCURVE",
"17 -12 OFFCURVE",
"21 -12 CURVE SMOOTH",
"27 -12 OFFCURVE",
"31 -7 OFFCURVE",
"33 -2 CURVE",
"72 60 OFFCURVE",
"101 130 OFFCURVE",
"148 187 CURVE SMOOTH",
"183 229 OFFCURVE",
"274 244 OFFCURVE",
"326 244 CURVE SMOOTH",
"373 244 OFFCURVE",
"449 231 OFFCURVE",
"449 170 CURVE SMOOTH",
"449 61 OFFCURVE",
"280 4 OFFCURVE",
"191 4 CURVE SMOOTH",
"149 4 OFFCURVE",
"108 9 OFFCURVE",
"68 22 CURVE SMOOTH",
"64 23 LINE SMOOTH",
"62 23 OFFCURVE",
"59 22 OFFCURVE",
"59 19 CURVE SMOOTH",
"59 18 OFFCURVE",
"60 16 OFFCURVE",
"61 15 CURVE SMOOTH",
"105 -26 OFFCURVE",
"174 -38 OFFCURVE",
"233 -38 CURVE SMOOTH"
);
}
);
width = 545;
}
);
unicode = 0042;
},
{
glyphname = C;
lastChange = "2021-07-28 10:59:02 +0000";
layers = (
{
anchors = (
{
name = bottom;
position = "{198, -25}";
},
{
name = top;
position = "{489, 507}";
}
);
layerId = "D7866281-830A-4E76-BB32-392A4BC3306E";
paths = (
{
closed = 1;
nodes = (
"327 -36 OFFCURVE",
"468 19 OFFCURVE",
"533 105 CURVE",
"535 106 OFFCURVE",
"535 108 OFFCURVE",
"535 110 CURVE SMOOTH",
"535 112 OFFCURVE",
"534 116 OFFCURVE",
"532 116 CURVE SMOOTH",
"530 116 OFFCURVE",
"529 115 OFFCURVE",
"528 114 CURVE SMOOTH",
"449 43 OFFCURVE",
"366 22 OFFCURVE",
"262 22 CURVE SMOOTH",
"170 22 OFFCURVE",
"70 53 OFFCURVE",
"70 162 CURVE SMOOTH",
"70 206 OFFCURVE",
"87 249 OFFCURVE",
"109 287 CURVE SMOOTH",
"177 401 OFFCURVE",
"308 483 OFFCURVE",
"441 483 CURVE SMOOTH",
"488 483 OFFCURVE",
"532 466 OFFCURVE",
"532 413 CURVE SMOOTH",
"532 358 OFFCURVE",
"488 325 OFFCURVE",
"488 309 CURVE SMOOTH",
"488 306 OFFCURVE",
"490 303 OFFCURVE",
"493 303 CURVE SMOOTH",
"498 303 OFFCURVE",
"505 308 OFFCURVE",
"509 311 CURVE SMOOTH",
"545 336 OFFCURVE",
"587 378 OFFCURVE",
"587 424 CURVE SMOOTH",
"587 484 OFFCURVE",
"522 506 OFFCURVE",
"472 506 CURVE SMOOTH",
"289 506 OFFCURVE",
"19 345 OFFCURVE",
"19 141 CURVE SMOOTH",
"19 24 OFFCURVE",
"113 -36 OFFCURVE",
"222 -36 CURVE SMOOTH"
);
}
);
width = 579;
}
);
unicode = 0043;
},
{
glyphname = D;
lastChange = "2021-07-28 10:59:02 +0000";
layers = (
{
anchors = (
{
name = bottom;
position = "{319, 0}";
},
{
name = center;
position = "{178, 233}";
},
{
name = top;
position = "{505, 478}";
}
);
layerId = "D7866281-830A-4E76-BB32-392A4BC3306E";
paths = (
{
closed = 1;
nodes = (
"280 -27 OFFCURVE",
"414 0 OFFCURVE",
"500 56 CURVE SMOOTH",
"578 107 OFFCURVE",
"640 186 OFFCURVE",
"640 283 CURVE SMOOTH",
"640 325 OFFCURVE",
"627 365 OFFCURVE",
"603 400 CURVE SMOOTH",
"550 478 OFFCURVE",
"447 501 OFFCURVE",
"358 501 CURVE SMOOTH",
"287 501 OFFCURVE",
"215 489 OFFCURVE",
"145 473 CURVE SMOOTH",
"132 469 OFFCURVE",
"116 467 OFFCURVE",
"104 462 CURVE SMOOTH",
"89 456 OFFCURVE",
"82 443 OFFCURVE",
"82 428 CURVE SMOOTH",
"82 413 OFFCURVE",
"90 401 OFFCURVE",
"106 401 CURVE SMOOTH",
"112 401 OFFCURVE",
"117 403 OFFCURVE",
"122 404 CURVE",
"195 428 OFFCURVE",
"266 450 OFFCURVE",
"344 450 CURVE SMOOTH",
"437 450 OFFCURVE",
"610 420 OFFCURVE",
"610 298 CURVE SMOOTH",
"610 294 OFFCURVE",
"610 290 OFFCURVE",
"609 286 CURVE SMOOTH",
"586 107 OFFCURVE",
"271 6 OFFCURVE",
"117 6 CURVE SMOOTH",
"72 6 OFFCURVE",
"56 21 OFFCURVE",
"56 38 CURVE SMOOTH",
"56 44 OFFCURVE",
"59 52 OFFCURVE",
"63 58 CURVE SMOOTH",
"90 100 OFFCURVE",
"120 140 OFFCURVE",
"148 180 CURVE SMOOTH",
"198 248 OFFCURVE",
"249 317 OFFCURVE",
"301 383 CURVE SMOOTH",
"303 385 OFFCURVE",
"305 388 OFFCURVE",
"305 390 CURVE SMOOTH",
"305 401 OFFCURVE",
"284 404 OFFCURVE",
"277 404 CURVE SMOOTH",
"271 404 OFFCURVE",
"264 403 OFFCURVE",
"259 399 CURVE SMOOTH",
"216 360 OFFCURVE",
"80 147 OFFCURVE",
"34 51 CURVE SMOOTH",
"30 42 OFFCURVE",
"28 34 OFFCURVE",
"28 26 CURVE SMOOTH",
"28 -25 OFFCURVE",
"131 -27 OFFCURVE",
"178 -27 CURVE SMOOTH"
);
}
);
width = 638;
}
);
unicode = 0044;
},
{
glyphname = Dcroat;
lastChange = "2021-07-28 10:59:02 +0000";
layers = (
{
layerId = "D7866281-830A-4E76-BB32-392A4BC3306E";
paths = (
{
closed = 1;
nodes = (
"280 -27 OFFCURVE",
"414 0 OFFCURVE",
"500 56 CURVE SMOOTH",
"578 107 OFFCURVE",
"640 186 OFFCURVE",
"640 283 CURVE SMOOTH",
"640 325 OFFCURVE",
"627 365 OFFCURVE",
"603 400 CURVE SMOOTH",
"550 478 OFFCURVE",
"447 501 OFFCURVE",
"358 501 CURVE SMOOTH",
"287 501 OFFCURVE",
"215 489 OFFCURVE",
"145 473 CURVE SMOOTH",
"132 469 OFFCURVE",
"116 467 OFFCURVE",
"104 462 CURVE SMOOTH",
"89 456 OFFCURVE",
"82 443 OFFCURVE",
"82 428 CURVE SMOOTH",
"82 413 OFFCURVE",
"90 401 OFFCURVE",
"106 401 CURVE SMOOTH",
"112 401 OFFCURVE",
"117 403 OFFCURVE",
"122 404 CURVE",
"195 428 OFFCURVE",
"266 450 OFFCURVE",
"344 450 CURVE SMOOTH",
"437 450 OFFCURVE",
"610 420 OFFCURVE",
"610 298 CURVE SMOOTH",
"610 294 OFFCURVE",
"610 290 OFFCURVE",
"609 286 CURVE SMOOTH",
"586 107 OFFCURVE",
"271 6 OFFCURVE",
"117 6 CURVE SMOOTH",
"72 6 OFFCURVE",
"56 21 OFFCURVE",
"56 38 CURVE SMOOTH",
"56 44 OFFCURVE",
"59 52 OFFCURVE",
"63 58 CURVE SMOOTH",
"90 100 OFFCURVE",
"119 140 OFFCURVE",
"148 180 CURVE SMOOTH",
"168 207 LINE",
"199 213 LINE SMOOTH",
"223 219 OFFCURVE",
"251 223 OFFCURVE",
"274 232 CURVE SMOOTH",
"278 234 OFFCURVE",
"297 244 OFFCURVE",
"296 250 CURVE SMOOTH",
"296 253 OFFCURVE",
"290 252 OFFCURVE",
"289 252 CURVE SMOOTH",
"230 242 LINE",
"190 236 LINE",
"226 286 OFFCURVE",
"263 335 OFFCURVE",
"301 383 CURVE SMOOTH",
"303 385 OFFCURVE",
"305 388 OFFCURVE",
"305 390 CURVE SMOOTH",
"305 401 OFFCURVE",
"284 404 OFFCURVE",
"277 404 CURVE SMOOTH",
"271 404 OFFCURVE",
"264 403 OFFCURVE",
"259 399 CURVE SMOOTH",
"236 378 OFFCURVE",
"185 305 OFFCURVE",
"136 227 CURVE",
"24 209 LINE SMOOTH",
"17 208 OFFCURVE",
"10 199 OFFCURVE",
"10 192 CURVE SMOOTH",
"10 191 OFFCURVE",
"10 191 OFFCURVE",
"10 190 CURVE SMOOTH",
"11 181 OFFCURVE",
"19 179 OFFCURVE",
"27 179 CURVE SMOOTH",
"30 179 OFFCURVE",
"33 180 OFFCURVE",
"35 180 CURVE SMOOTH",
"43 182 LINE SMOOTH",
"68 186 OFFCURVE",
"92 191 OFFCURVE",
"116 196 CURVE",
"82 141 OFFCURVE",
"52 88 OFFCURVE",
"34 51 CURVE SMOOTH",
"30 42 OFFCURVE",
"28 34 OFFCURVE",
"28 26 CURVE SMOOTH",
"28 -25 OFFCURVE",
"131 -27 OFFCURVE",
"178 -27 CURVE SMOOTH"
);
}
);
width = 638;
}
);
note = Dcroat;
unicode = 0110;
},
{
glyphname = E;
lastChange = "2021-07-28 10:59:02 +0000";
layers = (
{
anchors = (
{
name = bottom;
position = "{198, -11}";
},
{
name = ogonek;
position = "{400, 15}";
},
{
name = top;
position = "{418, 510}";
},
{
name = topleft;
position = "{20, 650}";
}
);
layerId = "D7866281-830A-4E76-BB32-392A4BC3306E";
paths = (
{
closed = 1;
nodes = (
"220 -23 OFFCURVE",
"335 -11 OFFCURVE",
"396 7 CURVE SMOOTH",
"417 13 OFFCURVE",
"454 30 OFFCURVE",
"454 56 CURVE SMOOTH",
"454 61 OFFCURVE",
"451 66 OFFCURVE",
"446 66 CURVE SMOOTH",
"443 66 OFFCURVE",
"441 65 OFFCURVE",
"439 64 CURVE SMOOTH",
"376 33 OFFCURVE",
"240 3 OFFCURVE",
"171 3 CURVE SMOOTH",
"138 3 OFFCURVE",
"77 8 OFFCURVE",
"77 52 CURVE SMOOTH",
"77 91 OFFCURVE",
"151 216 OFFCURVE",
"188 229 CURVE SMOOTH",
"234 246 OFFCURVE",
"309 248 OFFCURVE",
"359 251 CURVE SMOOTH",
"377 252 OFFCURVE",
"395 252 OFFCURVE",
"413 255 CURVE SMOOTH",
"422 256 OFFCURVE",
"439 262 OFFCURVE",
"439 274 CURVE SMOOTH",
"439 277 OFFCURVE",
"437 278 OFFCURVE",
"434 278 CURVE SMOOTH",
"357 278 OFFCURVE",
"280 279 OFFCURVE",
"203 279 CURVE",
"246 336 OFFCURVE",
"288 395 OFFCURVE",
"332 452 CURVE",
"354 454 OFFCURVE",
"377 455 OFFCURVE",
"399 455 CURVE SMOOTH",
"425 455 OFFCURVE",
"524 454 OFFCURVE",
"524 413 CURVE SMOOTH",
"524 400 OFFCURVE",
"512 388 OFFCURVE",
"512 385 CURVE SMOOTH",
"512 384 OFFCURVE",
"515 384 OFFCURVE",
"516 384 CURVE SMOOTH",
"536 384 OFFCURVE",
"545 420 OFFCURVE",
"545 436 CURVE SMOOTH",
"545 508 OFFCURVE",
"473 510 OFFCURVE",
"418 510 CURVE SMOOTH",
"404 510 OFFCURVE",
"389 509 OFFCURVE",
"374 509 CURVE",
"369 516 OFFCURVE",
"356 519 OFFCURVE",
"347 519 CURVE SMOOTH",
"335 519 OFFCURVE",
"331 513 OFFCURVE",
"323 505 CURVE",
"285 500 OFFCURVE",
"245 494 OFFCURVE",
"209 481 CURVE SMOOTH",
"172 468 OFFCURVE",
"105 433 OFFCURVE",
"105 388 CURVE SMOOTH",
"105 381 OFFCURVE",
"108 360 OFFCURVE",
"117 360 CURVE SMOOTH",
"122 360 OFFCURVE",
"125 362 OFFCURVE",
"125 367 CURVE SMOOTH",
"125 369 OFFCURVE",
"124 370 OFFCURVE",
"123 371 CURVE SMOOTH",
"122 373 OFFCURVE",
"122 376 OFFCURVE",
"122 378 CURVE SMOOTH",
"122 417 OFFCURVE",
"246 440 OFFCURVE",
"273 445 CURVE",
"224 382 OFFCURVE",
"19 102 OFFCURVE",
"19 33 CURVE SMOOTH",
"19 -23 OFFCURVE",
"120 -23 OFFCURVE",
"157 -23 CURVE SMOOTH"
);
}
);
width = 505;
}
);
unicode = 0045;
},
{
glyphname = F;
lastChange = "2021-07-28 10:59:02 +0000";
layers = (
{
layerId = "D7866281-830A-4E76-BB32-392A4BC3306E";
paths = (
{
closed = 1;
nodes = (
"28 -15 OFFCURVE",
"32 -9 OFFCURVE",
"36 -3 CURVE SMOOTH",
"83 70 OFFCURVE",
"119 150 OFFCURVE",
"175 218 CURVE",
"232 238 OFFCURVE",
"297 243 OFFCURVE",
"357 249 CURVE SMOOTH",
"375 251 OFFCURVE",
"395 252 OFFCURVE",
"413 255 CURVE SMOOTH",
"422 256 OFFCURVE",
"439 262 OFFCURVE",
"439 274 CURVE SMOOTH",
"439 277 OFFCURVE",
"437 278 OFFCURVE",
"434 278 CURVE SMOOTH",
"213 278 LINE",
"256 334 OFFCURVE",
"304 388 OFFCURVE",
"351 440 CURVE",
"348 445 OFFCURVE",
"341 450 OFFCURVE",
"336 452 CURVE",
"357 454 OFFCURVE",
"378 455 OFFCURVE",
"399 455 CURVE SMOOTH",
"425 455 OFFCURVE",
"524 454 OFFCURVE",
"524 413 CURVE SMOOTH",
"524 399 OFFCURVE",
"513 388 OFFCURVE",
"513 385 CURVE SMOOTH",
"513 384 OFFCURVE",
"515 384 OFFCURVE",
"516 384 CURVE SMOOTH",
"537 384 OFFCURVE",
"546 420 OFFCURVE",
"546 436 CURVE SMOOTH",
"546 508 OFFCURVE",
"473 510 OFFCURVE",
"418 510 CURVE SMOOTH",
"355 510 OFFCURVE",
"271 502 OFFCURVE",
"209 481 CURVE SMOOTH",
"172 468 OFFCURVE",
"105 433 OFFCURVE",
"105 388 CURVE SMOOTH",
"105 381 OFFCURVE",
"108 360 OFFCURVE",
"117 360 CURVE SMOOTH",
"123 360 OFFCURVE",
"125 362 OFFCURVE",
"125 367 CURVE SMOOTH",
"125 369 OFFCURVE",
"124 370 OFFCURVE",
"123 371 CURVE SMOOTH",
"122 373 OFFCURVE",
"122 376 OFFCURVE",
"122 378 CURVE SMOOTH",
"122 419 OFFCURVE",
"261 443 OFFCURVE",
"289 447 CURVE",
"242 388 OFFCURVE",
"15 47 OFFCURVE",
"15 -8 CURVE SMOOTH",
"15 -12 OFFCURVE",
"16 -15 OFFCURVE",
"20 -15 CURVE SMOOTH"
);
}
);
width = 375;
}
);
unicode = 0046;
},
{
glyphname = G;
lastChange = "2021-07-28 10:59:02 +0000";
layers = (
{
anchors = (
{
name = bottom;
position = "{203, -27}";
},
{
name = top;
position = "{472, 506}";
}
);
layerId = "D7866281-830A-4E76-BB32-392A4BC3306E";
paths = (
{
closed = 1;
nodes = (
"330 -36 OFFCURVE",
"562 34 OFFCURVE",
"562 168 CURVE SMOOTH",
"562 171 OFFCURVE",
"562 174 OFFCURVE",
"561 176 CURVE",
"574 173 OFFCURVE",
"594 166 OFFCURVE",
"602 155 CURVE SMOOTH",
"603 154 OFFCURVE",
"602 151 OFFCURVE",
"605 151 CURVE SMOOTH",
"609 151 OFFCURVE",
"611 163 OFFCURVE",
"611 166 CURVE SMOOTH",
"611 212 OFFCURVE",
"519 229 OFFCURVE",
"487 233 CURVE SMOOTH",
"465 236 OFFCURVE",
"442 237 OFFCURVE",
"420 237 CURVE SMOOTH",
"343 237 OFFCURVE",
"218 222 OFFCURVE",
"192 135 CURVE SMOOTH",
"190 128 OFFCURVE",
"188 121 OFFCURVE",
"188 114 CURVE SMOOTH",
"188 92 OFFCURVE",
"205 58 OFFCURVE",
"230 58 CURVE SMOOTH",
"232 58 OFFCURVE",
"236 58 OFFCURVE",
"236 61 CURVE SMOOTH",
"236 67 OFFCURVE",
"221 73 OFFCURVE",
"221 92 CURVE SMOOTH",
"221 101 OFFCURVE",
"224 109 OFFCURVE",
"229 117 CURVE SMOOTH",
"269 178 OFFCURVE",
"405 188 OFFCURVE",
"473 188 CURVE SMOOTH",
"498 188 OFFCURVE",
"523 186 OFFCURVE",
"548 180 CURVE",
"548 173 LINE SMOOTH",
"548 169 OFFCURVE",
"548 165 OFFCURVE",
"547 161 CURVE SMOOTH",
"524 50 OFFCURVE",
"345 20 OFFCURVE",
"252 20 CURVE SMOOTH",
"164 20 OFFCURVE",
"71 49 OFFCURVE",
"71 154 CURVE SMOOTH",
"71 198 OFFCURVE",
"88 243 OFFCURVE",
"111 281 CURVE SMOOTH",
"178 395 OFFCURVE",
"304 483 OFFCURVE",
"441 483 CURVE SMOOTH",
"488 483 OFFCURVE",
"532 466 OFFCURVE",
"532 413 CURVE SMOOTH",
"532 359 OFFCURVE",
"488 324 OFFCURVE",
"488 309 CURVE SMOOTH",
"488 306 OFFCURVE",
"490 303 OFFCURVE",
"493 303 CURVE SMOOTH",
"499 303 OFFCURVE",
"505 308 OFFCURVE",
"509 311 CURVE SMOOTH",
"545 336 OFFCURVE",
"587 378 OFFCURVE",
"587 424 CURVE SMOOTH",
"587 484 OFFCURVE",
"522 506 OFFCURVE",
"472 506 CURVE SMOOTH",
"289 506 OFFCURVE",
"19 345 OFFCURVE",
"19 141 CURVE SMOOTH",
"19 24 OFFCURVE",
"114 -36 OFFCURVE",
"222 -36 CURVE SMOOTH"
);
}
);
width = 600;
}
);
unicode = 0047;
},
{
glyphname = H;
lastChange = "2021-07-28 10:59:02 +0000";
layers = (
{
anchors = (
{
name = bottom;
position = "{254, 0}";
},
{
name = center;
position = "{254, 325}";
},
{
name = top;
position = "{509, 474}";
},
{
name = topleft;
position = "{20, 650}";
}
);
layerId = "D7866281-830A-4E76-BB32-392A4BC3306E";
paths = (
{
closed = 1;
nodes = (
"47 -26 OFFCURVE",
"57 -8 OFFCURVE",
"61 -2 CURVE SMOOTH",
"105 78 OFFCURVE",
"159 158 OFFCURVE",
"209 234 CURVE",
"251 241 OFFCURVE",
"285 242 OFFCURVE",
"327 242 CURVE SMOOTH",
"362 242 OFFCURVE",
"429 235 OFFCURVE",
"459 215 CURVE",
"465 212 OFFCURVE",
"467 207 OFFCURVE",
"469 204 CURVE",
"458 184 OFFCURVE",
"449 169 OFFCURVE",
"445 160 CURVE SMOOTH",
"422 118 OFFCURVE",
"399 73 OFFCURVE",
"383 27 CURVE SMOOTH",
"380 18 OFFCURVE",
"384 9 OFFCURVE",
"384 -1 CURVE SMOOTH",
"384 -3 OFFCURVE",
"384 -11 OFFCURVE",
"389 -11 CURVE SMOOTH",
"393 -11 OFFCURVE",
"397 -3 OFFCURVE",
"398 0 CURVE SMOOTH",
"427 64 OFFCURVE",
"457 126 OFFCURVE",
"493 186 CURVE SMOOTH",
"553 287 OFFCURVE",
"622 380 OFFCURVE",
"692 474 CURVE SMOOTH",
"695 478 OFFCURVE",
"700 484 OFFCURVE",
"700 490 CURVE SMOOTH",
"700 497 OFFCURVE",
"686 498 OFFCURVE",
"681 498 CURVE SMOOTH",
"676 498 OFFCURVE",
"667 496 OFFCURVE",
"662 494 CURVE SMOOTH",
"632 480 OFFCURVE",
"530 310 OFFCURVE",
"476 216 CURVE",
"477 222 OFFCURVE",
"475 228 OFFCURVE",
"472 234 CURVE SMOOTH",
"452 271 OFFCURVE",
"379 282 OFFCURVE",
"342 286 CURVE SMOOTH",
"318 289 OFFCURVE",
"293 290 OFFCURVE",
"269 290 CURVE SMOOTH",
"259 290 OFFCURVE",
"249 290 OFFCURVE",
"239 289 CURVE",
"260 317 OFFCURVE",
"281 344 OFFCURVE",
"302 371 CURVE SMOOTH",
"323 397 OFFCURVE",
"345 422 OFFCURVE",
"365 448 CURVE",
"369 452 OFFCURVE",
"376 461 OFFCURVE",
"376 467 CURVE SMOOTH",
"376 474 OFFCURVE",
"364 476 OFFCURVE",
"356 476 CURVE SMOOTH",
"355 476 OFFCURVE",
"354 476 OFFCURVE",
"353 476 CURVE SMOOTH",
"345 476 OFFCURVE",
"321 472 OFFCURVE",
"314 470 CURVE SMOOTH",
"301 465 OFFCURVE",
"274 432 OFFCURVE",
"274 419 CURVE SMOOTH",
"274 411 OFFCURVE",
"278 405 OFFCURVE",
"283 400 CURVE",
"260 362 OFFCURVE",
"235 325 OFFCURVE",
"212 288 CURVE",
"145 282 OFFCURVE",
"46 261 OFFCURVE",
"22 188 CURVE",
"19 182 OFFCURVE",
"18 175 OFFCURVE",
"18 168 CURVE SMOOTH",
"18 144 OFFCURVE",
"37 112 OFFCURVE",
"64 112 CURVE SMOOTH",
"65 112 OFFCURVE",
"70 112 OFFCURVE",
"70 114 CURVE SMOOTH",
"70 120 OFFCURVE",
"53 126 OFFCURVE",
"53 145 CURVE SMOOTH",
"53 192 OFFCURVE",
"137 219 OFFCURVE",
"173 227 CURVE",
"152 194 OFFCURVE",
"33 8 OFFCURVE",
"33 -17 CURVE SMOOTH",
"33 -20 OFFCURVE",
"34 -26 OFFCURVE",
"39 -26 CURVE SMOOTH"
);
}
);
width = 507;
}
);
unicode = 0048;
},
{
glyphname = Hbar;
lastChange = "2021-07-28 10:59:02 +0000";
layers = (
{
layerId = "D7866281-830A-4E76-BB32-392A4BC3306E";
paths = (
{
closed = 1;
nodes = (
"47 -26 OFFCURVE",
"57 -8 OFFCURVE",
"61 -2 CURVE SMOOTH",
"105 78 OFFCURVE",
"159 158 OFFCURVE",
"209 234 CURVE",
"251 241 OFFCURVE",
"285 242 OFFCURVE",
"327 242 CURVE SMOOTH",
"362 242 OFFCURVE",
"429 235 OFFCURVE",
"459 215 CURVE",
"465 212 OFFCURVE",
"467 207 OFFCURVE",
"469 204 CURVE",
"458 184 OFFCURVE",
"449 169 OFFCURVE",
"445 160 CURVE SMOOTH",
"422 118 OFFCURVE",
"399 73 OFFCURVE",
"383 27 CURVE SMOOTH",
"380 18 OFFCURVE",
"384 9 OFFCURVE",
"384 -1 CURVE SMOOTH",
"384 -3 OFFCURVE",
"384 -11 OFFCURVE",
"389 -11 CURVE SMOOTH",
"393 -11 OFFCURVE",
"397 -3 OFFCURVE",
"398 0 CURVE SMOOTH",
"427 64 OFFCURVE",
"457 126 OFFCURVE",
"493 186 CURVE SMOOTH",
"553 287 OFFCURVE",
"622 380 OFFCURVE",
"692 474 CURVE SMOOTH",
"695 478 OFFCURVE",
"700 484 OFFCURVE",
"700 490 CURVE SMOOTH",
"700 497 OFFCURVE",
"686 498 OFFCURVE",
"681 498 CURVE SMOOTH",
"676 498 OFFCURVE",
"667 496 OFFCURVE",
"662 494 CURVE SMOOTH",
"632 480 OFFCURVE",
"530 310 OFFCURVE",
"476 216 CURVE",
"477 222 OFFCURVE",
"475 228 OFFCURVE",
"472 234 CURVE SMOOTH",
"452 271 OFFCURVE",
"379 282 OFFCURVE",
"342 286 CURVE SMOOTH",
"318 289 OFFCURVE",
"293 290 OFFCURVE",
"269 290 CURVE SMOOTH",
"259 290 OFFCURVE",
"249 290 OFFCURVE",
"239 289 CURVE",
"260 317 OFFCURVE",
"281 344 OFFCURVE",
"302 371 CURVE SMOOTH",
"323 397 OFFCURVE",
"345 422 OFFCURVE",
"365 448 CURVE",
"369 452 OFFCURVE",
"376 461 OFFCURVE",
"376 467 CURVE SMOOTH",
"376 474 OFFCURVE",
"364 476 OFFCURVE",
"356 476 CURVE SMOOTH",
"355 476 OFFCURVE",
"354 476 OFFCURVE",
"353 476 CURVE SMOOTH",
"345 476 OFFCURVE",
"321 472 OFFCURVE",
"314 470 CURVE SMOOTH",
"301 465 OFFCURVE",
"274 432 OFFCURVE",
"274 419 CURVE SMOOTH",
"274 411 OFFCURVE",
"278 405 OFFCURVE",
"283 400 CURVE",
"260 362 OFFCURVE",
"235 325 OFFCURVE",
"212 288 CURVE",
"145 282 OFFCURVE",
"46 261 OFFCURVE",
"22 188 CURVE",
"19 182 OFFCURVE",
"18 175 OFFCURVE",
"18 168 CURVE SMOOTH",
"18 144 OFFCURVE",
"37 112 OFFCURVE",
"64 112 CURVE SMOOTH",
"65 112 OFFCURVE",
"70 112 OFFCURVE",
"70 114 CURVE SMOOTH",
"70 120 OFFCURVE",
"53 126 OFFCURVE",
"53 145 CURVE SMOOTH",
"53 192 OFFCURVE",
"137 219 OFFCURVE",
"173 227 CURVE",
"152 194 OFFCURVE",
"33 8 OFFCURVE",
"33 -17 CURVE SMOOTH",
"33 -20 OFFCURVE",
"34 -26 OFFCURVE",
"39 -26 CURVE SMOOTH"
);
},
{
closed = 1;
nodes = (
"325 363 OFFCURVE",
"703 373 OFFCURVE",
"703 400 CURVE SMOOTH",
"703 404 OFFCURVE",
"689 404 OFFCURVE",
"686 404 CURVE SMOOTH",
"243 402 LINE SMOOTH",
"221 402 OFFCURVE",
"196 390 OFFCURVE",
"196 380 CURVE SMOOTH",
"196 364 OFFCURVE",
"235 363 OFFCURVE",
"259 363 CURVE SMOOTH"
);
}
);
width = 507;
}
);
note = Hbar;
unicode = 0126;
},
{
glyphname = I;
lastChange = "2021-07-28 10:59:02 +0000";
layers = (
{
anchors = (
{
name = bottom;
position = "{84, 0}";
},
{
name = ogonek;
position = "{151, 19}";
},
{
name = top;
position = "{455, 496}";
},
{
name = topleft;
position = "{20, 650}";
}
);
layerId = "D7866281-830A-4E76-BB32-392A4BC3306E";
paths = (
{
closed = 1;
nodes = (
"-11 -73 OFFCURVE",
"-10 -73 OFFCURVE",
"-10 -72 CURVE SMOOTH",
"-10 -71 OFFCURVE",
"-19 -65 OFFCURVE",
"-19 -53 CURVE SMOOTH",
"-19 -6 OFFCURVE",
"91 16 OFFCURVE",
"124 21 CURVE",
"123 19 OFFCURVE",
"123 17 OFFCURVE",
"123 15 CURVE SMOOTH",
"123 13 OFFCURVE",
"123 11 OFFCURVE",
"126 11 CURVE SMOOTH",
"130 11 OFFCURVE",
"136 19 OFFCURVE",
"138 23 CURVE",
"156 25 OFFCURVE",
"175 26 OFFCURVE",
"194 26 CURVE SMOOTH",
"214 26 OFFCURVE",
"268 25 OFFCURVE",
"279 7 CURVE",
"279 6 OFFCURVE",
"279 6 OFFCURVE",
"280 5 CURVE",
"282 5 OFFCURVE",
"281 7 OFFCURVE",
"281 8 CURVE SMOOTH",
"281 48 OFFCURVE",
"190 62 OFFCURVE",
"161 63 CURVE",
"239 196 OFFCURVE",
"341 297 OFFCURVE",
"448 423 CURVE SMOOTH",
"451 426 OFFCURVE",
"454 430 OFFCURVE",
"454 434 CURVE SMOOTH",
"454 435 OFFCURVE",
"454 435 OFFCURVE",
"454 436 CURVE",
"454 444 OFFCURVE",
"430 447 OFFCURVE",
"421 446 CURVE SMOOTH",
"418 446 OFFCURVE",
"412 446 OFFCURVE",
"410 445 CURVE SMOOTH",
"323 381 OFFCURVE",
"179 130 OFFCURVE",
"141 64 CURVE",
"87 63 OFFCURVE",
"-35 42 OFFCURVE",
"-35 -32 CURVE SMOOTH",
"-35 -42 OFFCURVE",
"-24 -73 OFFCURVE",
"-12 -73 CURVE SMOOTH"
);
},
{
closed = 1;
nodes = (
"248 370 OFFCURVE",
"250 371 OFFCURVE",
"250 371 CURVE",
"250 372 OFFCURVE",
"237 381 OFFCURVE",
"237 393 CURVE SMOOTH",
"237 443 OFFCURVE",
"415 459 OFFCURVE",
"449 459 CURVE SMOOTH",
"466 459 OFFCURVE",
"533 458 OFFCURVE",
"533 432 CURVE SMOOTH",
"533 429 OFFCURVE",
"531 427 OFFCURVE",
"531 425 CURVE SMOOTH",
"531 421 OFFCURVE",
"533 420 OFFCURVE",
"536 420 CURVE SMOOTH",
"544 420 OFFCURVE",
"544 432 OFFCURVE",
"544 438 CURVE SMOOTH",
"544 489 OFFCURVE",
"455 496 OFFCURVE",
"419 496 CURVE SMOOTH",
"368 496 OFFCURVE",
"299 487 OFFCURVE",
"252 465 CURVE SMOOTH",
"231 456 OFFCURVE",
"219 437 OFFCURVE",
"219 414 CURVE SMOOTH",
"219 396 OFFCURVE",
"226 370 OFFCURVE",
"247 370 CURVE SMOOTH"
);
}
);
width = 434;
}
);
unicode = 0049;
},
{
glyphname = J;
lastChange = "2021-07-28 10:59:02 +0000";
layers = (
{
anchors = (
{
name = bottom;
position = "{233, 0}";
},
{
name = top;
position = "{549, 507}";
}
);
layerId = "D7866281-830A-4E76-BB32-392A4BC3306E";
paths = (
{
closed = 1;
nodes = (
"112 -40 OFFCURVE",
"119 -40 OFFCURVE",
"125 -39 CURVE SMOOTH",
"169 -32 OFFCURVE",
"214 -12 OFFCURVE",
"249 15 CURVE SMOOTH",
"333 80 OFFCURVE",
"366 168 OFFCURVE",
"414 259 CURVE",
"435 264 OFFCURVE",
"457 268 OFFCURVE",
"479 268 CURVE SMOOTH",
"501 268 OFFCURVE",
"511 258 OFFCURVE",
"512 258 CURVE SMOOTH",
"513 258 OFFCURVE",
"513 259 OFFCURVE",
"513 260 CURVE SMOOTH",
"513 261 OFFCURVE",
"513 262 OFFCURVE",
"512 264 CURVE SMOOTH",
"497 291 OFFCURVE",
"463 298 OFFCURVE",
"434 300 CURVE",
"460 351 OFFCURVE",
"500 438 OFFCURVE",
"549 469 CURVE",
"559 470 OFFCURVE",
"570 470 OFFCURVE",
"580 470 CURVE SMOOTH",
"596 470 OFFCURVE",
"663 469 OFFCURVE",
"663 443 CURVE",
"662 436 LINE SMOOTH",
"662 433 OFFCURVE",
"664 432 OFFCURVE",
"667 432 CURVE SMOOTH",
"674 432 OFFCURVE",
"675 444 OFFCURVE",
"675 449 CURVE SMOOTH",
"675 500 OFFCURVE",
"586 507 OFFCURVE",
"549 507 CURVE SMOOTH",
"499 507 OFFCURVE",
"428 498 OFFCURVE",
"383 477 CURVE SMOOTH",
"361 467 OFFCURVE",
"349 449 OFFCURVE",
"349 425 CURVE SMOOTH",
"349 408 OFFCURVE",
"356 382 OFFCURVE",
"377 382 CURVE SMOOTH",
"380 382 LINE",
"380 384 OFFCURVE",
"368 392 OFFCURVE",
"368 404 CURVE SMOOTH",
"368 443 OFFCURVE",
"486 462 OFFCURVE",
"513 466 CURVE",
"481 435 OFFCURVE",
"438 342 OFFCURVE",
"418 300 CURVE",
"285 291 OFFCURVE",
"2 180 OFFCURVE",
"2 19 CURVE SMOOTH",
"2 -26 OFFCURVE",
"71 -40 OFFCURVE",
"105 -40 CURVE SMOOTH"
);
},
{
closed = 1;
nodes = (
"87 -20 OFFCURVE",
"57 -12 OFFCURVE",
"57 17 CURVE SMOOTH",
"57 29 OFFCURVE",
"62 40 OFFCURVE",
"68 50 CURVE SMOOTH",
"111 136 OFFCURVE",
"304 230 OFFCURVE",
"396 255 CURVE",
"344 153 OFFCURVE",
"241 -20 OFFCURVE",
"111 -20 CURVE SMOOTH"
);
}
);
width = 465;
}
);
unicode = 004A;
},
{
glyphname = K;
lastChange = "2021-07-28 10:59:02 +0000";
layers = (
{
anchors = (
{
name = bottom;
position = "{171, 0}";
},
{
name = top;
position = "{462, 483}";
}
);
layerId = "D7866281-830A-4E76-BB32-392A4BC3306E";
paths = (
{
closed = 1;
nodes = (
"473 -61 LINE SMOOTH",
"477 -61 OFFCURVE",
"481 -59 OFFCURVE",
"481 -54 CURVE SMOOTH",
"481 -51 OFFCURVE",
"479 -48 OFFCURVE",
"476 -47 CURVE SMOOTH",
"463 -42 OFFCURVE",
"451 -38 OFFCURVE",
"438 -32 CURVE SMOOTH",
"373 2 OFFCURVE",
"288 77 OFFCURVE",
"265 148 CURVE SMOOTH",
"260 161 OFFCURVE",
"258 174 OFFCURVE",
"258 188 CURVE SMOOTH",
"258 235 OFFCURVE",
"289 273 OFFCURVE",
"323 303 CURVE SMOOTH",
"398 368 OFFCURVE",
"537 442 OFFCURVE",
"631 477 CURVE SMOOTH",
"648 484 OFFCURVE",
"666 489 OFFCURVE",
"684 495 CURVE SMOOTH",
"687 496 OFFCURVE",
"690 497 OFFCURVE",
"690 500 CURVE SMOOTH",
"690 505 OFFCURVE",
"685 505 OFFCURVE",
"682 505 CURVE SMOOTH",
"671 505 OFFCURVE",
"654 499 OFFCURVE",
"643 496 CURVE SMOOTH",
"547 465 OFFCURVE",
"398 386 OFFCURVE",
"313 329 CURVE SMOOTH",
"259 292 OFFCURVE",
"188 236 OFFCURVE",
"188 165 CURVE SMOOTH",
"188 51 OFFCURVE",
"372 -61 OFFCURVE",
"469 -61 CURVE SMOOTH"
);
},
{
closed = 1;
nodes = (
"28 -15 OFFCURVE",
"32 -9 OFFCURVE",
"36 -3 CURVE SMOOTH",
"77 62 OFFCURVE",
"116 128 OFFCURVE",
"159 193 CURVE SMOOTH",
"217 280 OFFCURVE",
"281 363 OFFCURVE",
"351 440 CURVE",
"344 449 OFFCURVE",
"317 464 OFFCURVE",
"306 464 CURVE SMOOTH",
"292 464 OFFCURVE",
"160 259 OFFCURVE",
"146 237 CURVE SMOOTH",
"121 198 OFFCURVE",
"97 158 OFFCURVE",
"74 117 CURVE SMOOTH",
"52 80 OFFCURVE",
"29 40 OFFCURVE",
"16 -2 CURVE SMOOTH",
"15 -4 OFFCURVE",
"15 -6 OFFCURVE",
"15 -8 CURVE SMOOTH",
"15 -12 OFFCURVE",
"16 -15 OFFCURVE",
"20 -15 CURVE SMOOTH"
);
}
);
width = 423;
}
);
unicode = 004B;
},
{
glyphname = L;
lastChange = "2021-07-28 10:59:02 +0000";
layers = (
{
anchors = (
{
name = bottom;
position = "{177, -18}";
},
{
name = center;
position = "{345, 325}";
},
{
name = top;
position = "{356, 510}";
},
{
name = topright;
position = "{408, 510}";
}
);
layerId = "D7866281-830A-4E76-BB32-392A4BC3306E";
paths = (
{
closed = 1;
nodes = (
"216 -23 OFFCURVE",
"339 -10 OFFCURVE",
"396 7 CURVE SMOOTH",
"417 13 OFFCURVE",
"453 29 OFFCURVE",
"453 56 CURVE SMOOTH",
"453 61 OFFCURVE",
"451 66 OFFCURVE",
"445 66 CURVE SMOOTH",
"443 66 OFFCURVE",
"441 65 OFFCURVE",
"439 64 CURVE SMOOTH",
"375 33 OFFCURVE",
"247 3 OFFCURVE",
"177 3 CURVE SMOOTH",
"144 3 OFFCURVE",
"83 8 OFFCURVE",
"83 52 CURVE SMOOTH",
"83 114 OFFCURVE",
"233 320 OFFCURVE",
"275 377 CURVE SMOOTH",
"306 420 OFFCURVE",
"338 462 OFFCURVE",
"373 503 CURVE",
"373 503 OFFCURVE",
"375 505 OFFCURVE",
"375 506 CURVE SMOOTH",
"375 510 OFFCURVE",
"368 510 OFFCURVE",
"366 510 CURVE SMOOTH",
"356 510 OFFCURVE",
"348 507 OFFCURVE",
"340 500 CURVE SMOOTH",
"320 482 OFFCURVE",
"300 455 OFFCURVE",
"282 435 CURVE SMOOTH",
"214 354 OFFCURVE",
"49 149 OFFCURVE",
"16 55 CURVE SMOOTH",
"14 48 OFFCURVE",
"12 41 OFFCURVE",
"12 34 CURVE SMOOTH",
"12 -23 OFFCURVE",
"119 -23 OFFCURVE",
"157 -23 CURVE SMOOTH"
);
}
);
width = 469;
}
);
unicode = 004C;
},
{
glyphname = Lslash;
lastChange = "2021-07-28 10:59:02 +0000";
layers = (
{
layerId = "D7866281-830A-4E76-BB32-392A4BC3306E";
paths = (
{
closed = 1;
nodes = (
"216 -23 OFFCURVE",
"339 -10 OFFCURVE",
"396 7 CURVE SMOOTH",
"417 13 OFFCURVE",
"453 29 OFFCURVE",
"453 56 CURVE SMOOTH",
"453 61 OFFCURVE",
"451 66 OFFCURVE",
"445 66 CURVE SMOOTH",
"443 66 OFFCURVE",
"441 65 OFFCURVE",
"439 64 CURVE SMOOTH",
"375 33 OFFCURVE",
"247 3 OFFCURVE",
"177 3 CURVE SMOOTH",
"144 3 OFFCURVE",
"83 8 OFFCURVE",
"83 52 CURVE SMOOTH",
"83 81 OFFCURVE",
"116 142 OFFCURVE",
"156 204 CURVE",
"199 213 LINE SMOOTH",
"223 219 OFFCURVE",
"251 223 OFFCURVE",
"274 232 CURVE SMOOTH",
"278 234 OFFCURVE",
"297 244 OFFCURVE",
"296 250 CURVE SMOOTH",
"296 253 OFFCURVE",
"290 252 OFFCURVE",
"289 252 CURVE SMOOTH",
"230 242 LINE",
"175 234 LINE",
"214 294 OFFCURVE",
"256 351 OFFCURVE",
"275 377 CURVE SMOOTH",
"306 420 OFFCURVE",
"338 462 OFFCURVE",
"373 503 CURVE",
"373 503 OFFCURVE",
"375 505 OFFCURVE",
"375 506 CURVE SMOOTH",
"375 510 OFFCURVE",
"368 510 OFFCURVE",
"366 510 CURVE SMOOTH",
"356 510 OFFCURVE",
"348 507 OFFCURVE",
"340 500 CURVE SMOOTH",
"320 482 OFFCURVE",
"300 455 OFFCURVE",
"282 435 CURVE SMOOTH",
"244 390 OFFCURVE",
"176 306 OFFCURVE",
"117 224 CURVE",
"24 209 LINE SMOOTH",
"17 208 OFFCURVE",
"10 199 OFFCURVE",
"10 192 CURVE SMOOTH",
"10 191 OFFCURVE",
"10 191 OFFCURVE",
"10 190 CURVE SMOOTH",
"11 181 OFFCURVE",
"19 179 OFFCURVE",
"27 179 CURVE SMOOTH",
"30 179 OFFCURVE",
"33 180 OFFCURVE",
"35 180 CURVE SMOOTH",
"43 182 LINE",
"94 191 LINE",
"58 139 OFFCURVE",
"28 89 OFFCURVE",
"16 55 CURVE SMOOTH",
"14 48 OFFCURVE",
"12 41 OFFCURVE",
"12 34 CURVE SMOOTH",
"12 -23 OFFCURVE",
"119 -23 OFFCURVE",
"157 -23 CURVE SMOOTH"
);
}
);
width = 469;
}
);
note = Lslash;
unicode = 0141;
},
{
glyphname = M;
lastChange = "2021-07-28 10:59:02 +0000";
layers = (
{
layerId = "D7866281-830A-4E76-BB32-392A4BC3306E";
paths = (
{
closed = 1;
nodes = (
"628 -25 OFFCURVE",
"633 -17 OFFCURVE",
"640 -13 CURVE",
"640 -9 LINE SMOOTH",
"640 32 OFFCURVE",
"804 299 OFFCURVE",
"835 349 CURVE SMOOTH",
"851 376 OFFCURVE",
"869 411 OFFCURVE",
"869 443 CURVE SMOOTH",
"869 479 OFFCURVE",
"847 496 OFFCURVE",
"812 496 CURVE SMOOTH",
"730 496 OFFCURVE",
"615 390 OFFCURVE",
"557 335 CURVE",
"577 365 OFFCURVE",
"598 407 OFFCURVE",
"598 443 CURVE SMOOTH",
"598 478 OFFCURVE",
"579 497 OFFCURVE",
"545 497 CURVE SMOOTH",
"429 497 OFFCURVE",
"232 285 OFFCURVE",
"155 201 CURVE",
"207 284 OFFCURVE",
"265 388 OFFCURVE",
"334 459 CURVE SMOOTH",
"336 461 OFFCURVE",
"338 463 OFFCURVE",
"338 466 CURVE SMOOTH",
"338 483 OFFCURVE",
"299 491 OFFCURVE",
"288 491 CURVE SMOOTH",
"279 491 OFFCURVE",
"271 489 OFFCURVE",
"265 483 CURVE SMOOTH",
"250 468 OFFCURVE",
"232 435 OFFCURVE",
"221 417 CURVE SMOOTH",
"180 350 OFFCURVE",
"143 282 OFFCURVE",
"106 213 CURVE SMOOTH",
"69 142 OFFCURVE",
"33 70 OFFCURVE",
"3 -5 CURVE",
"2 -6 OFFCURVE",
"2 -8 OFFCURVE",
"2 -9 CURVE SMOOTH",
"2 -17 OFFCURVE",
"12 -20 OFFCURVE",
"18 -20 CURVE SMOOTH",
"24 -20 OFFCURVE",
"29 -19 OFFCURVE",
"32 -13 CURVE SMOOTH",
"37 -5 OFFCURVE",
"41 4 OFFCURVE",
"46 13 CURVE SMOOTH",
"56 29 OFFCURVE",
"66 45 OFFCURVE",
"77 60 CURVE SMOOTH",
"137 147 OFFCURVE",
"210 227 OFFCURVE",
"284 303 CURVE SMOOTH",
"324 343 OFFCURVE",
"398 406 OFFCURVE",
"444 437 CURVE SMOOTH",
"464 450 OFFCURVE",
"502 467 OFFCURVE",
"526 467 CURVE SMOOTH",
"536 467 OFFCURVE",
"549 457 OFFCURVE",
"549 445 CURVE SMOOTH",
"549 396 OFFCURVE",
"338 148 OFFCURVE",
"338 67 CURVE SMOOTH",
"338 45 OFFCURVE",
"348 27 OFFCURVE",
"373 27 CURVE SMOOTH",
"380 27 OFFCURVE",
"386 35 OFFCURVE",
"393 38 CURVE",
"388 52 OFFCURVE",
"408 91 OFFCURVE",
"414 103 CURVE SMOOTH",
"434 143 OFFCURVE",
"457 182 OFFCURVE",
"484 217 CURVE SMOOTH",
"547 301 OFFCURVE",
"627 375 OFFCURVE",
"711 437 CURVE SMOOTH",
"731 451 OFFCURVE",
"761 470 OFFCURVE",
"787 470 CURVE SMOOTH",
"802 470 OFFCURVE",
"816 455 OFFCURVE",
"816 439 CURVE SMOOTH",
"816 421 OFFCURVE",
"805 400 OFFCURVE",
"796 385 CURVE SMOOTH",
"756 317 OFFCURVE",
"586 78 OFFCURVE",
"586 15 CURVE SMOOTH",
"586 -6 OFFCURVE",
"597 -25 OFFCURVE",
"620 -25 CURVE SMOOTH"
);
}
);
width = 735;
}
);
unicode = 004D;
},
{
glyphname = N;
lastChange = "2021-07-28 10:59:02 +0000";
layers = (
{
anchors = (
{
name = bottom;
position = "{175, 0}";
},
{
name = top;
position = "{537, 509}";
}
);
layerId = "D7866281-830A-4E76-BB32-392A4BC3306E";
paths = (
{
closed = 1;
nodes = (
"361 -26 OFFCURVE",
"365 -17 OFFCURVE",
"373 -13 CURVE",
"372 -12 OFFCURVE",
"371 -10 OFFCURVE",
"371 -8 CURVE SMOOTH",
"371 28 OFFCURVE",
"526 284 OFFCURVE",
"557 335 CURVE SMOOTH",
"576 367 OFFCURVE",
"597 407 OFFCURVE",
"597 444 CURVE SMOOTH",
"597 478 OFFCURVE",
"579 498 OFFCURVE",
"545 498 CURVE SMOOTH",
"429 498 OFFCURVE",
"231 285 OFFCURVE",
"155 201 CURVE",
"193 261 OFFCURVE",
"232 321 OFFCURVE",
"272 380 CURVE SMOOTH",
"294 412 OFFCURVE",
"316 444 OFFCURVE",
"341 473 CURVE SMOOTH",
"348 482 OFFCURVE",
"351 489 OFFCURVE",
"351 495 CURVE SMOOTH",
"351 509 OFFCURVE",
"333 516 OFFCURVE",
"315 516 CURVE SMOOTH",
"300 516 OFFCURVE",
"284 511 OFFCURVE",
"278 503 CURVE SMOOTH",
"247 463 OFFCURVE",
"221 417 OFFCURVE",
"195 374 CURVE SMOOTH",
"127 258 OFFCURVE",
"51 121 OFFCURVE",
"3 -5 CURVE",
"1 -13 OFFCURVE",
"9 -14 OFFCURVE",
"18 -14 CURVE SMOOTH",
"25 -14 OFFCURVE",
"32 -13 OFFCURVE",
"32 -13 CURVE",
"104 130 OFFCURVE",
"308 340 OFFCURVE",
"440 437 CURVE SMOOTH",
"456 449 OFFCURVE",
"491 467 OFFCURVE",
"511 467 CURVE SMOOTH",
"521 467 OFFCURVE",
"532 455 OFFCURVE",
"532 444 CURVE SMOOTH",
"532 373 OFFCURVE",
"323 87 OFFCURVE",
"314 14 CURVE SMOOTH",
"311 -10 OFFCURVE",
"328 -26 OFFCURVE",
"353 -26 CURVE SMOOTH"
);
}
);
width = 484;
}
);
unicode = 004E;
},
{
glyphname = Eng;
lastChange = "2021-07-28 10:59:02 +0000";
layers = (
{
layerId = "D7866281-830A-4E76-BB32-392A4BC3306E";
paths = (
{
closed = 1;
nodes = (
"173 -323 OFFCURVE",
"254 -210 OFFCURVE",
"338 -71 CURVE SMOOTH",
"358 -38 OFFCURVE",
"536 284 OFFCURVE",
"557 335 CURVE SMOOTH",
"571 370 OFFCURVE",
"597 407 OFFCURVE",
"597 444 CURVE SMOOTH",
"597 478 OFFCURVE",
"579 498 OFFCURVE",
"545 498 CURVE SMOOTH",
"429 498 OFFCURVE",
"231 285 OFFCURVE",
"155 201 CURVE",
"193 261 OFFCURVE",
"232 321 OFFCURVE",
"272 380 CURVE SMOOTH",
"294 412 OFFCURVE",
"316 444 OFFCURVE",
"341 473 CURVE SMOOTH",
"348 482 OFFCURVE",
"351 489 OFFCURVE",
"351 495 CURVE SMOOTH",
"351 509 OFFCURVE",
"333 516 OFFCURVE",
"315 516 CURVE SMOOTH",
"300 516 OFFCURVE",
"284 511 OFFCURVE",
"278 503 CURVE SMOOTH",
"247 463 OFFCURVE",
"221 417 OFFCURVE",
"195 374 CURVE SMOOTH",
"127 258 OFFCURVE",
"51 121 OFFCURVE",
"3 -5 CURVE",
"1 -13 OFFCURVE",
"9 -14 OFFCURVE",
"18 -14 CURVE SMOOTH",
"25 -14 OFFCURVE",
"32 -13 OFFCURVE",
"32 -13 CURVE",
"104 130 OFFCURVE",
"308 340 OFFCURVE",
"440 437 CURVE SMOOTH",
"456 449 OFFCURVE",
"491 467 OFFCURVE",
"511 467 CURVE SMOOTH",
"521 467 OFFCURVE",
"532 455 OFFCURVE",
"532 444 CURVE SMOOTH",
"532 372 OFFCURVE",
"320 1 OFFCURVE",
"281 -63 CURVE SMOOTH",
"235 -138 OFFCURVE",
"154 -264 OFFCURVE",
"90 -296 CURVE SMOOTH",
"76 -303 OFFCURVE",
"60 -307 OFFCURVE",
"44 -307 CURVE SMOOTH",
"27 -307 OFFCURVE",
"11 -301 OFFCURVE",
"7 -282 CURVE",
"-2 -284 LINE",
"7 -316 OFFCURVE",
"37 -323 OFFCURVE",
"66 -323 CURVE SMOOTH"
);
}
);
width = 484;
}
);
note = Eng;
unicode = 014A;
},
{
glyphname = O;
lastChange = "2021-07-28 10:59:02 +0000";
layers = (
{
anchors = (
{
name = bottom;
position = "{42, 0}";
},
{
name = center;
position = "{242, 325}";
},
{
name = ogonek;
position = "{106, 10}";
},
{
name = top;
position = "{461, 520}";
},
{
name = topleft;
position = "{20, 650}";
},
{
name = topright;
position = "{501, 487}";
}
);
layerId = "D7866281-830A-4E76-BB32-392A4BC3306E";
paths = (
{
closed = 1;
nodes = (
"257 -5 OFFCURVE",
"383 108 OFFCURVE",
"453 213 CURVE SMOOTH",
"488 267 OFFCURVE",
"522 337 OFFCURVE",
"522 402 CURVE SMOOTH",
"522 477 OFFCURVE",
"461 520 OFFCURVE",
"389 520 CURVE SMOOTH",
"214 520 OFFCURVE",
"11 268 OFFCURVE",
"11 102 CURVE SMOOTH",
"11 30 OFFCURVE",
"52 -5 OFFCURVE",
"122 -5 CURVE SMOOTH"
);
},
{
closed = 1;
nodes = (
"99 19 OFFCURVE",
"75 57 OFFCURVE",
"75 108 CURVE SMOOTH",
"75 169 OFFCURVE",
"108 238 OFFCURVE",
"141 289 CURVE SMOOTH",
"192 368 OFFCURVE",
"309 490 OFFCURVE",
"411 490 CURVE SMOOTH",
"465 490 OFFCURVE",
"489 452 OFFCURVE",
"489 402 CURVE SMOOTH",
"489 340 OFFCURVE",
"456 271 OFFCURVE",
"423 221 CURVE SMOOTH",
"372 142 OFFCURVE",
"255 19 OFFCURVE",
"153 19 CURVE SMOOTH"
);
}
);
width = 484;
}
);
unicode = 004F;
},
{
glyphname = Oslash;
lastChange = "2021-07-28 10:59:02 +0000";
layers = (
{
anchors = (
{
name = bottom;
position = "{234, 0}";
},
{
name = top;
position = "{514, 609}";
}
);
layerId = "D7866281-830A-4E76-BB32-392A4BC3306E";
paths = (
{
closed = 1;
nodes = (
"53 -110 OFFCURVE",
"64 -105 OFFCURVE",
"64 -100 CURVE SMOOTH",
"64 -96 OFFCURVE",
"54 -97 OFFCURVE",
"54 -82 CURVE SMOOTH",
"54 -64 OFFCURVE",
"72 -35 OFFCURVE",
"82 -20 CURVE",
"97 -24 OFFCURVE",
"111 -25 OFFCURVE",
"126 -25 CURVE SMOOTH",
"271 -25 OFFCURVE",
"394 100 OFFCURVE",
"468 213 CURVE SMOOTH",
"506 271 OFFCURVE",
"541 349 OFFCURVE",
"541 419 CURVE SMOOTH",
"541 456 OFFCURVE",
"530 492 OFFCURVE",
"500 516 CURVE",
"518 537 OFFCURVE",
"536 558 OFFCURVE",
"553 580 CURVE SMOOTH",
"556 584 OFFCURVE",
"559 588 OFFCURVE",
"559 593 CURVE SMOOTH",
"559 605 OFFCURVE",
"528 609 OFFCURVE",
"519 609 CURVE SMOOTH",
"514 609 OFFCURVE",
"463 545 OFFCURVE",
"458 538 CURVE",
"442 543 OFFCURVE",
"426 546 OFFCURVE",
"409 546 CURVE SMOOTH",
"220 546 OFFCURVE",
"8 268 OFFCURVE",
"8 92 CURVE SMOOTH",
"8 51 OFFCURVE",
"21 10 OFFCURVE",
"59 -11 CURVE",
"48 -30 OFFCURVE",
"32 -61 OFFCURVE",
"32 -84 CURVE SMOOTH",
"32 -92 OFFCURVE",
"38 -110 OFFCURVE",
"48 -110 CURVE SMOOTH"
);
},
{
closed = 1;
nodes = (
"80 56 OFFCURVE",
"76 77 OFFCURVE",
"76 98 CURVE SMOOTH",
"76 165 OFFCURVE",
"111 240 OFFCURVE",
"146 295 CURVE SMOOTH",
"200 379 OFFCURVE",
"324 514 OFFCURVE",
"433 514 CURVE SMOOTH",
"439 514 LINE",
"318 358 OFFCURVE",
"204 198 OFFCURVE",
"90 38 CURVE"
);
},
{
closed = 1;
nodes = (
"141 2 OFFCURVE",
"123 6 OFFCURVE",
"109 17 CURVE",
"234 177 OFFCURVE",
"357 339 OFFCURVE",
"485 497 CURVE",
"509 478 OFFCURVE",
"516 447 OFFCURVE",
"516 418 CURVE SMOOTH",
"516 351 OFFCURVE",
"481 276 OFFCURVE",
"446 221 CURVE SMOOTH",
"392 137 OFFCURVE",
"268 2 OFFCURVE",
"159 2 CURVE SMOOTH"
);
}
);
width = 467;
}
);
unicode = 00D8;
},
{
glyphname = OE;
lastChange = "2021-07-28 10:59:02 +0000";
layers = (
{
layerId = "D7866281-830A-4E76-BB32-392A4BC3306E";
paths = (
{
closed = 1;
nodes = (
"224 -24 OFFCURVE",
"311 33 OFFCURVE",
"377 101 CURVE",
"372 82 OFFCURVE",
"367 63 OFFCURVE",
"367 44 CURVE SMOOTH",
"367 -20 OFFCURVE",
"435 -22 OFFCURVE",
"484 -22 CURVE SMOOTH",
"487 -22 LINE SMOOTH",
"529 -22 OFFCURVE",
"686 -8 OFFCURVE",
"722 7 CURVE SMOOTH",
"742 16 OFFCURVE",
"757 45 OFFCURVE",
"765 65 CURVE",
"693 36 OFFCURVE",
"584 -2 OFFCURVE",
"508 -2 CURVE SMOOTH",
"467 -2 OFFCURVE",
"425 9 OFFCURVE",
"425 58 CURVE SMOOTH",
"425 85 OFFCURVE",
"436 113 OFFCURVE",
"448 137 CURVE SMOOTH",
"467 178 OFFCURVE",
"490 237 OFFCURVE",
"541 244 CURVE SMOOTH",
"569 248 OFFCURVE",
"599 250 OFFCURVE",
"628 252 CURVE SMOOTH",
"677 256 OFFCURVE",
"727 261 OFFCURVE",
"776 261 CURVE",
"780 264 OFFCURVE",
"798 278 OFFCURVE",
"798 283 CURVE SMOOTH",
"798 284 OFFCURVE",
"796 284 OFFCURVE",
"795 284 CURVE SMOOTH",
"535 284 LINE",
"555 315 OFFCURVE",
"576 347 OFFCURVE",
"599 376 CURVE SMOOTH",
"646 434 OFFCURVE",
"680 444 OFFCURVE",
"753 444 CURVE SMOOTH",
"789 444 OFFCURVE",
"824 438 OFFCURVE",
"859 438 CURVE SMOOTH",
"873 438 OFFCURVE",
"917 467 OFFCURVE",
"917 481 CURVE SMOOTH",
"917 483 OFFCURVE",
"915 484 OFFCURVE",
"913 484 CURVE SMOOTH",
"688 484 LINE",
"673 493 OFFCURVE",
"643 509 OFFCURVE",
"626 509 CURVE SMOOTH",
"623 509 OFFCURVE",
"620 508 OFFCURVE",
"617 506 CURVE",
"591 479 OFFCURVE",
"561 432 OFFCURVE",
"540 400 CURVE",
"548 487 OFFCURVE",
"499 547 OFFCURVE",
"409 547 CURVE SMOOTH",
"220 547 OFFCURVE",
"8 269 OFFCURVE",
"8 93 CURVE SMOOTH",
"8 16 OFFCURVE",
"50 -24 OFFCURVE",
"126 -24 CURVE SMOOTH"
);
},
{
closed = 1;
nodes = (
"101 3 OFFCURVE",
"76 45 OFFCURVE",
"76 99 CURVE SMOOTH",
"76 165 OFFCURVE",
"111 240 OFFCURVE",
"146 296 CURVE SMOOTH",
"200 380 OFFCURVE",
"324 514 OFFCURVE",
"433 514 CURVE SMOOTH",
"491 514 OFFCURVE",
"516 472 OFFCURVE",
"516 418 CURVE SMOOTH",
"516 399 OFFCURVE",
"512 363 OFFCURVE",
"504 346 CURVE SMOOTH",
"500 337 OFFCURVE",
"492 327 OFFCURVE",
"487 319 CURVE SMOOTH",
"474 298 OFFCURVE",
"462 277 OFFCURVE",
"450 255 CURVE SMOOTH",
"438 235 OFFCURVE",
"427 214 OFFCURVE",
"416 193 CURVE SMOOTH",
"411 182 OFFCURVE",
"406 168 OFFCURVE",
"400 158 CURVE SMOOTH",
"392 146 OFFCURVE",
"378 133 OFFCURVE",
"367 122 CURVE SMOOTH",
"318 71 OFFCURVE",
"233 3 OFFCURVE",
"159 3 CURVE SMOOTH"
);
}
);
width = 767;
}
);
unicode = 0152;
},
{
glyphname = P;
lastChange = "2021-07-28 10:59:02 +0000";
layers = (
{
layerId = "D7866281-830A-4E76-BB32-392A4BC3306E";
paths = (
{
closed = 1;
nodes = (
"187 197 LINE SMOOTH",
"236 200 OFFCURVE",
"292 218 OFFCURVE",
"341 230 CURVE SMOOTH",
"412 248 OFFCURVE",
"567 300 OFFCURVE",
"567 392 CURVE SMOOTH",
"567 483 OFFCURVE",
"468 502 OFFCURVE",
"396 502 CURVE SMOOTH",
"315 502 OFFCURVE",
"233 485 OFFCURVE",
"154 469 CURVE SMOOTH",
"144 467 OFFCURVE",
"134 465 OFFCURVE",
"124 461 CURVE SMOOTH",
"110 455 OFFCURVE",
"103 442 OFFCURVE",
"103 427 CURVE SMOOTH",
"103 412 OFFCURVE",
"112 401 OFFCURVE",
"127 401 CURVE SMOOTH",
"133 401 OFFCURVE",
"138 402 OFFCURVE",
"143 404 CURVE SMOOTH",
"224 428 OFFCURVE",
"326 458 OFFCURVE",
"410 458 CURVE SMOOTH",
"448 458 OFFCURVE",
"526 450 OFFCURVE",
"526 398 CURVE SMOOTH",
"526 313 OFFCURVE",
"348 252 OFFCURVE",
"282 235 CURVE SMOOTH",
"262 229 OFFCURVE",
"240 224 OFFCURVE",
"219 221 CURVE SMOOTH",
"198 218 LINE",
"191 216 OFFCURVE",
"176 210 OFFCURVE",
"176 201 CURVE SMOOTH",
"176 197 OFFCURVE",
"181 197 OFFCURVE",
"184 197 CURVE SMOOTH"
);
},
{
closed = 1;
nodes = (
"27 -12 OFFCURVE",
"31 -7 OFFCURVE",
"33 -2 CURVE",
"72 61 OFFCURVE",
"106 126 OFFCURVE",
"148 187 CURVE SMOOTH",
"196 254 OFFCURVE",
"255 315 OFFCURVE",
"310 377 CURVE",
"303 384 OFFCURVE",
"267 397 OFFCURVE",
"257 397 CURVE SMOOTH",
"240 397 OFFCURVE",
"83 135 OFFCURVE",
"65 101 CURVE SMOOTH",
"47 69 OFFCURVE",
"28 35 OFFCURVE",
"17 -1 CURVE",
"16 -2 OFFCURVE",
"16 -4 OFFCURVE",
"16 -6 CURVE SMOOTH",
"16 -9 OFFCURVE",
"17 -12 OFFCURVE",
"21 -12 CURVE SMOOTH"
);
}
);
width = 439;
}
);
unicode = 0050;
},
{
glyphname = Thorn;
lastChange = "2021-07-28 10:59:02 +0000";
layers = (
{
layerId = "D7866281-830A-4E76-BB32-392A4BC3306E";
paths = (
{
closed = 1;
nodes = (
"-9 -109 OFFCURVE",
"-6 -103 OFFCURVE",
"-3 -99 CURVE SMOOTH",
"36 -36 OFFCURVE",
"69 30 OFFCURVE",
"112 90 CURVE SMOOTH",
"159 158 OFFCURVE",
"327 451 OFFCURVE",
"381 512 CURVE",
"388 525 OFFCURVE",
"346 532 OFFCURVE",
"329 532 CURVE SMOOTH",
"312 532 OFFCURVE",
"151 255 OFFCURVE",
"42 41 CURVE SMOOTH",
"25 8 OFFCURVE",
"-9 -62 OFFCURVE",
"-20 -97 CURVE",
"-20 -99 OFFCURVE",
"-21 -101 OFFCURVE",
"-21 -103 CURVE SMOOTH",
"-21 -106 OFFCURVE",
"-19 -109 OFFCURVE",
"-16 -109 CURVE SMOOTH"
);
},
{
closed = 1;
nodes = (
"150 100 LINE SMOOTH",
"200 103 OFFCURVE",
"256 121 OFFCURVE",
"304 133 CURVE SMOOTH",
"376 151 OFFCURVE",
"530 203 OFFCURVE",
"530 295 CURVE SMOOTH",
"530 386 OFFCURVE",
"432 406 OFFCURVE",
"359 406 CURVE SMOOTH",
"278 406 OFFCURVE",
"196 388 OFFCURVE",
"117 372 CURVE SMOOTH",
"107 370 OFFCURVE",
"97 368 OFFCURVE",
"88 364 CURVE SMOOTH",
"73 358 OFFCURVE",
"66 346 OFFCURVE",
"66 330 CURVE SMOOTH",
"66 315 OFFCURVE",
"75 304 OFFCURVE",
"91 304 CURVE SMOOTH",
"96 304 OFFCURVE",
"101 305 OFFCURVE",
"107 307 CURVE SMOOTH",
"188 331 OFFCURVE",
"289 361 OFFCURVE",
"374 361 CURVE SMOOTH",
"411 361 OFFCURVE",
"489 353 OFFCURVE",
"489 301 CURVE SMOOTH",
"489 216 OFFCURVE",
"311 156 OFFCURVE",
"246 138 CURVE SMOOTH",
"225 132 OFFCURVE",
"204 127 OFFCURVE",
"183 124 CURVE SMOOTH",
"175 123 OFFCURVE",
"168 123 OFFCURVE",
"161 121 CURVE SMOOTH",
"155 119 OFFCURVE",
"139 113 OFFCURVE",
"139 105 CURVE SMOOTH",
"139 101 OFFCURVE",
"144 100 OFFCURVE",
"147 100 CURVE SMOOTH"
);
}
);
width = 439;
}
);
unicode = 00DE;
},
{
glyphname = Q;
lastChange = "2021-07-28 10:59:02 +0000";
layers = (
{
layerId = "D7866281-830A-4E76-BB32-392A4BC3306E";
paths = (
{
closed = 1;
nodes = (
"131 -139 OFFCURVE",
"162 -130 OFFCURVE",
"190 -121 CURVE SMOOTH",
"276 -91 OFFCURVE",
"358 -59 OFFCURVE",
"450 -59 CURVE SMOOTH",
"477 -59 OFFCURVE",
"520 -59 OFFCURVE",
"527 -92 CURVE SMOOTH",
"528 -96 OFFCURVE",
"530 -105 OFFCURVE",
"536 -105 CURVE SMOOTH",
"543 -105 OFFCURVE",
"543 -93 OFFCURVE",
"543 -89 CURVE SMOOTH",
"543 -30 OFFCURVE",
"472 -17 OFFCURVE",
"427 -17 CURVE SMOOTH",
"339 -17 OFFCURVE",
"244 -48 OFFCURVE",
"160 -71 CURVE SMOOTH",
"132 -79 OFFCURVE",
"102 -88 OFFCURVE",
"74 -88 CURVE SMOOTH",
"61 -88 OFFCURVE",
"47 -83 OFFCURVE",
"47 -68 CURVE SMOOTH",
"47 -61 OFFCURVE",
"51 -53 OFFCURVE",
"56 -47 CURVE SMOOTH",
"67 -34 OFFCURVE",
"107 -6 OFFCURVE",
"125 -5 CURVE SMOOTH",
"147 -4 OFFCURVE",
"167 -2 OFFCURVE",
"189 4 CURVE SMOOTH",
"295 32 OFFCURVE",
"394 123 OFFCURVE",
"453 212 CURVE SMOOTH",
"488 265 OFFCURVE",
"522 336 OFFCURVE",
"522 401 CURVE SMOOTH",
"522 475 OFFCURVE",
"461 520 OFFCURVE",
"389 520 CURVE SMOOTH",
"213 520 OFFCURVE",
"11 267 OFFCURVE",
"11 102 CURVE SMOOTH",
"11 48 OFFCURVE",
"36 6 OFFCURVE",
"92 -3 CURVE",
"62 -14 OFFCURVE",
"32 -39 OFFCURVE",
"32 -75 CURVE SMOOTH",
"32 -96 OFFCURVE",
"44 -115 OFFCURVE",
"60 -128 CURVE SMOOTH",
"71 -137 OFFCURVE",
"87 -139 OFFCURVE",
"101 -139 CURVE SMOOTH"
);
},
{
closed = 1;
nodes = (
"99 19 OFFCURVE",
"75 57 OFFCURVE",
"75 108 CURVE SMOOTH",
"75 169 OFFCURVE",
"108 238 OFFCURVE",
"141 289 CURVE SMOOTH",
"192 368 OFFCURVE",
"309 490 OFFCURVE",
"411 490 CURVE SMOOTH",
"465 490 OFFCURVE",
"489 452 OFFCURVE",
"489 402 CURVE SMOOTH",
"489 340 OFFCURVE",
"456 271 OFFCURVE",
"423 221 CURVE SMOOTH",
"372 142 OFFCURVE",
"255 19 OFFCURVE",
"153 19 CURVE SMOOTH"
);
}
);
width = 498;
}
);
unicode = 0051;
},
{
glyphname = R;
lastChange = "2021-07-28 10:59:02 +0000";
layers = (
{
anchors = (
{
name = bottom;
position = "{219, -63}";
},
{
name = top;
position = "{468, 502}";
}
);
layerId = "D7866281-830A-4E76-BB32-392A4BC3306E";
paths = (
{
closed = 1;
nodes = (
"62 -67 OFFCURVE",
"63 -56 OFFCURVE",
"65 -50 CURVE SMOOTH",
"83 3 OFFCURVE",
"129 74 OFFCURVE",
"159 122 CURVE",
"214 34 OFFCURVE",
"381 -31 OFFCURVE",
"481 -31 CURVE SMOOTH",
"488 -31 OFFCURVE",
"499 -30 OFFCURVE",
"499 -23 CURVE SMOOTH",
"499 -19 OFFCURVE",
"497 -17 OFFCURVE",
"493 -17 CURVE SMOOTH",
"480 -15 OFFCURVE",
"467 -14 OFFCURVE",
"453 -11 CURVE SMOOTH",
"388 3 OFFCURVE",
"315 42 OFFCURVE",
"266 88 CURVE SMOOTH",
"240 112 OFFCURVE",
"217 143 OFFCURVE",
"208 178 CURVE",
"253 187 OFFCURVE",
"298 199 OFFCURVE",
"343 211 CURVE SMOOTH",
"417 232 OFFCURVE",
"567 300 OFFCURVE",
"567 392 CURVE SMOOTH",
"567 483 OFFCURVE",
"468 502 OFFCURVE",
"396 502 CURVE SMOOTH",
"314 502 OFFCURVE",
"233 485 OFFCURVE",
"154 469 CURVE SMOOTH",
"144 467 OFFCURVE",
"133 465 OFFCURVE",
"125 461 CURVE SMOOTH",
"110 455 OFFCURVE",
"103 443 OFFCURVE",
"103 427 CURVE SMOOTH",
"103 412 OFFCURVE",
"112 401 OFFCURVE",
"127 401 CURVE SMOOTH",
"133 401 OFFCURVE",
"138 402 OFFCURVE",
"143 404 CURVE SMOOTH",
"226 428 OFFCURVE",
"324 458 OFFCURVE",
"410 458 CURVE SMOOTH",
"448 458 OFFCURVE",
"526 451 OFFCURVE",
"526 398 CURVE SMOOTH",
"526 298 OFFCURVE",
"291 210 OFFCURVE",
"209 199 CURVE",
"241 245 OFFCURVE",
"274 292 OFFCURVE",
"309 336 CURVE SMOOTH",
"322 353 OFFCURVE",
"335 370 OFFCURVE",
"349 386 CURVE",
"351 387 OFFCURVE",
"353 387 OFFCURVE",
"353 389 CURVE SMOOTH",
"353 398 OFFCURVE",
"326 402 OFFCURVE",
"320 402 CURVE SMOOTH",
"317 402 OFFCURVE",
"314 402 OFFCURVE",
"312 400 CURVE SMOOTH",
"297 385 OFFCURVE",
"284 364 OFFCURVE",
"272 347 CURVE SMOOTH",
"244 308 OFFCURVE",
"218 269 OFFCURVE",
"193 229 CURVE",
"161 232 OFFCURVE",
"140 220 OFFCURVE",
"140 186 CURVE SMOOTH",
"140 174 OFFCURVE",
"142 162 OFFCURVE",
"146 151 CURVE",
"125 117 OFFCURVE",
"45 -23 OFFCURVE",
"45 -58 CURVE SMOOTH",
"45 -63 OFFCURVE",
"49 -67 OFFCURVE",
"54 -67 CURVE SMOOTH"
);
}
);
width = 469;
}
);
unicode = 0052;
},
{
glyphname = Rcaron;
lastChange = "2021-07-28 10:59:02 +0000";
layers = (
{
background = {
hints = (
{
horizontal = 1;
place = "{456, 46}";
type = Stem;
},
{
place = "{525, 41}";
type = Stem;
}
);
paths = (
{
closed = 1;
nodes = (
"567 483 OFFCURVE",
"468 502 OFFCURVE",
"396 502 CURVE SMOOTH",
"314 502 OFFCURVE",
"233 485 OFFCURVE",
"154 469 CURVE SMOOTH",
"144 467 OFFCURVE",
"133 465 OFFCURVE",
"125 461 CURVE SMOOTH",
"110 455 OFFCURVE",
"103 443 OFFCURVE",
"103 427 CURVE SMOOTH",
"103 412 OFFCURVE",
"112 401 OFFCURVE",
"127 401 CURVE SMOOTH",
"133 401 OFFCURVE",
"138 402 OFFCURVE",
"143 404 CURVE SMOOTH",
"226 428 OFFCURVE",
"324 458 OFFCURVE",
"410 458 CURVE SMOOTH",
"448 458 OFFCURVE",
"526 451 OFFCURVE",
"526 398 CURVE SMOOTH",
"526 298 OFFCURVE",
"291 210 OFFCURVE",
"209 199 CURVE",
"241 245 OFFCURVE",
"274 292 OFFCURVE",
"309 336 CURVE SMOOTH",
"322 353 OFFCURVE",
"335 370 OFFCURVE",
"349 386 CURVE",
"351 387 OFFCURVE",
"353 387 OFFCURVE",
"353 389 CURVE SMOOTH",
"353 398 OFFCURVE",
"326 402 OFFCURVE",
"320 402 CURVE SMOOTH",
"317 402 OFFCURVE",
"314 402 OFFCURVE",
"312 400 CURVE SMOOTH",
"297 385 OFFCURVE",
"284 364 OFFCURVE",
"272 347 CURVE SMOOTH",
"244 308 OFFCURVE",
"218 269 OFFCURVE",
"193 229 CURVE",
"161 232 OFFCURVE",
"140 220 OFFCURVE",
"140 186 CURVE SMOOTH",
"140 174 OFFCURVE",
"142 162 OFFCURVE",
"146 151 CURVE",
"125 117 OFFCURVE",
"45 -23 OFFCURVE",
"45 -58 CURVE SMOOTH",
"45 -63 OFFCURVE",
"49 -67 OFFCURVE",
"54 -67 CURVE SMOOTH",
"62 -67 OFFCURVE",
"63 -56 OFFCURVE",
"65 -50 CURVE SMOOTH",
"83 3 OFFCURVE",
"129 74 OFFCURVE",
"159 122 CURVE",
"213 35 OFFCURVE",
"377 -31 OFFCURVE",
"477 -31 CURVE SMOOTH",
"483 -31 OFFCURVE",
"499 -32 OFFCURVE",
"499 -23 CURVE SMOOTH",
"499 -19 OFFCURVE",
"497 -17 OFFCURVE",
"493 -17 CURVE SMOOTH",
"480 -15 OFFCURVE",
"467 -14 OFFCURVE",
"453 -11 CURVE SMOOTH",
"388 3 OFFCURVE",
"315 42 OFFCURVE",
"266 88 CURVE SMOOTH",
"240 112 OFFCURVE",
"217 143 OFFCURVE",
"208 178 CURVE",
"253 187 OFFCURVE",
"298 199 OFFCURVE",
"343 211 CURVE SMOOTH",
"417 232 OFFCURVE",
"567 300 OFFCURVE",
"567 392 CURVE SMOOTH"
);
},
{
closed = 1;
nodes = (
"558 635 OFFCURVE",
"474 595 OFFCURVE",
"446 581 CURVE",
"437 589 OFFCURVE",
"384 643 OFFCURVE",
"374 643 CURVE SMOOTH",
"366 643 OFFCURVE",
"355 645 OFFCURVE",
"363 638 CURVE SMOOTH",
"385 619 OFFCURVE",
"412 580 OFFCURVE",
"424 555 CURVE SMOOTH",
"425 553 OFFCURVE",
"426 553 OFFCURVE",
"427 553 CURVE SMOOTH",
"440 553 OFFCURVE",
"542 613 OFFCURVE",
"563 624 CURVE SMOOTH",
"567 626 OFFCURVE",
"573 635 OFFCURVE",
"564 635 CURVE SMOOTH"
);
}
);
};
components = (
{
name = R;
},
{
name = caroncomb.case;
transform = "{1, 0, 0, 1, 409, 232}";
}
);
layerId = "D7866281-830A-4E76-BB32-392A4BC3306E";
width = 469;
}
);
note = Rcaron;
unicode = 0158;
},
{
glyphname = S;
lastChange = "2021-07-28 10:59:02 +0000";
layers = (
{
anchors = (
{
name = bottom;
position = "{125, 0}";
},
{
name = top;
position = "{364, 513}";
}
);
layerId = "D7866281-830A-4E76-BB32-392A4BC3306E";
paths = (
{
closed = 1;
nodes = (
"204 -12 OFFCURVE",
"263 36 OFFCURVE",
"263 103 CURVE SMOOTH",
"263 191 OFFCURVE",
"168 245 OFFCURVE",
"168 316 CURVE SMOOTH",
"168 387 OFFCURVE",
"315 456 OFFCURVE",
"376 462 CURVE",
"348 442 OFFCURVE",
"317 407 OFFCURVE",
"310 374 CURVE",
"319 373 LINE",
"329 412 OFFCURVE",
"410 448 OFFCURVE",
"447 457 CURVE",
"449 457 OFFCURVE",
"457 458 OFFCURVE",
"456 461 CURVE SMOOTH",
"446 499 OFFCURVE",
"441 515 OFFCURVE",
"396 515 CURVE SMOOTH",
"322 515 OFFCURVE",
"156 450 OFFCURVE",
"129 375 CURVE SMOOTH",
"125 363 OFFCURVE",
"122 351 OFFCURVE",
"122 338 CURVE SMOOTH",
"122 262 OFFCURVE",
"221 228 OFFCURVE",
"221 137 CURVE SMOOTH",
"221 87 OFFCURVE",
"186 27 OFFCURVE",
"130 27 CURVE SMOOTH",
"80 27 OFFCURVE",
"49 67 OFFCURVE",
"40 113 CURVE",
"33 113 LINE",
"36 48 OFFCURVE",
"67 -12 OFFCURVE",
"140 -12 CURVE SMOOTH"
);
}
);
width = 309;
}
);
unicode = 0053;
},
{
glyphname = Germandbls;
lastChange = "2021-07-28 10:59:02 +0000";
layers = (
{
layerId = "D7866281-830A-4E76-BB32-392A4BC3306E";
paths = (
{
closed = 1;
nodes = (
"-23 -97 OFFCURVE",
"26 -19 OFFCURVE",
"99 151 CURVE SMOOTH",
"145 261 OFFCURVE",
"221 393 OFFCURVE",
"325 462 CURVE SMOOTH",
"350 479 OFFCURVE",
"381 492 OFFCURVE",
"411 492 CURVE SMOOTH",
"437 492 OFFCURVE",
"463 481 OFFCURVE",
"461 451 CURVE SMOOTH",
"454 373 OFFCURVE",
"286 283 OFFCURVE",
"228 251 CURVE SMOOTH",
"217 245 OFFCURVE",
"196 232 OFFCURVE",
"196 217 CURVE SMOOTH",
"196 203 OFFCURVE",
"216 199 OFFCURVE",
"228 199 CURVE SMOOTH",
"250 199 OFFCURVE",
"275 205 OFFCURVE",
"300 205 CURVE SMOOTH",
"329 205 OFFCURVE",
"393 201 OFFCURVE",
"393 163 CURVE SMOOTH",
"393 102 OFFCURVE",
"231 42 OFFCURVE",
"183 29 CURVE SMOOTH",
"156 21 OFFCURVE",
"127 14 OFFCURVE",
"100 14 CURVE SMOOTH",
"76 14 OFFCURVE",
"70 25 OFFCURVE",
"64 25 CURVE SMOOTH",
"57 25 OFFCURVE",
"53 17 OFFCURVE",
"53 12 CURVE SMOOTH",
"53 -16 OFFCURVE",
"107 -23 OFFCURVE",
"127 -23 CURVE SMOOTH",
"161 -23 OFFCURVE",
"208 -16 OFFCURVE",
"241 -7 CURVE SMOOTH",
"304 11 OFFCURVE",
"450 76 OFFCURVE",
"450 156 CURVE SMOOTH",
"450 214 OFFCURVE",
"369 226 OFFCURVE",
"324 226 CURVE SMOOTH",
"303 226 OFFCURVE",
"282 222 OFFCURVE",
"261 222 CURVE SMOOTH",
"258 222 OFFCURVE",
"241 222 OFFCURVE",
"241 229 CURVE SMOOTH",
"242 238 OFFCURVE",
"269 253 OFFCURVE",
"276 256 CURVE SMOOTH",
"342 295 OFFCURVE",
"530 400 OFFCURVE",
"530 480 CURVE SMOOTH",
"530 514 OFFCURVE",
"498 524 OFFCURVE",
"468 524 CURVE SMOOTH",
"422 524 OFFCURVE",
"350 501 OFFCURVE",
"311 473 CURVE SMOOTH",
"167 372 OFFCURVE",
"39 164 OFFCURVE",
"-6 77 CURVE SMOOTH",
"-37 16 OFFCURVE",
"-93 -48 OFFCURVE",
"-141 -71 CURVE SMOOTH",
"-163 -81 OFFCURVE",
"-178 -89 OFFCURVE",
"-178 -94 CURVE SMOOTH",
"-178 -98 OFFCURVE",
"-168 -100 OFFCURVE",
"-143 -100 CURVE"
);
}
);
width = 496;
}
);
unicode = 1E9E;
},
{
glyphname = Schwa;
lastChange = "2021-07-28 10:59:02 +0000";
layers = (
{
layerId = "D7866281-830A-4E76-BB32-392A4BC3306E";
paths = (
{
closed = 1;
nodes = (
"267 5 OFFCURVE",
"449 109 OFFCURVE",
"522 290 CURVE SMOOTH",
"542 340 OFFCURVE",
"551 380 OFFCURVE",
"551 412 CURVE SMOOTH",
"551 505 OFFCURVE",
"479 530 OFFCURVE",
"410 530 CURVE SMOOTH",
"312 530 OFFCURVE",
"228 456 OFFCURVE",
"184 392 CURVE SMOOTH",
"180 385 OFFCURVE",
"178 380 OFFCURVE",
"178 378 CURVE SMOOTH",
"178 375 OFFCURVE",
"179 374 OFFCURVE",
"181 374 CURVE SMOOTH",
"187 374 OFFCURVE",
"197 380 OFFCURVE",
"207 392 CURVE SMOOTH",
"257 452 OFFCURVE",
"350 504 OFFCURVE",
"409 504 CURVE SMOOTH",
"444 504 OFFCURVE",
"503 501 OFFCURVE",
"503 446 CURVE SMOOTH",
"503 368 OFFCURVE",
"470 301 OFFCURVE",
"435 251 CURVE",
"416 260 OFFCURVE",
"388 263 OFFCURVE",
"359 263 CURVE SMOOTH",
"300 263 OFFCURVE",
"235 250 OFFCURVE",
"216 245 CURVE SMOOTH",
"125 221 OFFCURVE",
"82 158 OFFCURVE",
"82 103 CURVE SMOOTH",
"82 51 OFFCURVE",
"120 5 OFFCURVE",
"191 5 CURVE SMOOTH"
);
},
{
closed = 1;
nodes = (
"139 31 OFFCURVE",
"128 49 OFFCURVE",
"128 74 CURVE SMOOTH",
"128 120 OFFCURVE",
"164 186 OFFCURVE",
"219 202 CURVE SMOOTH",
"241 208 OFFCURVE",
"303 232 OFFCURVE",
"368 232 CURVE SMOOTH",
"384 232 OFFCURVE",
"401 231 OFFCURVE",
"417 227 CURVE",
"382 190 OFFCURVE",
"253 31 OFFCURVE",
"164 31 CURVE SMOOTH"
);
}
);
width = 589;
}
);
unicode = 018F;
},
{
glyphname = T;
lastChange = "2021-07-28 10:59:02 +0000";
layers = (
{
anchors = (
{
name = bottom;
position = "{112, 0}";
},
{
name = center;
position = "{275, 307}";
},
{
name = top;
position = "{419, 498}";
}
);
layerId = "D7866281-830A-4E76-BB32-392A4BC3306E";
paths = (
{
closed = 1;
nodes = (
"119 -11 OFFCURVE",
"123 -3 OFFCURVE",
"124 0 CURVE SMOOTH",
"141 36 OFFCURVE",
"157 73 OFFCURVE",
"175 108 CURVE SMOOTH",
"238 227 OFFCURVE",
"316 338 OFFCURVE",
"397 446 CURVE",
"434 444 OFFCURVE",
"473 440 OFFCURVE",
"508 429 CURVE SMOOTH",
"517 426 OFFCURVE",
"530 422 OFFCURVE",
"536 415 CURVE SMOOTH",
"537 414 OFFCURVE",
"537 411 OFFCURVE",
"539 411 CURVE SMOOTH",
"545 411 OFFCURVE",
"547 422 OFFCURVE",
"547 426 CURVE SMOOTH",
"547 464 OFFCURVE",
"450 481 OFFCURVE",
"424 484 CURVE",
"425 486 OFFCURVE",
"426 488 OFFCURVE",
"426 490 CURVE SMOOTH",
"426 497 OFFCURVE",
"419 498 OFFCURVE",
"414 498 CURVE SMOOTH",
"403 498 OFFCURVE",
"395 496 OFFCURVE",
"387 488 CURVE",
"360 491 OFFCURVE",
"332 492 OFFCURVE",
"304 492 CURVE SMOOTH",
"225 492 OFFCURVE",
"49 482 OFFCURVE",
"15 397 CURVE",
"13 390 OFFCURVE",
"11 384 OFFCURVE",
"11 377 CURVE SMOOTH",
"11 350 OFFCURVE",
"38 325 OFFCURVE",
"65 325 CURVE SMOOTH",
"66 325 OFFCURVE",
"71 325 OFFCURVE",
"71 327 CURVE SMOOTH",
"71 333 OFFCURVE",
"52 338 OFFCURVE",
"52 356 CURVE SMOOTH",
"52 365 OFFCURVE",
"57 373 OFFCURVE",
"63 379 CURVE SMOOTH",
"113 437 OFFCURVE",
"280 444 OFFCURVE",
"353 446 CURVE",
"303 377 OFFCURVE",
"111 71 OFFCURVE",
"111 -1 CURVE SMOOTH",
"111 -3 OFFCURVE",
"111 -11 OFFCURVE",
"115 -11 CURVE SMOOTH"
);
}
);
width = 354;
}
);
unicode = 0054;
},
{
glyphname = U;
lastChange = "2021-07-28 10:59:02 +0000";
layers = (
{
anchors = (
{
name = bottom;
position = "{165, 0}";
},
{
name = ogonek;
position = "{418, -79}";
},
{
name = top;
position = "{421, 492}";
},
{
name = topright;
position = "{572, 545}";
}
);
layerId = "D7866281-830A-4E76-BB32-392A4BC3306E";
paths = (
{
closed = 1;
nodes = (
"421 -90 OFFCURVE",
"460 -82 OFFCURVE",
"460 -64 CURVE SMOOTH",
"460 -62 OFFCURVE",
"459 -60 OFFCURVE",
"458 -60 CURVE SMOOTH",
"453 -60 OFFCURVE",
"437 -79 OFFCURVE",
"418 -79 CURVE SMOOTH",
"385 -79 OFFCURVE",
"378 -36 OFFCURVE",
"378 -11 CURVE SMOOTH",
"378 35 OFFCURVE",
"394 96 OFFCURVE",
"410 140 CURVE SMOOTH",
"460 286 OFFCURVE",
"536 401 OFFCURVE",
"601 500 CURVE SMOOTH",
"602 501 OFFCURVE",
"602 503 OFFCURVE",
"602 504 CURVE SMOOTH",
"602 509 OFFCURVE",
"598 513 OFFCURVE",
"593 513 CURVE SMOOTH",
"577 513 OFFCURVE",
"545 459 OFFCURVE",
"536 447 CURVE SMOOTH",
"417 280 OFFCURVE",
"343 147 OFFCURVE",
"160 41 CURVE SMOOTH",
"146 33 OFFCURVE",
"123 21 OFFCURVE",
"106 21 CURVE SMOOTH",
"91 21 OFFCURVE",
"85 31 OFFCURVE",
"85 45 CURVE SMOOTH",
"85 108 OFFCURVE",
"241 398 OFFCURVE",
"281 467 CURVE SMOOTH",
"283 471 OFFCURVE",
"284 475 OFFCURVE",
"284 478 CURVE SMOOTH",
"284 484 OFFCURVE",
"280 487 OFFCURVE",
"274 487 CURVE SMOOTH",
"264 487 OFFCURVE",
"253 480 OFFCURVE",
"248 472 CURVE SMOOTH",
"240 460 OFFCURVE",
"233 447 OFFCURVE",
"225 435 CURVE SMOOTH",
"206 404 OFFCURVE",
"200 398 OFFCURVE",
"181 368 CURVE SMOOTH",
"134 296 OFFCURVE",
"84 224 OFFCURVE",
"45 148 CURVE SMOOTH",
"30 120 OFFCURVE",
"16 85 OFFCURVE",
"16 53 CURVE SMOOTH",
"16 18 OFFCURVE",
"35 -3 OFFCURVE",
"71 -3 CURVE SMOOTH",
"105 -3 OFFCURVE",
"142 15 OFFCURVE",
"170 31 CURVE SMOOTH",
"248 76 OFFCURVE",
"309 124 OFFCURVE",
"368 192 CURVE",
"360 176 OFFCURVE",
"352 161 OFFCURVE",
"346 144 CURVE SMOOTH",
"331 104 OFFCURVE",
"317 55 OFFCURVE",
"317 12 CURVE SMOOTH",
"317 -49 OFFCURVE",
"343 -90 OFFCURVE",
"407 -90 CURVE SMOOTH"
);
}
);
width = 467;
}
);
unicode = 0055;
},
{
glyphname = V;
lastChange = "2021-07-28 10:59:02 +0000";
layers = (
{
layerId = "D7866281-830A-4E76-BB32-392A4BC3306E";
paths = (
{
closed = 1;
nodes = (
"205 -3 OFFCURVE",
"523 383 OFFCURVE",
"605 504 CURVE SMOOTH",
"607 507 OFFCURVE",
"608 510 OFFCURVE",
"608 514 CURVE SMOOTH",
"608 524 OFFCURVE",
"597 528 OFFCURVE",
"588 528 CURVE SMOOTH",
"579 528 OFFCURVE",
"573 524 OFFCURVE",
"566 517 CURVE SMOOTH",
"551 501 OFFCURVE",
"526 458 OFFCURVE",
"511 437 CURVE SMOOTH",
"410 295 OFFCURVE",
"297 158 OFFCURVE",
"156 55 CURVE SMOOTH",
"139 42 OFFCURVE",
"100 25 OFFCURVE",
"79 25 CURVE SMOOTH",
"68 25 OFFCURVE",
"61 29 OFFCURVE",
"61 41 CURVE SMOOTH",
"61 95 OFFCURVE",
"293 399 OFFCURVE",
"293 466 CURVE SMOOTH",
"293 490 OFFCURVE",
"276 506 OFFCURVE",
"252 506 CURVE SMOOTH",
"244 506 OFFCURVE",
"236 504 OFFCURVE",
"228 500 CURVE",
"229 498 OFFCURVE",
"229 496 OFFCURVE",
"229 495 CURVE SMOOTH",
"229 462 OFFCURVE",
"74 199 OFFCURVE",
"44 151 CURVE SMOOTH",
"26 121 OFFCURVE",
"7 83 OFFCURVE",
"7 48 CURVE SMOOTH",
"7 16 OFFCURVE",
"24 -3 OFFCURVE",
"56 -3 CURVE SMOOTH"
);
}
);
width = 354;
}
);
unicode = 0056;
},
{
glyphname = W;
lastChange = "2021-07-28 10:59:02 +0000";
layers = (
{
anchors = (
{
name = bottom;
position = "{211, 0}";
},
{
name = top;
position = "{571, 501}";
}
);
layerId = "D7866281-830A-4E76-BB32-392A4BC3306E";
paths = (
{
closed = 1;
nodes = (
"95 -7 OFFCURVE",
"136 9 OFFCURVE",
"164 25 CURVE SMOOTH",
"224 60 OFFCURVE",
"327 163 OFFCURVE",
"371 221 CURVE",
"349 176 OFFCURVE",
"326 110 OFFCURVE",
"326 60 CURVE SMOOTH",
"326 23 OFFCURVE",
"339 -7 OFFCURVE",
"380 -7 CURVE SMOOTH",
"533 -7 OFFCURVE",
"738 207 OFFCURVE",
"793 341 CURVE SMOOTH",
"806 372 OFFCURVE",
"817 413 OFFCURVE",
"817 447 CURVE SMOOTH",
"817 476 OFFCURVE",
"808 508 OFFCURVE",
"773 508 CURVE SMOOTH",
"768 508 OFFCURVE",
"748 506 OFFCURVE",
"748 500 CURVE SMOOTH",
"748 497 OFFCURVE",
"754 495 OFFCURVE",
"756 494 CURVE SMOOTH",
"775 483 OFFCURVE",
"778 464 OFFCURVE",
"778 443 CURVE SMOOTH",
"778 389 OFFCURVE",
"749 324 OFFCURVE",
"720 279 CURVE SMOOTH",
"668 198 OFFCURVE",
"524 23 OFFCURVE",
"418 23 CURVE SMOOTH",
"393 23 OFFCURVE",
"385 42 OFFCURVE",
"385 64 CURVE SMOOTH",
"385 117 OFFCURVE",
"428 201 OFFCURVE",
"453 246 CURVE SMOOTH",
"468 272 OFFCURVE",
"484 298 OFFCURVE",
"501 323 CURVE SMOOTH",
"518 347 OFFCURVE",
"586 438 OFFCURVE",
"586 464 CURVE SMOOTH",
"586 489 OFFCURVE",
"554 498 OFFCURVE",
"534 498 CURVE",
"525 476 OFFCURVE",
"510 455 OFFCURVE",
"498 435 CURVE SMOOTH",
"470 390 OFFCURVE",
"441 345 OFFCURVE",
"410 302 CURVE SMOOTH",
"343 209 OFFCURVE",
"245 96 OFFCURVE",
"146 39 CURVE SMOOTH",
"132 31 OFFCURVE",
"111 21 OFFCURVE",
"95 21 CURVE SMOOTH",
"79 21 OFFCURVE",
"73 32 OFFCURVE",
"73 47 CURVE SMOOTH",
"73 156 OFFCURVE",
"269 391 OFFCURVE",
"342 476 CURVE SMOOTH",
"344 479 OFFCURVE",
"346 483 OFFCURVE",
"346 487 CURVE SMOOTH",
"346 504 OFFCURVE",
"317 512 OFFCURVE",
"304 512 CURVE SMOOTH",
"293 512 OFFCURVE",
"286 509 OFFCURVE",
"278 502 CURVE SMOOTH",
"258 486 OFFCURVE",
"240 462 OFFCURVE",
"224 442 CURVE SMOOTH",
"162 363 OFFCURVE",
"10 146 OFFCURVE",
"10 47 CURVE SMOOTH",
"10 12 OFFCURVE",
"28 -7 OFFCURVE",
"63 -7 CURVE SMOOTH"
);
}
);
width = 705;
}
);
unicode = 0057;
},
{
glyphname = X;
lastChange = "2021-07-28 10:59:02 +0000";
layers = (
{
layerId = "D7866281-830A-4E76-BB32-392A4BC3306E";
paths = (
{
closed = 1;
nodes = (
"312 -52 OFFCURVE",
"315 -50 OFFCURVE",
"315 -45 CURVE SMOOTH",
"315 -38 OFFCURVE",
"309 -26 OFFCURVE",
"297 -12 CURVE SMOOTH",
"270 21 OFFCURVE",
"230 127 OFFCURVE",
"218 182 CURVE",
"279 250 OFFCURVE",
"339 319 OFFCURVE",
"398 389 CURVE SMOOTH",
"436 436 OFFCURVE",
"475 484 OFFCURVE",
"510 534 CURVE SMOOTH",
"526 557 OFFCURVE",
"530 575 OFFCURVE",
"523 575 CURVE SMOOTH",
"518 575 OFFCURVE",
"509 567 OFFCURVE",
"495 547 CURVE SMOOTH",
"465 506 OFFCURVE",
"433 466 OFFCURVE",
"400 427 CURVE SMOOTH",
"340 354 OFFCURVE",
"278 284 OFFCURVE",
"214 215 CURVE",
"202 271 OFFCURVE",
"200 371 OFFCURVE",
"200 428 CURVE SMOOTH",
"200 447 OFFCURVE",
"201 467 OFFCURVE",
"201 486 CURVE SMOOTH",
"201 502 OFFCURVE",
"195 508 OFFCURVE",
"185 508 CURVE SMOOTH",
"163 508 OFFCURVE",
"125 471 OFFCURVE",
"124 455 CURVE SMOOTH",
"124 435 LINE SMOOTH",
"124 350 OFFCURVE",
"141 253 OFFCURVE",
"167 172 CURVE",
"111 114 OFFCURVE",
"57 55 OFFCURVE",
"0 0 CURVE",
"-6 -7 OFFCURVE",
"-3 -9 OFFCURVE",
"3 -9 CURVE SMOOTH",
"16 -9 OFFCURVE",
"43 0 OFFCURVE",
"43 0 CURVE",
"88 47 OFFCURVE",
"132 94 OFFCURVE",
"176 142 CURVE",
"193 94 OFFCURVE",
"242 -6 OFFCURVE",
"278 -37 CURVE SMOOTH",
"290 -48 OFFCURVE",
"301 -52 OFFCURVE",
"307 -52 CURVE SMOOTH"
);
}
);
width = 316;
}
);
unicode = 0058;
},
{
glyphname = Y;
lastChange = "2021-07-28 10:59:02 +0000";
layers = (
{
anchors = (
{
name = bottom;
position = "{488, 0}";
},
{
name = top;
position = "{408, 499}";
},
{
name = topleft;
position = "{20, 650}";
}
);
layerId = "D7866281-830A-4E76-BB32-392A4BC3306E";
paths = (
{
closed = 1;
nodes = (
"295 -191 OFFCURVE",
"398 24 OFFCURVE",
"454 201 CURVE SMOOTH",
"481 286 OFFCURVE",
"529 427 OFFCURVE",
"583 496 CURVE SMOOTH",
"586 499 OFFCURVE",
"588 502 OFFCURVE",
"588 507 CURVE SMOOTH",
"588 513 OFFCURVE",
"582 516 OFFCURVE",
"577 516 CURVE SMOOTH",
"569 516 OFFCURVE",
"564 512 OFFCURVE",
"561 506 CURVE",
"536 471 OFFCURVE",
"513 435 OFFCURVE",
"488 400 CURVE SMOOTH",
"413 298 OFFCURVE",
"329 201 OFFCURVE",
"234 117 CURVE SMOOTH",
"204 92 OFFCURVE",
"129 26 OFFCURVE",
"92 26 CURVE SMOOTH",
"81 26 OFFCURVE",
"74 31 OFFCURVE",
"74 43 CURVE SMOOTH",
"74 94 OFFCURVE",
"280 381 OFFCURVE",
"280 450 CURVE SMOOTH",
"280 473 OFFCURVE",
"266 488 OFFCURVE",
"243 488 CURVE SMOOTH",
"235 488 OFFCURVE",
"227 486 OFFCURVE",
"220 482 CURVE",
"221 480 OFFCURVE",
"221 479 OFFCURVE",
"221 477 CURVE SMOOTH",
"221 443 OFFCURVE",
"73 200 OFFCURVE",
"44 151 CURVE SMOOTH",
"27 123 OFFCURVE",
"10 89 OFFCURVE",
"10 55 CURVE SMOOTH",
"10 21 OFFCURVE",
"30 0 OFFCURVE",
"65 0 CURVE SMOOTH",
"73 0 LINE",
"199 14 OFFCURVE",
"381 230 OFFCURVE",
"463 323 CURVE",
"390 173 OFFCURVE",
"328 7 OFFCURVE",
"198 -103 CURVE SMOOTH",
"160 -135 OFFCURVE",
"115 -167 OFFCURVE",
"63 -167 CURVE SMOOTH",
"45 -167 OFFCURVE",
"18 -153 OFFCURVE",
"10 -136 CURVE SMOOTH",
"8 -132 OFFCURVE",
"8 -129 OFFCURVE",
"7 -125 CURVE SMOOTH",
"6 -121 OFFCURVE",
"4 -114 OFFCURVE",
"-2 -114 CURVE SMOOTH",
"-9 -114 OFFCURVE",
"-11 -124 OFFCURVE",
"-11 -129 CURVE SMOOTH",
"-11 -176 OFFCURVE",
"41 -191 OFFCURVE",
"79 -191 CURVE SMOOTH"
);
}
);
width = 447;
}
);
unicode = 0059;
},
{
glyphname = Z;
lastChange = "2021-07-28 10:59:02 +0000";
layers = (
{
anchors = (
{
name = bottom;
position = "{210, 0}";
},
{
name = center;
position = "{288, 270}";
},
{
name = top;
position = "{389, 479}";
}
);
layerId = "D7866281-830A-4E76-BB32-392A4BC3306E";
paths = (
{
closed = 1;
nodes = (
"25 -12 OFFCURVE",
"62 19 OFFCURVE",
"77 29 CURVE",
"145 11 OFFCURVE",
"213 -12 OFFCURVE",
"284 -12 CURVE SMOOTH",
"306 -12 OFFCURVE",
"332 -10 OFFCURVE",
"350 5 CURVE SMOOTH",
"377 28 OFFCURVE",
"394 78 OFFCURVE",
"417 100 CURVE SMOOTH",
"419 102 OFFCURVE",
"422 104 OFFCURVE",
"422 107 CURVE SMOOTH",
"422 110 OFFCURVE",
"418 112 OFFCURVE",
"415 112 CURVE SMOOTH",
"411 112 OFFCURVE",
"408 109 OFFCURVE",
"405 106 CURVE SMOOTH",
"367 65 OFFCURVE",
"345 57 OFFCURVE",
"288 52 CURVE SMOOTH",
"261 49 OFFCURVE",
"234 48 OFFCURVE",
"206 48 CURVE SMOOTH",
"173 48 OFFCURVE",
"136 48 OFFCURVE",
"104 57 CURVE",
"200 154 OFFCURVE",
"408 394 OFFCURVE",
"516 450 CURVE",
"520 447 OFFCURVE",
"527 437 OFFCURVE",
"532 437 CURVE SMOOTH",
"538 437 OFFCURVE",
"540 448 OFFCURVE",
"540 452 CURVE SMOOTH",
"540 477 OFFCURVE",
"468 479 OFFCURVE",
"453 479 CURVE SMOOTH",
"389 479 OFFCURVE",
"327 467 OFFCURVE",
"263 467 CURVE SMOOTH",
"248 467 OFFCURVE",
"226 468 OFFCURVE",
"226 484 CURVE SMOOTH",
"226 487 OFFCURVE",
"226 490 OFFCURVE",
"228 493 CURVE",
"199 492 OFFCURVE",
"143 462 OFFCURVE",
"143 428 CURVE SMOOTH",
"143 406 OFFCURVE",
"178 404 OFFCURVE",
"194 404 CURVE SMOOTH",
"238 404 OFFCURVE",
"292 417 OFFCURVE",
"335 430 CURVE SMOOTH",
"372 442 OFFCURVE",
"452 462 OFFCURVE",
"490 462 CURVE SMOOTH",
"493 462 OFFCURVE",
"497 462 OFFCURVE",
"501 460 CURVE",
"460 453 OFFCURVE",
"129 116 OFFCURVE",
"75 60 CURVE",
"66 65 OFFCURVE",
"57 65 OFFCURVE",
"48 65 CURVE SMOOTH",
"22 65 OFFCURVE",
"-10 29 OFFCURVE",
"-10 4 CURVE SMOOTH",
"-10 -7 OFFCURVE",
"-2 -12 OFFCURVE",
"9 -12 CURVE SMOOTH"
);
}
);
width = 419;
}
);
unicode = 005A;
},
{
glyphname = A.ss01;
lastChange = "2021-07-28 10:59:02 +0000";
layers = (
{
anchors = (
{
name = bottom;
position = "{455, 0}";
},
{
name = ogonek;
position = "{694, 10}";
},
{
name = top;
position = "{873, 507}";
}
);
layerId = "D7866281-830A-4E76-BB32-392A4BC3306E";
paths = (
{
closed = 1;
nodes = (
"176 -32 OFFCURVE",
"214 -26 OFFCURVE",
"253 -11 CURVE SMOOTH",
"337 22 OFFCURVE",
"410 91 OFFCURVE",
"480 168 CURVE",
"504 166 OFFCURVE",
"645 145 OFFCURVE",
"650 133 CURVE",
"651 127 OFFCURVE",
"656 126 OFFCURVE",
"655 135 CURVE SMOOTH",
"650 169 OFFCURVE",
"576 202 OFFCURVE",
"523 217 CURVE",
"600 305 OFFCURVE",
"667 397 OFFCURVE",
"765 461 CURVE SMOOTH",
"782 472 OFFCURVE",
"810 486 OFFCURVE",
"828 486 CURVE SMOOTH",
"839 486 OFFCURVE",
"846 481 OFFCURVE",
"846 469 CURVE SMOOTH",
"846 462 OFFCURVE",
"843 451 OFFCURVE",
"836 436 CURVE SMOOTH",
"785 328 OFFCURVE",
"719 227 OFFCURVE",
"661 122 CURVE SMOOTH",
"639 80 OFFCURVE",
"628 56 OFFCURVE",
"628 36 CURVE SMOOTH",
"628 1 OFFCURVE",
"647 -6 OFFCURVE",
"664 -6 CURVE SMOOTH",
"678 -6 OFFCURVE",
"691 0 OFFCURVE",
"691 0 CURVE",
"686 15 OFFCURVE",
"713 65 OFFCURVE",
"738 111 CURVE SMOOTH",
"776 180 OFFCURVE",
"852 313 OFFCURVE",
"884 363 CURVE SMOOTH",
"909 402 OFFCURVE",
"920 433 OFFCURVE",
"920 456 CURVE SMOOTH",
"920 492 OFFCURVE",
"894 509 OFFCURVE",
"858 509 CURVE SMOOTH",
"829 509 OFFCURVE",
"794 498 OFFCURVE",
"759 477 CURVE SMOOTH",
"665 420 OFFCURVE",
"583 306 OFFCURVE",
"511 222 CURVE",
"472 233 OFFCURVE",
"419 237 OFFCURVE",
"366 237 CURVE SMOOTH",
"314 237 OFFCURVE",
"260 233 OFFCURVE",
"218 224 CURVE SMOOTH",
"69 194 OFFCURVE",
"-1 124 OFFCURVE",
"-1 62 CURVE SMOOTH",
"-1 39 OFFCURVE",
"9 16 OFFCURVE",
"30 -2 CURVE SMOOTH",
"48 -17 OFFCURVE",
"89 -32 OFFCURVE",
"142 -32 CURVE SMOOTH"
);
},
{
closed = 1;
nodes = (
"107 -20 OFFCURVE",
"78 -12 OFFCURVE",
"66 -2 CURVE SMOOTH",
"55 7 OFFCURVE",
"49 19 OFFCURVE",
"49 32 CURVE SMOOTH",
"49 72 OFFCURVE",
"108 123 OFFCURVE",
"248 151 CURVE SMOOTH",
"304 163 OFFCURVE",
"369 170 OFFCURVE",
"428 170 CURVE SMOOTH",
"441 170 OFFCURVE",
"453 170 OFFCURVE",
"465 169 CURVE",
"396 92 OFFCURVE",
"324 25 OFFCURVE",
"250 -1 CURVE SMOOTH",
"212 -15 OFFCURVE",
"175 -20 OFFCURVE",
"144 -20 CURVE SMOOTH"
);
}
);
width = 817;
}
);
},
{
glyphname = AE.ss01;
lastChange = "2021-07-28 10:59:02 +0000";
layers = (
{
anchors = (
{
name = bottom;
position = "{630, 0}";
},
{
name = top;
position = "{1171, 507}";
}
);
layerId = "D7866281-830A-4E76-BB32-392A4BC3306E";
paths = (
{
closed = 1;
nodes = (
"176 -32 OFFCURVE",
"214 -26 OFFCURVE",
"253 -11 CURVE SMOOTH",
"337 22 OFFCURVE",
"410 91 OFFCURVE",
"480 168 CURVE",
"504 166 OFFCURVE",
"645 145 OFFCURVE",
"650 133 CURVE",
"651 127 OFFCURVE",
"656 126 OFFCURVE",
"655 135 CURVE SMOOTH",
"650 169 OFFCURVE",
"576 202 OFFCURVE",
"523 217 CURVE",
"600 305 OFFCURVE",
"667 397 OFFCURVE",
"765 461 CURVE SMOOTH",
"782 472 OFFCURVE",
"810 486 OFFCURVE",
"828 486 CURVE SMOOTH",
"839 486 OFFCURVE",
"846 481 OFFCURVE",
"846 469 CURVE SMOOTH",
"846 462 OFFCURVE",
"843 451 OFFCURVE",
"836 436 CURVE SMOOTH",
"785 328 OFFCURVE",
"719 227 OFFCURVE",
"661 122 CURVE SMOOTH",
"639 80 OFFCURVE",
"628 56 OFFCURVE",
"628 36 CURVE SMOOTH",
"628 1 OFFCURVE",
"647 -6 OFFCURVE",
"664 -6 CURVE SMOOTH",
"678 -6 OFFCURVE",
"691 0 OFFCURVE",
"691 0 CURVE",
"686 15 OFFCURVE",
"713 65 OFFCURVE",
"738 111 CURVE SMOOTH",
"776 180 OFFCURVE",
"852 313 OFFCURVE",
"884 363 CURVE SMOOTH",
"909 402 OFFCURVE",
"920 433 OFFCURVE",
"920 456 CURVE SMOOTH",
"920 492 OFFCURVE",
"894 509 OFFCURVE",
"858 509 CURVE SMOOTH",
"829 509 OFFCURVE",
"794 498 OFFCURVE",
"759 477 CURVE SMOOTH",
"665 420 OFFCURVE",
"583 306 OFFCURVE",
"511 222 CURVE",
"472 233 OFFCURVE",
"419 237 OFFCURVE",
"366 237 CURVE SMOOTH",
"314 237 OFFCURVE",
"260 233 OFFCURVE",
"218 224 CURVE SMOOTH",
"69 194 OFFCURVE",
"-1 124 OFFCURVE",
"-1 62 CURVE SMOOTH",
"-1 39 OFFCURVE",
"9 16 OFFCURVE",
"30 -2 CURVE SMOOTH",
"48 -17 OFFCURVE",
"89 -32 OFFCURVE",
"142 -32 CURVE SMOOTH"
);
},
{
closed = 1;
nodes = (
"107 -20 OFFCURVE",
"78 -12 OFFCURVE",
"66 -2 CURVE SMOOTH",
"55 7 OFFCURVE",
"49 19 OFFCURVE",
"49 32 CURVE SMOOTH",
"49 72 OFFCURVE",
"108 123 OFFCURVE",
"248 151 CURVE SMOOTH",
"304 163 OFFCURVE",
"369 170 OFFCURVE",
"428 170 CURVE SMOOTH",
"441 170 OFFCURVE",
"453 170 OFFCURVE",
"465 169 CURVE",
"396 92 OFFCURVE",
"324 25 OFFCURVE",
"250 -1 CURVE SMOOTH",
"212 -15 OFFCURVE",
"175 -20 OFFCURVE",
"144 -20 CURVE SMOOTH"
);
},
{
closed = 1;
nodes = (
"1033 -36 OFFCURVE",
"1190 19 OFFCURVE",
"1269 105 CURVE SMOOTH",
"1273 109 OFFCURVE",
"1273 116 OFFCURVE",
"1269 116 CURVE SMOOTH",
"1268 116 OFFCURVE",
"1267 115 OFFCURVE",
"1265 114 CURVE SMOOTH",
"1173 40 OFFCURVE",
"1066 13 OFFCURVE",
"947 13 CURVE SMOOTH",
"829 13 OFFCURVE",
"779 71 OFFCURVE",
"779 143 CURVE SMOOTH",
"779 156 OFFCURVE",
"781 169 OFFCURVE",
"784 183 CURVE",
"806 187 OFFCURVE",
"833 196 OFFCURVE",
"861 204 CURVE SMOOTH",
"930 224 OFFCURVE",
"1037 242 OFFCURVE",
"1117 242 CURVE SMOOTH",
"1153 242 OFFCURVE",
"1184 238 OFFCURVE",
"1202 229 CURVE SMOOTH",
"1210 225 OFFCURVE",
"1216 224 OFFCURVE",
"1219 224 CURVE SMOOTH",
"1221 224 OFFCURVE",
"1222 225 OFFCURVE",
"1222 226 CURVE SMOOTH",
"1222 229 OFFCURVE",
"1218 234 OFFCURVE",
"1213 239 CURVE SMOOTH",
"1173 273 OFFCURVE",
"1080 284 OFFCURVE",
"992 284 CURVE SMOOTH",
"925 284 OFFCURVE",
"861 277 OFFCURVE",
"824 270 CURVE",
"896 374 OFFCURVE",
"1086 479 OFFCURVE",
"1214 480 CURVE SMOOTH",
"1255 480 OFFCURVE",
"1289 467 OFFCURVE",
"1289 429 CURVE SMOOTH",
"1289 416 OFFCURVE",
"1284 401 OFFCURVE",
"1270 388 CURVE SMOOTH",
"1251 370 OFFCURVE",
"1243 359 OFFCURVE",
"1243 354 CURVE SMOOTH",
"1243 350 OFFCURVE",
"1246 349 OFFCURVE",
"1251 349 CURVE SMOOTH",
"1259 349 OFFCURVE",
"1275 354 OFFCURVE",
"1291 362 CURVE SMOOTH",
"1317 375 OFFCURVE",
"1352 413 OFFCURVE",
"1352 439 CURVE SMOOTH",
"1352 490 OFFCURVE",
"1302 504 OFFCURVE",
"1245 504 CURVE SMOOTH",
"1078 504 OFFCURVE",
"855 383 OFFCURVE",
"762 252 CURVE",
"733 239 OFFCURVE",
"724 224 OFFCURVE",
"724 211 CURVE SMOOTH",
"724 204 OFFCURVE",
"727 198 OFFCURVE",
"730 194 CURVE",
"721 170 OFFCURVE",
"716 146 OFFCURVE",
"716 122 CURVE SMOOTH",
"716 10 OFFCURVE",
"821 -36 OFFCURVE",
"919 -36 CURVE SMOOTH"
);
}
);
width = 1259;
}
);
},
{
glyphname = B.ss01;
lastChange = "2021-07-28 10:59:02 +0000";
layers = (
{
layerId = "D7866281-830A-4E76-BB32-392A4BC3306E";
paths = (
{
closed = 1;
nodes = (
"427 -44 OFFCURVE",
"561 75 OFFCURVE",
"561 164 CURVE SMOOTH",
"561 216 OFFCURVE",
"514 258 OFFCURVE",
"403 258 CURVE SMOOTH",
"387 258 OFFCURVE",
"370 257 OFFCURVE",
"352 255 CURVE",
"427 272 OFFCURVE",
"603 333 OFFCURVE",
"603 425 CURVE SMOOTH",
"603 475 OFFCURVE",
"555 509 OFFCURVE",
"465 509 CURVE SMOOTH",
"442 509 OFFCURVE",
"416 507 OFFCURVE",
"387 502 CURVE SMOOTH",
"297 488 OFFCURVE",
"230 467 OFFCURVE",
"150 445 CURVE SMOOTH",
"119 437 OFFCURVE",
"77 426 OFFCURVE",
"48 426 CURVE SMOOTH",
"27 426 OFFCURVE",
"16 433 OFFCURVE",
"16 442 CURVE SMOOTH",
"16 450 OFFCURVE",
"23 460 OFFCURVE",
"38 469 CURVE SMOOTH",
"42 472 OFFCURVE",
"47 474 OFFCURVE",
"52 476 CURVE SMOOTH",
"57 478 OFFCURVE",
"59 480 OFFCURVE",
"59 482 CURVE SMOOTH",
"59 484 OFFCURVE",
"57 486 OFFCURVE",
"53 486 CURVE SMOOTH",
"51 486 OFFCURVE",
"49 486 OFFCURVE",
"46 485 CURVE SMOOTH",
"24 477 OFFCURVE",
"-1 450 OFFCURVE",
"5 425 CURVE SMOOTH",
"9 407 OFFCURVE",
"20 391 OFFCURVE",
"34 379 CURVE SMOOTH",
"43 371 OFFCURVE",
"59 366 OFFCURVE",
"82 366 CURVE SMOOTH",
"107 366 OFFCURVE",
"141 372 OFFCURVE",
"185 387 CURVE SMOOTH",
"285 422 OFFCURVE",
"382 458 OFFCURVE",
"473 458 CURVE SMOOTH",
"532 458 OFFCURVE",
"557 440 OFFCURVE",
"557 415 CURVE SMOOTH",
"557 371 OFFCURVE",
"475 303 OFFCURVE",
"354 268 CURVE SMOOTH",
"301 252 OFFCURVE",
"270 246 OFFCURVE",
"238 242 CURVE",
"357 377 LINE",
"358 382 OFFCURVE",
"329 393 OFFCURVE",
"323 393 CURVE SMOOTH",
"306 393 OFFCURVE",
"111 126 OFFCURVE",
"94 59 CURVE SMOOTH",
"92 51 OFFCURVE",
"94 48 OFFCURVE",
"98 48 CURVE SMOOTH",
"103 48 OFFCURVE",
"109 52 OFFCURVE",
"111 58 CURVE",
"133 98 OFFCURVE",
"155 135 OFFCURVE",
"196 187 CURVE SMOOTH",
"224 223 OFFCURVE",
"307 244 OFFCURVE",
"374 244 CURVE SMOOTH",
"452 244 OFFCURVE",
"487 214 OFFCURVE",
"487 175 CURVE SMOOTH",
"487 101 OFFCURVE",
"368 -5 OFFCURVE",
"198 -5 CURVE SMOOTH",
"171 -5 OFFCURVE",
"148 -7 OFFCURVE",
"114 5 CURVE",
"110 6 OFFCURVE",
"104 5 OFFCURVE",
"104 2 CURVE SMOOTH",
"104 1 OFFCURVE",
"105 -1 OFFCURVE",
"108 -3 CURVE SMOOTH",
"123 -16 OFFCURVE",
"155 -44 OFFCURVE",
"244 -44 CURVE SMOOTH"
);
}
);
width = 569;
}
);
},
{
glyphname = C.ss01;
lastChange = "2021-07-28 10:59:02 +0000";
layers = (
{
anchors = (
{
name = bottom;
position = "{190, -23}";
},
{
name = top;
position = "{573, 506}";
}
);
layerId = "D7866281-830A-4E76-BB32-392A4BC3306E";
paths = (
{
closed = 1;
nodes = (
"339 -36 OFFCURVE",
"496 19 OFFCURVE",
"575 105 CURVE SMOOTH",
"579 109 OFFCURVE",
"579 116 OFFCURVE",
"575 116 CURVE SMOOTH",
"574 116 OFFCURVE",
"573 115 OFFCURVE",
"571 114 CURVE SMOOTH",
"479 40 OFFCURVE",
"372 13 OFFCURVE",
"253 13 CURVE SMOOTH",
"118 13 OFFCURVE",
"67 76 OFFCURVE",
"67 149 CURVE SMOOTH",
"67 205 OFFCURVE",
"97 267 OFFCURVE",
"144 311 CURVE SMOOTH",
"235 396 OFFCURVE",
"386 483 OFFCURVE",
"513 483 CURVE SMOOTH",
"540 483 OFFCURVE",
"588 477 OFFCURVE",
"588 441 CURVE SMOOTH",
"588 363 OFFCURVE",
"359 244 OFFCURVE",
"287 244 CURVE SMOOTH",
"278 244 OFFCURVE",
"271 247 OFFCURVE",
"267 247 CURVE SMOOTH",
"265 247 OFFCURVE",
"263 246 OFFCURVE",
"263 243 CURVE SMOOTH",
"263 228 OFFCURVE",
"312 226 OFFCURVE",
"322 226 CURVE SMOOTH",
"343 226 LINE",
"431 234 OFFCURVE",
"666 326 OFFCURVE",
"666 431 CURVE SMOOTH",
"666 489 OFFCURVE",
"595 506 OFFCURVE",
"550 506 CURVE SMOOTH",
"408 506 OFFCURVE",
"235 416 OFFCURVE",
"132 323 CURVE SMOOTH",
"77 273 OFFCURVE",
"22 200 OFFCURVE",
"22 122 CURVE SMOOTH",
"22 10 OFFCURVE",
"127 -36 OFFCURVE",
"225 -36 CURVE SMOOTH"
);
}
);
width = 612;
}
);
},
{
glyphname = D.ss01;
lastChange = "2021-07-28 10:59:02 +0000";
layers = (
{
anchors = (
{
name = bottom;
position = "{358, 0}";
},
{
name = center;
position = "{269, 270}";
},
{
name = top;
position = "{562, 501}";
}
);
layerId = "D7866281-830A-4E76-BB32-392A4BC3306E";
paths = (
{
closed = 1;
nodes = (
"298 -52 OFFCURVE",
"449 -18 OFFCURVE",
"560 54 CURVE SMOOTH",
"663 120 OFFCURVE",
"716 214 OFFCURVE",
"716 299 CURVE SMOOTH",
"716 407 OFFCURVE",
"629 501 OFFCURVE",
"446 501 CURVE SMOOTH",
"305 501 OFFCURVE",
"146 460 OFFCURVE",
"67 398 CURVE SMOOTH",
"33 372 OFFCURVE",
"23 335 OFFCURVE",
"23 303 CURVE SMOOTH",
"23 273 OFFCURVE",
"33 246 OFFCURVE",
"42 236 CURVE SMOOTH",
"47 230 OFFCURVE",
"50 234 OFFCURVE",
"50 238 CURVE SMOOTH",
"50 240 OFFCURVE",
"50 242 OFFCURVE",
"48 244 CURVE SMOOTH",
"42 252 OFFCURVE",
"38 260 OFFCURVE",
"38 269 CURVE SMOOTH",
"38 311 OFFCURVE",
"110 359 OFFCURVE",
"202 392 CURVE SMOOTH",
"290 424 OFFCURVE",
"371 438 OFFCURVE",
"440 438 CURVE SMOOTH",
"598 438 OFFCURVE",
"698 367 OFFCURVE",
"698 277 CURVE SMOOTH",
"698 215 OFFCURVE",
"651 145 OFFCURVE",
"544 82 CURVE SMOOTH",
"424 11 OFFCURVE",
"259 -23 OFFCURVE",
"165 -23 CURVE SMOOTH",
"136 -23 OFFCURVE",
"40 -14 OFFCURVE",
"40 28 CURVE SMOOTH",
"40 36 OFFCURVE",
"43 45 OFFCURVE",
"52 56 CURVE SMOOTH",
"66 73 OFFCURVE",
"91 90 OFFCURVE",
"131 104 CURVE",
"126 93 OFFCURVE",
"123 85 OFFCURVE",
"121 78 CURVE SMOOTH",
"120 74 OFFCURVE",
"120 71 OFFCURVE",
"120 69 CURVE SMOOTH",
"120 62 OFFCURVE",
"122 59 OFFCURVE",
"125 59 CURVE SMOOTH",
"128 59 OFFCURVE",
"130 60 OFFCURVE",
"131 64 CURVE SMOOTH",
"136 77 OFFCURVE",
"145 93 OFFCURVE",
"155 111 CURVE",
"168 115 OFFCURVE",
"181 118 OFFCURVE",
"196 121 CURVE SMOOTH",
"242 130 OFFCURVE",
"291 136 OFFCURVE",
"338 136 CURVE SMOOTH",
"368 136 OFFCURVE",
"397 134 OFFCURVE",
"426 129 CURVE SMOOTH",
"454 125 OFFCURVE",
"490 118 OFFCURVE",
"501 112 CURVE SMOOTH",
"505 110 OFFCURVE",
"509 108 OFFCURVE",
"512 108 CURVE SMOOTH",
"513 108 OFFCURVE",
"514 108 OFFCURVE",
"514 110 CURVE SMOOTH",
"514 112 OFFCURVE",
"512 116 OFFCURVE",
"507 123 CURVE SMOOTH",
"498 133 OFFCURVE",
"463 155 OFFCURVE",
"434 165 CURVE SMOOTH",
"387 182 OFFCURVE",
"336 189 OFFCURVE",
"285 189 CURVE SMOOTH",
"257 189 OFFCURVE",
"229 187 OFFCURVE",
"202 183 CURVE",
"255 260 OFFCURVE",
"327 349 OFFCURVE",
"381 408 CURVE SMOOTH",
"384 411 OFFCURVE",
"385 414 OFFCURVE",
"385 416 CURVE SMOOTH",
"385 423 OFFCURVE",
"369 424 OFFCURVE",
"362 424 CURVE SMOOTH",
"361 424 OFFCURVE",
"360 424 OFFCURVE",
"359 424 CURVE SMOOTH",
"346 424 OFFCURVE",
"240 284 OFFCURVE",
"174 178 CURVE",
"172 178 LINE",
"56 155 OFFCURVE",
"0 100 OFFCURVE",
"0 52 CURVE SMOOTH",
"0 -31 OFFCURVE",
"136 -52 OFFCURVE",
"189 -52 CURVE SMOOTH"
);
}
);
width = 716;
}
);
},
{
glyphname = DZcaron.ss01;
lastChange = "2021-07-28 10:59:02 +0000";
layers = (
{
layerId = "D7866281-830A-4E76-BB32-392A4BC3306E";
paths = (
{
closed = 1;
nodes = (
"516 -327 OFFCURVE",
"561 -317 OFFCURVE",
"617 -293 CURVE SMOOTH",
"800 -216 OFFCURVE",
"1041 -27 OFFCURVE",
"1057 132 CURVE SMOOTH",
"1064 196 OFFCURVE",
"1019 231 OFFCURVE",
"939 231 CURVE SMOOTH",
"887 231 OFFCURVE",
"821 216 OFFCURVE",
"745 186 CURVE",
"749 190 OFFCURVE",
"754 194 OFFCURVE",
"757 196 CURVE SMOOTH",
"874 291 OFFCURVE",
"1066 445 OFFCURVE",
"1103 445 CURVE",
"1106 436 OFFCURVE",
"1113 432 OFFCURVE",
"1118 432 CURVE SMOOTH",
"1125 432 OFFCURVE",
"1131 437 OFFCURVE",
"1131 444 CURVE SMOOTH",
"1131 445 OFFCURVE",
"1131 446 OFFCURVE",
"1131 447 CURVE SMOOTH",
"1126 465 OFFCURVE",
"1086 470 OFFCURVE",
"1042 470 CURVE SMOOTH",
"1001 470 OFFCURVE",
"957 466 OFFCURVE",
"934 463 CURVE SMOOTH",
"904 459 OFFCURVE",
"868 456 OFFCURVE",
"838 456 CURVE SMOOTH",
"826 456 OFFCURVE",
"814 457 OFFCURVE",
"805 458 CURVE SMOOTH",
"791 460 OFFCURVE",
"785 471 OFFCURVE",
"785 479 CURVE SMOOTH",
"785 480 OFFCURVE",
"785 482 OFFCURVE",
"786 483 CURVE SMOOTH",
"788 487 OFFCURVE",
"786 491 OFFCURVE",
"777 487 CURVE SMOOTH",
"771 484 OFFCURVE",
"744 466 OFFCURVE",
"729 446 CURVE SMOOTH",
"724 440 OFFCURVE",
"719 429 OFFCURVE",
"719 419 CURVE SMOOTH",
"719 410 OFFCURVE",
"724 401 OFFCURVE",
"738 397 CURVE SMOOTH",
"748 394 OFFCURVE",
"760 392 OFFCURVE",
"774 392 CURVE SMOOTH",
"818 392 OFFCURVE",
"876 407 OFFCURVE",
"911 419 CURVE SMOOTH",
"944 430 OFFCURVE",
"1046 452 OFFCURVE",
"1082 452 CURVE SMOOTH",
"1087 452 OFFCURVE",
"1091 452 OFFCURVE",
"1093 451 CURVE",
"1039 445 OFFCURVE",
"745 225 OFFCURVE",
"687 170 CURVE",
"679 174 OFFCURVE",
"674 175 OFFCURVE",
"659 175 CURVE SMOOTH",
"629 175 OFFCURVE",
"590 128 OFFCURVE",
"590 103 CURVE SMOOTH",
"590 95 OFFCURVE",
"594 89 OFFCURVE",
"606 89 CURVE SMOOTH",
"623 89 OFFCURVE",
"666 121 OFFCURVE",
"702 151 CURVE",
"780 191 OFFCURVE",
"846 208 OFFCURVE",
"894 208 CURVE SMOOTH",
"953 208 OFFCURVE",
"986 182 OFFCURVE",
"986 137 CURVE SMOOTH",
"986 128 OFFCURVE",
"985 119 OFFCURVE",
"983 110 CURVE SMOOTH",
"946 -38 OFFCURVE",
"774 -203 OFFCURVE",
"620 -271 CURVE SMOOTH",
"562 -297 OFFCURVE",
"515 -308 OFFCURVE",
"482 -308 CURVE SMOOTH",
"446 -308 OFFCURVE",
"427 -294 OFFCURVE",
"427 -272 CURVE SMOOTH",
"427 -230 OFFCURVE",
"491 -159 OFFCURVE",
"637 -82 CURVE SMOOTH",
"734 -31 OFFCURVE",
"846 -4 OFFCURVE",
"862 0 CURVE SMOOTH",
"866 1 OFFCURVE",
"864 10 OFFCURVE",
"861 10 CURVE SMOOTH",
"808 4 OFFCURVE",
"707 -15 OFFCURVE",
"639 -43 CURVE SMOOTH",
"480 -109 OFFCURVE",
"402 -204 OFFCURVE",
"402 -266 CURVE SMOOTH",
"402 -302 OFFCURVE",
"429 -327 OFFCURVE",
"482 -327 CURVE SMOOTH"
);
},
{
closed = 1;
nodes = (
"298 -52 OFFCURVE",
"449 -18 OFFCURVE",
"560 54 CURVE SMOOTH",
"663 120 OFFCURVE",
"716 214 OFFCURVE",
"716 299 CURVE SMOOTH",
"716 407 OFFCURVE",
"629 501 OFFCURVE",
"446 501 CURVE SMOOTH",
"305 501 OFFCURVE",
"146 460 OFFCURVE",
"67 398 CURVE SMOOTH",
"33 372 OFFCURVE",
"23 335 OFFCURVE",
"23 303 CURVE SMOOTH",
"23 273 OFFCURVE",
"33 246 OFFCURVE",
"42 236 CURVE SMOOTH",
"47 230 OFFCURVE",
"50 234 OFFCURVE",
"50 238 CURVE SMOOTH",
"50 240 OFFCURVE",
"50 242 OFFCURVE",
"48 244 CURVE SMOOTH",
"42 252 OFFCURVE",
"38 260 OFFCURVE",
"38 269 CURVE SMOOTH",
"38 311 OFFCURVE",
"110 359 OFFCURVE",
"202 392 CURVE SMOOTH",
"290 424 OFFCURVE",
"371 438 OFFCURVE",
"440 438 CURVE SMOOTH",
"598 438 OFFCURVE",
"698 367 OFFCURVE",
"698 277 CURVE SMOOTH",
"698 215 OFFCURVE",
"651 145 OFFCURVE",
"544 82 CURVE SMOOTH",
"424 11 OFFCURVE",
"259 -23 OFFCURVE",
"165 -23 CURVE SMOOTH",
"136 -23 OFFCURVE",
"40 -14 OFFCURVE",
"40 28 CURVE SMOOTH",
"40 36 OFFCURVE",
"43 45 OFFCURVE",
"52 56 CURVE SMOOTH",
"66 73 OFFCURVE",
"91 90 OFFCURVE",
"131 104 CURVE",
"126 93 OFFCURVE",
"123 85 OFFCURVE",
"121 78 CURVE SMOOTH",
"120 74 OFFCURVE",
"120 71 OFFCURVE",
"120 69 CURVE SMOOTH",
"120 62 OFFCURVE",
"122 59 OFFCURVE",
"125 59 CURVE SMOOTH",
"128 59 OFFCURVE",
"130 60 OFFCURVE",
"131 64 CURVE SMOOTH",
"136 77 OFFCURVE",
"145 93 OFFCURVE",
"155 111 CURVE",
"168 115 OFFCURVE",
"181 118 OFFCURVE",
"196 121 CURVE SMOOTH",
"242 130 OFFCURVE",
"291 136 OFFCURVE",
"338 136 CURVE SMOOTH",
"368 136 OFFCURVE",
"397 134 OFFCURVE",
"426 129 CURVE SMOOTH",
"454 125 OFFCURVE",
"490 118 OFFCURVE",
"501 112 CURVE SMOOTH",
"505 110 OFFCURVE",
"509 108 OFFCURVE",
"512 108 CURVE SMOOTH",
"513 108 OFFCURVE",
"514 108 OFFCURVE",
"514 110 CURVE SMOOTH",
"514 112 OFFCURVE",
"512 116 OFFCURVE",
"507 123 CURVE SMOOTH",
"498 133 OFFCURVE",
"463 155 OFFCURVE",
"434 165 CURVE SMOOTH",
"387 182 OFFCURVE",
"336 189 OFFCURVE",
"285 189 CURVE SMOOTH",
"257 189 OFFCURVE",
"229 187 OFFCURVE",
"202 183 CURVE",
"255 260 OFFCURVE",
"327 349 OFFCURVE",
"381 408 CURVE SMOOTH",
"384 411 OFFCURVE",
"385 414 OFFCURVE",
"385 416 CURVE SMOOTH",
"385 423 OFFCURVE",
"369 424 OFFCURVE",
"362 424 CURVE SMOOTH",
"361 424 OFFCURVE",
"360 424 OFFCURVE",
"359 424 CURVE SMOOTH",
"346 424 OFFCURVE",
"240 284 OFFCURVE",
"174 178 CURVE",
"172 178 LINE",
"56 155 OFFCURVE",
"0 100 OFFCURVE",
"0 52 CURVE SMOOTH",
"0 -31 OFFCURVE",
"136 -52 OFFCURVE",
"189 -52 CURVE SMOOTH"
);
},
{
closed = 1;
nodes = (
"953 556 OFFCURVE",
"1074 629 OFFCURVE",
"1088 640 CURVE SMOOTH",
"1091 642 OFFCURVE",
"1093 648 OFFCURVE",
"1093 652 CURVE SMOOTH",
"1093 653 OFFCURVE",
"1093 653 OFFCURVE",
"1093 654 CURVE SMOOTH",
"1093 657 OFFCURVE",
"1092 660 OFFCURVE",
"1089 660 CURVE SMOOTH",
"1080 659 OFFCURVE",
"977 602 OFFCURVE",
"962 593 CURVE",
"950 603 OFFCURVE",
"891 652 OFFCURVE",
"879 651 CURVE",
"870 652 LINE",
"870 652 OFFCURVE",
"864 652 OFFCURVE",
"864 650 CURVE SMOOTH",
"864 648 OFFCURVE",
"866 647 OFFCURVE",
"868 646 CURVE",
"899 621 OFFCURVE",
"918 590 OFFCURVE",
"939 557 CURVE SMOOTH",
"940 556 OFFCURVE",
"941 555 OFFCURVE",
"943 555 CURVE SMOOTH"
);
}
);
width = 986;
}
);
},
{
glyphname = E.ss01;
lastChange = "2021-07-28 10:59:02 +0000";
layers = (
{
anchors = (
{
name = bottom;
position = "{229, -27}";
},
{
name = ogonek;
position = "{485, 34}";
},
{
name = top;
position = "{551, 504}";
},
{
name = topleft;
position = "{20, 650}";
}
);
layerId = "D7866281-830A-4E76-BB32-392A4BC3306E";
paths = (
{
closed = 1;
nodes = (
"339 -36 OFFCURVE",
"496 19 OFFCURVE",
"575 105 CURVE SMOOTH",
"579 109 OFFCURVE",
"579 116 OFFCURVE",
"575 116 CURVE SMOOTH",
"574 116 OFFCURVE",
"573 115 OFFCURVE",
"571 114 CURVE SMOOTH",
"479 40 OFFCURVE",
"372 13 OFFCURVE",
"253 13 CURVE SMOOTH",
"135 13 OFFCURVE",
"85 71 OFFCURVE",
"85 143 CURVE SMOOTH",
"85 156 OFFCURVE",
"87 169 OFFCURVE",
"90 183 CURVE",
"112 187 OFFCURVE",
"139 196 OFFCURVE",
"167 204 CURVE SMOOTH",
"236 224 OFFCURVE",
"343 242 OFFCURVE",
"423 242 CURVE SMOOTH",
"459 242 OFFCURVE",
"490 238 OFFCURVE",
"508 229 CURVE SMOOTH",
"516 225 OFFCURVE",
"522 224 OFFCURVE",
"525 224 CURVE SMOOTH",
"527 224 OFFCURVE",
"528 225 OFFCURVE",
"528 226 CURVE SMOOTH",
"528 229 OFFCURVE",
"524 234 OFFCURVE",
"519 239 CURVE SMOOTH",
"479 273 OFFCURVE",
"386 284 OFFCURVE",
"298 284 CURVE SMOOTH",
"231 284 OFFCURVE",
"167 277 OFFCURVE",
"130 270 CURVE",
"202 374 OFFCURVE",
"392 479 OFFCURVE",
"520 480 CURVE SMOOTH",
"561 480 OFFCURVE",
"595 467 OFFCURVE",
"595 429 CURVE SMOOTH",
"595 416 OFFCURVE",
"590 401 OFFCURVE",
"576 388 CURVE SMOOTH",
"557 370 OFFCURVE",
"549 359 OFFCURVE",
"549 354 CURVE SMOOTH",
"549 350 OFFCURVE",
"552 349 OFFCURVE",
"557 349 CURVE SMOOTH",
"565 349 OFFCURVE",
"581 354 OFFCURVE",
"597 362 CURVE SMOOTH",
"623 375 OFFCURVE",
"658 413 OFFCURVE",
"658 439 CURVE SMOOTH",
"658 490 OFFCURVE",
"608 504 OFFCURVE",
"551 504 CURVE SMOOTH",
"384 504 OFFCURVE",
"161 383 OFFCURVE",
"68 252 CURVE",
"39 239 OFFCURVE",
"30 224 OFFCURVE",
"30 211 CURVE SMOOTH",
"30 204 OFFCURVE",
"33 198 OFFCURVE",
"36 194 CURVE",
"27 170 OFFCURVE",
"22 146 OFFCURVE",
"22 122 CURVE SMOOTH",
"22 10 OFFCURVE",
"127 -36 OFFCURVE",
"225 -36 CURVE SMOOTH"
);
}
);
width = 565;
}
);
},
{
glyphname = F.ss01;
lastChange = "2021-07-28 10:59:02 +0000";
layers = (
{
layerId = "D7866281-830A-4E76-BB32-392A4BC3306E";
paths = (
{
closed = 1;
nodes = (
"407 -105 OFFCURVE",
"414 -104 OFFCURVE",
"423 -101 CURVE SMOOTH",
"428 -99 OFFCURVE",
"431 -96 OFFCURVE",
"431 -94 CURVE SMOOTH",
"431 -93 OFFCURVE",
"430 -92 OFFCURVE",
"428 -92 CURVE SMOOTH",
"427 -92 OFFCURVE",
"425 -93 OFFCURVE",
"424 -93 CURVE SMOOTH",
"419 -94 OFFCURVE",
"415 -95 OFFCURVE",
"411 -95 CURVE SMOOTH",
"395 -95 OFFCURVE",
"388 -82 OFFCURVE",
"388 -65 CURVE SMOOTH",
"388 -5 OFFCURVE",
"493 116 OFFCURVE",
"565 199 CURVE",
"592 198 OFFCURVE",
"613 194 OFFCURVE",
"628 187 CURVE SMOOTH",
"636 183 OFFCURVE",
"642 181 OFFCURVE",
"645 181 CURVE SMOOTH",
"647 181 OFFCURVE",
"648 182 OFFCURVE",
"648 183 CURVE SMOOTH",
"648 186 OFFCURVE",
"644 191 OFFCURVE",
"638 196 CURVE SMOOTH",
"626 206 OFFCURVE",
"607 215 OFFCURVE",
"585 221 CURVE",
"594 232 OFFCURVE",
"602 241 OFFCURVE",
"609 249 CURVE SMOOTH",
"644 292 OFFCURVE",
"679 351 OFFCURVE",
"679 401 CURVE SMOOTH",
"679 455 OFFCURVE",
"638 499 OFFCURVE",
"510 499 CURVE SMOOTH",
"382 499 OFFCURVE",
"200 457 OFFCURVE",
"84 391 CURVE SMOOTH",
"39 365 OFFCURVE",
"17 326 OFFCURVE",
"17 294 CURVE SMOOTH",
"17 274 OFFCURVE",
"26 256 OFFCURVE",
"42 245 CURVE",
"45 243 OFFCURVE",
"48 242 OFFCURVE",
"51 242 CURVE SMOOTH",
"53 242 OFFCURVE",
"55 243 OFFCURVE",
"55 244 CURVE SMOOTH",
"55 244 OFFCURVE",
"55 245 OFFCURVE",
"53 246 CURVE SMOOTH",
"41 255 OFFCURVE",
"35 263 OFFCURVE",
"35 272 CURVE SMOOTH",
"35 299 OFFCURVE",
"87 327 OFFCURVE",
"147 353 CURVE SMOOTH",
"200 375 OFFCURVE",
"375 429 OFFCURVE",
"494 429 CURVE SMOOTH",
"545 429 OFFCURVE",
"587 419 OFFCURVE",
"604 393 CURVE SMOOTH",
"610 384 OFFCURVE",
"613 372 OFFCURVE",
"613 359 CURVE SMOOTH",
"613 330 OFFCURVE",
"599 292 OFFCURVE",
"564 241 CURVE SMOOTH",
"556 229 LINE",
"512 237 OFFCURVE",
"460 241 OFFCURVE",
"409 241 CURVE SMOOTH",
"351 241 OFFCURVE",
"295 236 OFFCURVE",
"256 229 CURVE SMOOTH",
"170 213 OFFCURVE",
"149 188 OFFCURVE",
"149 169 CURVE SMOOTH",
"149 157 OFFCURVE",
"158 147 OFFCURVE",
"163 144 CURVE SMOOTH",
"170 140 OFFCURVE",
"178 139 OFFCURVE",
"187 139 CURVE SMOOTH",
"213 139 OFFCURVE",
"249 151 OFFCURVE",
"287 161 CURVE SMOOTH",
"353 180 OFFCURVE",
"456 198 OFFCURVE",
"535 199 CURVE",
"481 126 OFFCURVE",
"420 59 OFFCURVE",
"375 -22 CURVE SMOOTH",
"369 -33 OFFCURVE",
"365 -48 OFFCURVE",
"365 -62 CURVE SMOOTH",
"365 -85 OFFCURVE",
"375 -105 OFFCURVE",
"401 -105 CURVE SMOOTH"
);
}
);
width = 630;
}
);
},
{
glyphname = G.ss01;
lastChange = "2021-07-28 10:59:02 +0000";
layers = (
{
anchors = (
{
name = bottom;
position = "{285, -22}";
},
{
name = top;
position = "{537, 515}";
}
);
layerId = "D7866281-830A-4E76-BB32-392A4BC3306E";
paths = (
{
closed = 1;
nodes = (
"389 -248 OFFCURVE",
"466 -199 OFFCURVE",
"523 -142 CURVE SMOOTH",
"563 -102 OFFCURVE",
"722 100 OFFCURVE",
"722 192 CURVE SMOOTH",
"722 205 OFFCURVE",
"719 215 OFFCURVE",
"712 223 CURVE SMOOTH",
"685 255 OFFCURVE",
"582 264 OFFCURVE",
"488 264 CURVE SMOOTH",
"419 264 OFFCURVE",
"354 259 OFFCURVE",
"327 254 CURVE SMOOTH",
"241 238 OFFCURVE",
"220 213 OFFCURVE",
"220 194 CURVE SMOOTH",
"220 182 OFFCURVE",
"229 172 OFFCURVE",
"234 169 CURVE SMOOTH",
"241 165 OFFCURVE",
"249 164 OFFCURVE",
"258 164 CURVE SMOOTH",
"284 164 OFFCURVE",
"319 176 OFFCURVE",
"357 187 CURVE SMOOTH",
"393 197 OFFCURVE",
"524 224 OFFCURVE",
"602 224 CURVE SMOOTH",
"638 224 OFFCURVE",
"661 219 OFFCURVE",
"661 203 CURVE SMOOTH",
"661 192 OFFCURVE",
"654 175 OFFCURVE",
"635 157 CURVE SMOOTH",
"555 76 OFFCURVE",
"432 23 OFFCURVE",
"308 1 CURVE SMOOTH",
"277 -4 OFFCURVE",
"249 -7 OFFCURVE",
"223 -7 CURVE SMOOTH",
"121 -7 OFFCURVE",
"56 32 OFFCURVE",
"56 96 CURVE SMOOTH",
"56 139 OFFCURVE",
"85 194 OFFCURVE",
"153 257 CURVE SMOOTH",
"255 352 OFFCURVE",
"476 441 OFFCURVE",
"584 441 CURVE SMOOTH",
"621 441 OFFCURVE",
"645 430 OFFCURVE",
"645 405 CURVE SMOOTH",
"645 397 OFFCURVE",
"642 388 OFFCURVE",
"638 378 CURVE",
"635 374 OFFCURVE",
"637 369 OFFCURVE",
"639 369 CURVE SMOOTH",
"640 369 OFFCURVE",
"642 371 OFFCURVE",
"644 374 CURVE SMOOTH",
"650 386 OFFCURVE",
"660 412 OFFCURVE",
"659 436 CURVE SMOOTH",
"655 493 OFFCURVE",
"602 515 OFFCURVE",
"537 515 CURVE SMOOTH",
"511 515 OFFCURVE",
"484 511 OFFCURVE",
"457 505 CURVE SMOOTH",
"361 482 OFFCURVE",
"216 404 OFFCURVE",
"123 304 CURVE SMOOTH",
"61 237 OFFCURVE",
"32 170 OFFCURVE",
"32 113 CURVE SMOOTH",
"32 24 OFFCURVE",
"102 -40 OFFCURVE",
"225 -40 CURVE SMOOTH",
"253 -40 OFFCURVE",
"284 -37 OFFCURVE",
"317 -30 CURVE SMOOTH",
"448 -2 OFFCURVE",
"570 70 OFFCURVE",
"640 141 CURVE",
"613 84 OFFCURVE",
"543 -41 OFFCURVE",
"485 -105 CURVE SMOOTH",
"437 -157 OFFCURVE",
"367 -234 OFFCURVE",
"285 -234 CURVE SMOOTH",
"226 -234 OFFCURVE",
"176 -194 OFFCURVE",
"165 -136 CURVE SMOOTH",
"164 -129 OFFCURVE",
"157 -128 OFFCURVE",
"157 -136 CURVE SMOOTH",
"157 -136 OFFCURVE",
"157 -136 OFFCURVE",
"157 -137 CURVE SMOOTH",
"170 -217 OFFCURVE",
"232 -248 OFFCURVE",
"307 -248 CURVE SMOOTH"
);
}
);
width = 695;
}
);
},
{
glyphname = Gcommaaccent.ss01;
lastChange = "2021-07-28 10:59:02 +0000";
layers = (
{
background = {
paths = (
{
closed = 1;
nodes = (
"389 -248 OFFCURVE",
"466 -199 OFFCURVE",
"523 -142 CURVE SMOOTH",
"563 -102 OFFCURVE",
"722 100 OFFCURVE",
"722 192 CURVE SMOOTH",
"722 205 OFFCURVE",
"719 215 OFFCURVE",
"712 223 CURVE SMOOTH",
"685 255 OFFCURVE",
"582 264 OFFCURVE",
"488 264 CURVE SMOOTH",
"419 264 OFFCURVE",
"354 259 OFFCURVE",
"327 254 CURVE SMOOTH",
"241 238 OFFCURVE",
"220 213 OFFCURVE",
"220 194 CURVE SMOOTH",
"220 182 OFFCURVE",
"229 172 OFFCURVE",
"234 169 CURVE SMOOTH",
"241 165 OFFCURVE",
"249 164 OFFCURVE",
"258 164 CURVE SMOOTH",
"284 164 OFFCURVE",
"319 176 OFFCURVE",
"357 187 CURVE SMOOTH",
"393 197 OFFCURVE",
"524 224 OFFCURVE",
"602 224 CURVE SMOOTH",
"636 224 OFFCURVE",
"660 219 OFFCURVE",
"661 205 CURVE SMOOTH",
"662 194 OFFCURVE",
"655 176 OFFCURVE",
"635 157 CURVE SMOOTH",
"555 76 OFFCURVE",
"432 23 OFFCURVE",
"308 1 CURVE SMOOTH",
"277 -4 OFFCURVE",
"249 -7 OFFCURVE",
"223 -7 CURVE SMOOTH",
"121 -7 OFFCURVE",
"56 32 OFFCURVE",
"56 96 CURVE SMOOTH",
"56 139 OFFCURVE",
"85 194 OFFCURVE",
"153 257 CURVE SMOOTH",
"255 352 OFFCURVE",
"476 441 OFFCURVE",
"584 441 CURVE SMOOTH",
"621 441 OFFCURVE",
"645 430 OFFCURVE",
"645 405 CURVE SMOOTH",
"645 397 OFFCURVE",
"642 388 OFFCURVE",
"638 378 CURVE",
"635 374 OFFCURVE",
"637 369 OFFCURVE",
"639 369 CURVE SMOOTH",
"640 369 OFFCURVE",
"642 371 OFFCURVE",
"644 374 CURVE SMOOTH",
"650 386 OFFCURVE",
"660 412 OFFCURVE",
"659 436 CURVE SMOOTH",
"655 493 OFFCURVE",
"602 515 OFFCURVE",
"537 515 CURVE SMOOTH",
"511 515 OFFCURVE",
"484 511 OFFCURVE",
"457 505 CURVE SMOOTH",
"361 482 OFFCURVE",
"216 404 OFFCURVE",
"123 304 CURVE SMOOTH",
"61 237 OFFCURVE",
"32 170 OFFCURVE",
"32 113 CURVE SMOOTH",
"32 24 OFFCURVE",
"102 -40 OFFCURVE",
"225 -40 CURVE SMOOTH",
"253 -40 OFFCURVE",
"284 -37 OFFCURVE",
"317 -30 CURVE SMOOTH",
"448 -2 OFFCURVE",
"570 70 OFFCURVE",
"640 141 CURVE",
"613 84 OFFCURVE",
"543 -41 OFFCURVE",
"485 -105 CURVE SMOOTH",
"437 -157 OFFCURVE",
"367 -234 OFFCURVE",
"285 -234 CURVE SMOOTH",
"226 -234 OFFCURVE",
"176 -194 OFFCURVE",
"165 -136 CURVE SMOOTH",
"164 -129 OFFCURVE",
"157 -128 OFFCURVE",
"157 -136 CURVE SMOOTH",
"157 -136 OFFCURVE",
"157 -136 OFFCURVE",
"157 -137 CURVE SMOOTH",
"170 -217 OFFCURVE",
"232 -248 OFFCURVE",
"307 -248 CURVE SMOOTH"
);
},
{
closed = 1;
nodes = (
"129.55 -208.25 OFFCURVE",
"203.5 -135.15 OFFCURVE",
"203.5 -121.55 CURVE SMOOTH",
"203.5 -107.95 OFFCURVE",
"168.65 -97.75 OFFCURVE",
"157.6 -97.75 CURVE SMOOTH",
"151.65 -97.75 OFFCURVE",
"149.1 -102 OFFCURVE",
"149.1 -107.1 CURVE SMOOTH",
"149.1 -114.75 OFFCURVE",
"151.65 -122.4 OFFCURVE",
"151.65 -129.2 CURVE SMOOTH",
"151.65 -158.1 OFFCURVE",
"132.95 -178.5 OFFCURVE",
"113.4 -196.35 CURVE SMOOTH",
"111.7 -198.05 OFFCURVE",
"110.85 -199.75 OFFCURVE",
"110.85 -202.3 CURVE SMOOTH",
"110.85 -204.85 OFFCURVE",
"112.55 -208.25 OFFCURVE",
"116.8 -208.25 CURVE SMOOTH"
);
}
);
};
components = (
{
name = G.ss01;
},
{
name = commaaccentcomb;
transform = "{1, 0, 0, 1, 205, -22}";
}
);
layerId = "D7866281-830A-4E76-BB32-392A4BC3306E";
width = 695;
}
);
},
{
glyphname = H.ss01;
lastChange = "2021-07-28 10:59:02 +0000";
layers = (
{
anchors = (
{
name = bottom;
position = "{416, 0}";
},
{
name = center;
position = "{350, 325}";
},
{
name = top;
position = "{691, 487}";
},
{
name = topleft;
position = "{20, 650}";
}
);
layerId = "D7866281-830A-4E76-BB32-392A4BC3306E";
paths = (
{
closed = 1;
nodes = (
"171 -151 OFFCURVE",
"174 -147 OFFCURVE",
"177 -140 CURVE SMOOTH",
"211 -61 OFFCURVE",
"337 153 OFFCURVE",
"375 214 CURVE",
"409 217 OFFCURVE",
"443 219 OFFCURVE",
"476 219 CURVE SMOOTH",
"498 219 OFFCURVE",
"519 218 OFFCURVE",
"539 216 CURVE SMOOTH",
"560 214 OFFCURVE",
"632 206 OFFCURVE",
"641 184 CURVE SMOOTH",
"643 179 OFFCURVE",
"647 181 OFFCURVE",
"647 186 CURVE",
"639 240 OFFCURVE",
"552 264 OFFCURVE",
"507 273 CURVE SMOOTH",
"479 279 OFFCURVE",
"450 283 OFFCURVE",
"420 284 CURVE",
"476 370 OFFCURVE",
"512 414 OFFCURVE",
"535 444 CURVE SMOOTH",
"541 453 OFFCURVE",
"544 458 OFFCURVE",
"544 461 CURVE SMOOTH",
"544 467 OFFCURVE",
"538 468 OFFCURVE",
"534 471 CURVE SMOOTH",
"532 472 OFFCURVE",
"526 473 OFFCURVE",
"518 473 CURVE SMOOTH",
"511 473 OFFCURVE",
"504 472 OFFCURVE",
"498 470 CURVE SMOOTH",
"492 467 OFFCURVE",
"469 449 OFFCURVE",
"459 427 CURVE SMOOTH",
"455 419 OFFCURVE",
"458 408 OFFCURVE",
"467 400 CURVE",
"449 371 OFFCURVE",
"425 331 OFFCURVE",
"396 285 CURVE",
"342 286 OFFCURVE",
"287 281 OFFCURVE",
"236 272 CURVE SMOOTH",
"76 243 OFFCURVE",
"7 175 OFFCURVE",
"7 114 CURVE SMOOTH",
"7 87 OFFCURVE",
"20 61 OFFCURVE",
"46 41 CURVE SMOOTH",
"48 40 OFFCURVE",
"51 39 OFFCURVE",
"54 39 CURVE SMOOTH",
"57 39 OFFCURVE",
"59 40 OFFCURVE",
"59 41 CURVE SMOOTH",
"59 41 OFFCURVE",
"58 42 OFFCURVE",
"57 43 CURVE SMOOTH",
"45 52 OFFCURVE",
"39 63 OFFCURVE",
"39 75 CURVE SMOOTH",
"39 117 OFFCURVE",
"110 171 OFFCURVE",
"270 200 CURVE SMOOTH",
"295 204 OFFCURVE",
"322 208 OFFCURVE",
"349 211 CURVE",
"328 180 OFFCURVE",
"190 -54 OFFCURVE",
"170 -112 CURVE SMOOTH",
"166 -125 OFFCURVE",
"164 -134 OFFCURVE",
"164 -141 CURVE SMOOTH",
"164 -148 OFFCURVE",
"166 -151 OFFCURVE",
"168 -151 CURVE SMOOTH"
);
},
{
closed = 1;
nodes = (
"575 -11 OFFCURVE",
"578 -7 OFFCURVE",
"581 0 CURVE SMOOTH",
"644 147 OFFCURVE",
"734 289 OFFCURVE",
"875 474 CURVE SMOOTH",
"881 481 OFFCURVE",
"883 487 OFFCURVE",
"883 490 CURVE SMOOTH",
"883 496 OFFCURVE",
"878 497 OFFCURVE",
"871 497 CURVE SMOOTH",
"863 497 OFFCURVE",
"855 495 OFFCURVE",
"852 494 CURVE SMOOTH",
"820 480 OFFCURVE",
"621 163 OFFCURVE",
"574 27 CURVE SMOOTH",
"570 15 OFFCURVE",
"568 6 OFFCURVE",
"568 -1 CURVE SMOOTH",
"568 -8 OFFCURVE",
"570 -11 OFFCURVE",
"572 -11 CURVE SMOOTH"
);
}
);
width = 699;
}
);
},
{
glyphname = Hbar.ss01;
lastChange = "2021-07-28 10:59:02 +0000";
layers = (
{
background = {
hints = (
{
horizontal = 1;
place = "{241, 235}";
type = Stem;
},
{
horizontal = 1;
place = "{498, -20}";
target = down;
type = TopGhost;
},
{
place = "{18, 35}";
type = Stem;
},
{
horizontal = 1;
place = "{363, 41}";
type = Stem;
},
{
place = "{196, 507}";
type = Stem;
}
);
paths = (
{
closed = 1;
nodes = (
"571 404 LINE",
"243 402 LINE SMOOTH",
"221 402 OFFCURVE",
"196 390 OFFCURVE",
"196 380 CURVE SMOOTH",
"196 364 OFFCURVE",
"235 363 OFFCURVE",
"259 363 CURVE SMOOTH",
"325 363 OFFCURVE",
"703 373 OFFCURVE",
"703 400 CURVE SMOOTH",
"703 404 OFFCURVE",
"689 404 OFFCURVE",
"686 404 CURVE SMOOTH"
);
}
);
};
layerId = "D7866281-830A-4E76-BB32-392A4BC3306E";
paths = (
{
closed = 1;
nodes = (
"171 -151 OFFCURVE",
"174 -147 OFFCURVE",
"177 -140 CURVE SMOOTH",
"211 -61 OFFCURVE",
"337 153 OFFCURVE",
"375 214 CURVE",
"409 217 OFFCURVE",
"443 219 OFFCURVE",
"476 219 CURVE SMOOTH",
"498 219 OFFCURVE",
"519 218 OFFCURVE",
"539 216 CURVE SMOOTH",
"560 214 OFFCURVE",
"632 206 OFFCURVE",
"641 184 CURVE SMOOTH",
"643 179 OFFCURVE",
"647 181 OFFCURVE",
"647 186 CURVE",
"639 240 OFFCURVE",
"552 264 OFFCURVE",
"507 273 CURVE SMOOTH",
"479 279 OFFCURVE",
"450 283 OFFCURVE",
"420 284 CURVE",
"476 370 OFFCURVE",
"512 414 OFFCURVE",
"535 444 CURVE SMOOTH",
"541 453 OFFCURVE",
"544 458 OFFCURVE",
"544 461 CURVE SMOOTH",
"544 467 OFFCURVE",
"538 468 OFFCURVE",
"534 471 CURVE SMOOTH",
"532 472 OFFCURVE",
"526 473 OFFCURVE",
"518 473 CURVE SMOOTH",
"511 473 OFFCURVE",
"504 472 OFFCURVE",
"498 470 CURVE SMOOTH",
"492 467 OFFCURVE",
"469 449 OFFCURVE",
"459 427 CURVE SMOOTH",
"455 419 OFFCURVE",
"458 408 OFFCURVE",
"467 400 CURVE",
"449 371 OFFCURVE",
"425 331 OFFCURVE",
"396 285 CURVE",
"342 286 OFFCURVE",
"287 281 OFFCURVE",
"236 272 CURVE SMOOTH",
"76 243 OFFCURVE",
"7 175 OFFCURVE",
"7 114 CURVE SMOOTH",
"7 87 OFFCURVE",
"20 61 OFFCURVE",
"46 41 CURVE SMOOTH",
"48 40 OFFCURVE",
"51 39 OFFCURVE",
"54 39 CURVE SMOOTH",
"57 39 OFFCURVE",
"59 40 OFFCURVE",
"59 41 CURVE SMOOTH",
"59 41 OFFCURVE",
"58 42 OFFCURVE",
"57 43 CURVE SMOOTH",
"45 52 OFFCURVE",
"39 63 OFFCURVE",
"39 75 CURVE SMOOTH",
"39 117 OFFCURVE",
"110 171 OFFCURVE",
"270 200 CURVE SMOOTH",
"295 204 OFFCURVE",
"322 208 OFFCURVE",
"349 211 CURVE",
"328 180 OFFCURVE",
"190 -54 OFFCURVE",
"170 -112 CURVE SMOOTH",
"166 -125 OFFCURVE",
"164 -134 OFFCURVE",
"164 -141 CURVE SMOOTH",
"164 -148 OFFCURVE",
"166 -151 OFFCURVE",
"168 -151 CURVE SMOOTH"
);
},
{
closed = 1;
nodes = (
"352.712 347 LINE SMOOTH",
"463.681 349 OFFCURVE",
"574.65 350 OFFCURVE",
"685.619 354 CURVE SMOOTH",
"719.168 354 OFFCURVE",
"809.491 355 OFFCURVE",
"837.879 361 CURVE SMOOTH",
"844.33 362 OFFCURVE",
"870.137 368 OFFCURVE",
"870.137 375 CURVE SMOOTH",
"870.137 377 OFFCURVE",
"863.685 377 OFFCURVE",
"861.105 377 CURVE SMOOTH",
"333.356 377 LINE SMOOTH",
"323.034 377 OFFCURVE",
"311.421 368 OFFCURVE",
"311.421 360 CURVE SMOOTH",
"311.421 348 OFFCURVE",
"329.485 346 OFFCURVE",
"341.099 346 CURVE SMOOTH"
);
},
{
closed = 1;
nodes = (
"575 -11 OFFCURVE",
"578 -7 OFFCURVE",
"581 0 CURVE SMOOTH",
"644 147 OFFCURVE",
"734 289 OFFCURVE",
"875 474 CURVE SMOOTH",
"881 481 OFFCURVE",
"883 487 OFFCURVE",
"883 490 CURVE SMOOTH",
"883 496 OFFCURVE",
"878 497 OFFCURVE",
"871 497 CURVE SMOOTH",
"863 497 OFFCURVE",
"855 495 OFFCURVE",
"852 494 CURVE SMOOTH",
"820 480 OFFCURVE",
"621 163 OFFCURVE",
"574 27 CURVE SMOOTH",
"570 15 OFFCURVE",
"568 6 OFFCURVE",
"568 -1 CURVE SMOOTH",
"568 -8 OFFCURVE",
"570 -11 OFFCURVE",
"572 -11 CURVE SMOOTH"
);
}
);
width = 699;
}
);
note = Hbar;
},
{
glyphname = I.ss01;
lastChange = "2021-07-28 10:59:02 +0000";
layers = (
{
anchors = (
{
name = bottom;
position = "{249, 0}";
},
{
name = ogonek;
position = "{272, -5}";
},
{
name = top;
position = "{554, 505}";
},
{
name = topleft;
position = "{20, 650}";
}
);
layerId = "D7866281-830A-4E76-BB32-392A4BC3306E";
paths = (
{
closed = 1;
nodes = (
"27 -145 OFFCURVE",
"33 -145 OFFCURVE",
"33 -143 CURVE SMOOTH",
"33 -143 OFFCURVE",
"33 -142 OFFCURVE",
"32 -141 CURVE SMOOTH",
"23 -134 OFFCURVE",
"19 -125 OFFCURVE",
"19 -115 CURVE SMOOTH",
"19 -80 OFFCURVE",
"72 -33 OFFCURVE",
"194 -9 CURVE SMOOTH",
"208 -6 OFFCURVE",
"223 -3 OFFCURVE",
"238 -1 CURVE",
"237 -5 OFFCURVE",
"236 -8 OFFCURVE",
"236 -10 CURVE SMOOTH",
"236 -14 OFFCURVE",
"238 -16 OFFCURVE",
"240 -16 CURVE SMOOTH",
"245 -16 OFFCURVE",
"252 -11 OFFCURVE",
"259 2 CURVE",
"287 6 OFFCURVE",
"316 8 OFFCURVE",
"344 8 CURVE SMOOTH",
"362 8 OFFCURVE",
"380 7 OFFCURVE",
"397 5 CURVE SMOOTH",
"413 3 OFFCURVE",
"468 -3 OFFCURVE",
"475 -22 CURVE SMOOTH",
"476 -26 OFFCURVE",
"479 -25 OFFCURVE",
"479 -20 CURVE",
"473 26 OFFCURVE",
"407 45 OFFCURVE",
"373 53 CURVE SMOOTH",
"347 59 OFFCURVE",
"321 62 OFFCURVE",
"294 63 CURVE",
"366 186 OFFCURVE",
"445 307 OFFCURVE",
"531 420 CURVE SMOOTH",
"536 425 OFFCURVE",
"537 430 OFFCURVE",
"537 433 CURVE SMOOTH",
"537 441 OFFCURVE",
"528 444 OFFCURVE",
"521 444 CURVE SMOOTH",
"517 444 OFFCURVE",
"513 443 OFFCURVE",
"512 442 CURVE SMOOTH",
"473 410 OFFCURVE",
"341 181 OFFCURVE",
"274 63 CURVE",
"238 63 OFFCURVE",
"203 59 OFFCURVE",
"168 52 CURVE SMOOTH",
"46 28 OFFCURVE",
"-6 -30 OFFCURVE",
"-6 -81 CURVE SMOOTH",
"-6 -104 OFFCURVE",
"5 -126 OFFCURVE",
"24 -143 CURVE SMOOTH"
);
},
{
closed = 1;
nodes = (
"184 273 OFFCURVE",
"185 273 OFFCURVE",
"185 274 CURVE SMOOTH",
"185 275 OFFCURVE",
"185 275 OFFCURVE",
"184 276 CURVE SMOOTH",
"167 288 OFFCURVE",
"159 300 OFFCURVE",
"159 312 CURVE SMOOTH",
"159 381 OFFCURVE",
"407 448 OFFCURVE",
"553 448 CURVE SMOOTH",
"618 448 OFFCURVE",
"663 434 OFFCURVE",
"655 401 CURVE SMOOTH",
"654 392 OFFCURVE",
"663 391 OFFCURVE",
"663 413 CURVE SMOOTH",
"663 488 OFFCURVE",
"554 505 OFFCURVE",
"499 505 CURVE SMOOTH",
"395 505 OFFCURVE",
"258 478 OFFCURVE",
"174 430 CURVE SMOOTH",
"143 412 OFFCURVE",
"131 384 OFFCURVE",
"131 357 CURVE SMOOTH",
"131 323 OFFCURVE",
"149 290 OFFCURVE",
"170 276 CURVE SMOOTH",
"173 274 OFFCURVE",
"179 273 OFFCURVE",
"182 273 CURVE SMOOTH"
);
}
);
width = 497;
}
);
},
{
glyphname = J.ss01;
lastChange = "2021-07-28 10:59:02 +0000";
layers = (
{
anchors = (
{
name = bottom;
position = "{296, 0}";
},
{
name = top;
position = "{564, 502}";
}
);
layerId = "D7866281-830A-4E76-BB32-392A4BC3306E";
paths = (
{
closed = 1;
nodes = (
"27 -309 OFFCURVE",
"69 -298 OFFCURVE",
"118 -274 CURVE SMOOTH",
"290 -189 OFFCURVE",
"497 38 OFFCURVE",
"592 217 CURVE SMOOTH",
"619 267 OFFCURVE",
"643 332 OFFCURVE",
"643 388 CURVE SMOOTH",
"643 451 OFFCURVE",
"611 501 OFFCURVE",
"511 501 CURVE SMOOTH",
"387 502 OFFCURVE",
"268 473 OFFCURVE",
"167 412 CURVE SMOOTH",
"130 389 OFFCURVE",
"116 353 OFFCURVE",
"116 316 CURVE SMOOTH",
"116 274 OFFCURVE",
"135 232 OFFCURVE",
"160 214 CURVE SMOOTH",
"164 212 OFFCURVE",
"170 210 OFFCURVE",
"174 210 CURVE SMOOTH",
"177 210 OFFCURVE",
"179 211 OFFCURVE",
"179 212 CURVE SMOOTH",
"179 212 OFFCURVE",
"178 213 OFFCURVE",
"177 214 CURVE SMOOTH",
"154 230 OFFCURVE",
"144 248 OFFCURVE",
"144 266 CURVE SMOOTH",
"144 297 OFFCURVE",
"177 329 OFFCURVE",
"226 357 CURVE SMOOTH",
"306 403 OFFCURVE",
"408 428 OFFCURVE",
"500 428 CURVE SMOOTH",
"559 428 OFFCURVE",
"593 406 OFFCURVE",
"593 354 CURVE SMOOTH",
"593 323 OFFCURVE",
"581 282 OFFCURVE",
"556 228 CURVE SMOOTH",
"470 45 OFFCURVE",
"256 -195 OFFCURVE",
"95 -262 CURVE SMOOTH",
"68 -274 OFFCURVE",
"40 -280 OFFCURVE",
"17 -280 CURVE SMOOTH",
"-21 -280 OFFCURVE",
"-49 -264 OFFCURVE",
"-49 -231 CURVE SMOOTH",
"-49 -209 OFFCURVE",
"-38 -181 OFFCURVE",
"-10 -146 CURVE SMOOTH",
"50 -68 OFFCURVE",
"150 2 OFFCURVE",
"236 51 CURVE SMOOTH",
"297 85 OFFCURVE",
"355 109 OFFCURVE",
"396 109 CURVE SMOOTH",
"403 109 OFFCURVE",
"408 108 OFFCURVE",
"414 108 CURVE SMOOTH",
"419 108 OFFCURVE",
"421 111 OFFCURVE",
"421 115 CURVE SMOOTH",
"421 116 OFFCURVE",
"421 116 OFFCURVE",
"421 117 CURVE SMOOTH",
"414 143 OFFCURVE",
"386 155 OFFCURVE",
"347 155 CURVE SMOOTH",
"203 155 OFFCURVE",
"11 13 OFFCURVE",
"-60 -97 CURVE SMOOTH",
"-90 -143 OFFCURVE",
"-104 -185 OFFCURVE",
"-104 -219 CURVE SMOOTH",
"-104 -274 OFFCURVE",
"-69 -309 OFFCURVE",
"-7 -309 CURVE SMOOTH"
);
}
);
width = 592;
}
);
},
{
glyphname = K.ss01;
lastChange = "2021-07-28 10:59:02 +0000";
layers = (
{
anchors = (
{
name = bottom;
position = "{567, -77}";
},
{
name = top;
position = "{779, 500}";
}
);
layerId = "D7866281-830A-4E76-BB32-392A4BC3306E";
paths = (
{
closed = 1;
nodes = (
"393 -105 OFFCURVE",
"400 -104 OFFCURVE",
"409 -101 CURVE SMOOTH",
"414 -99 OFFCURVE",
"417 -96 OFFCURVE",
"417 -94 CURVE SMOOTH",
"417 -93 OFFCURVE",
"416 -92 OFFCURVE",
"414 -92 CURVE SMOOTH",
"413 -92 OFFCURVE",
"411 -93 OFFCURVE",
"410 -93 CURVE SMOOTH",
"405 -94 OFFCURVE",
"401 -95 OFFCURVE",
"397 -95 CURVE SMOOTH",
"380 -95 OFFCURVE",
"374 -81 OFFCURVE",
"374 -65 CURVE SMOOTH",
"374 11 OFFCURVE",
"535 177 OFFCURVE",
"595 249 CURVE SMOOTH",
"630 292 OFFCURVE",
"665 351 OFFCURVE",
"665 401 CURVE SMOOTH",
"665 455 OFFCURVE",
"624 499 OFFCURVE",
"496 499 CURVE SMOOTH",
"368 499 OFFCURVE",
"186 457 OFFCURVE",
"70 391 CURVE SMOOTH",
"25 365 OFFCURVE",
"3 326 OFFCURVE",
"3 294 CURVE SMOOTH",
"3 274 OFFCURVE",
"12 256 OFFCURVE",
"28 245 CURVE",
"31 243 OFFCURVE",
"34 242 OFFCURVE",
"37 242 CURVE SMOOTH",
"39 242 OFFCURVE",
"41 243 OFFCURVE",
"41 244 CURVE SMOOTH",
"41 244 OFFCURVE",
"41 245 OFFCURVE",
"39 246 CURVE SMOOTH",
"27 255 OFFCURVE",
"21 263 OFFCURVE",
"21 272 CURVE SMOOTH",
"21 299 OFFCURVE",
"73 327 OFFCURVE",
"133 353 CURVE SMOOTH",
"186 375 OFFCURVE",
"361 429 OFFCURVE",
"480 429 CURVE SMOOTH",
"531 429 OFFCURVE",
"573 419 OFFCURVE",
"590 393 CURVE SMOOTH",
"596 384 OFFCURVE",
"599 373 OFFCURVE",
"599 360 CURVE SMOOTH",
"599 331 OFFCURVE",
"584 292 OFFCURVE",
"550 241 CURVE SMOOTH",
"490 151 OFFCURVE",
"414 73 OFFCURVE",
"361 -22 CURVE SMOOTH",
"355 -33 OFFCURVE",
"351 -48 OFFCURVE",
"351 -62 CURVE SMOOTH",
"351 -85 OFFCURVE",
"361 -105 OFFCURVE",
"387 -105 CURVE SMOOTH"
);
},
{
closed = 1;
nodes = (
"862 -63 OFFCURVE",
"865 -59 OFFCURVE",
"865 -55 CURVE SMOOTH",
"865 -51 OFFCURVE",
"863 -48 OFFCURVE",
"860 -47 CURVE SMOOTH",
"795 -29 OFFCURVE",
"679 59 OFFCURVE",
"649 148 CURVE SMOOTH",
"644 162 OFFCURVE",
"642 175 OFFCURVE",
"642 188 CURVE SMOOTH",
"642 269 OFFCURVE",
"731 325 OFFCURVE",
"796 366 CURVE SMOOTH",
"889 426 OFFCURVE",
"1012 480 OFFCURVE",
"1068 495 CURVE SMOOTH",
"1077 497 OFFCURVE",
"1075 505 OFFCURVE",
"1067 505 CURVE SMOOTH",
"1067 505 OFFCURVE",
"1066 505 OFFCURVE",
"1066 505 CURVE SMOOTH",
"1010 497 OFFCURVE",
"866 431 OFFCURVE",
"764 370 CURVE SMOOTH",
"687 324 OFFCURVE",
"571 255 OFFCURVE",
"571 165 CURVE SMOOTH",
"571 140 OFFCURVE",
"580 114 OFFCURVE",
"600 86 CURVE SMOOTH",
"654 12 OFFCURVE",
"773 -47 OFFCURVE",
"854 -61 CURVE SMOOTH"
);
}
);
width = 775;
}
);
},
{
glyphname = Kcommaaccent.ss01;
lastChange = "2021-07-28 10:59:02 +0000";
layers = (
{
background = {
paths = (
{
closed = 1;
nodes = (
"414 -99 OFFCURVE",
"417 -96 OFFCURVE",
"417 -94 CURVE SMOOTH",
"417 -93 OFFCURVE",
"416 -92 OFFCURVE",
"414 -92 CURVE SMOOTH",
"413 -92 OFFCURVE",
"411 -93 OFFCURVE",
"410 -93 CURVE SMOOTH",
"405 -94 OFFCURVE",
"401 -95 OFFCURVE",
"397 -95 CURVE SMOOTH",
"380 -95 OFFCURVE",
"374 -81 OFFCURVE",
"374 -65 CURVE SMOOTH",
"374 11 OFFCURVE",
"535 177 OFFCURVE",
"595 249 CURVE SMOOTH",
"630 292 OFFCURVE",
"665 351 OFFCURVE",
"665 401 CURVE SMOOTH",
"665 455 OFFCURVE",
"624 499 OFFCURVE",
"496 499 CURVE SMOOTH",
"368 499 OFFCURVE",
"186 457 OFFCURVE",
"70 391 CURVE SMOOTH",
"25 365 OFFCURVE",
"3 326 OFFCURVE",
"3 294 CURVE SMOOTH",
"3 274 OFFCURVE",
"12 256 OFFCURVE",
"28 245 CURVE",
"31 243 OFFCURVE",
"34 242 OFFCURVE",
"37 242 CURVE SMOOTH",
"39 242 OFFCURVE",
"41 243 OFFCURVE",
"41 244 CURVE SMOOTH",
"41 244 OFFCURVE",
"41 245 OFFCURVE",
"39 246 CURVE SMOOTH",
"27 255 OFFCURVE",
"21 263 OFFCURVE",
"21 272 CURVE SMOOTH",
"21 299 OFFCURVE",
"73 327 OFFCURVE",
"133 353 CURVE SMOOTH",
"186 375 OFFCURVE",
"361 429 OFFCURVE",
"480 429 CURVE SMOOTH",
"531 429 OFFCURVE",
"573 419 OFFCURVE",
"590 393 CURVE SMOOTH",
"596 384 OFFCURVE",
"599 373 OFFCURVE",
"599 360 CURVE SMOOTH",
"599 331 OFFCURVE",
"584 292 OFFCURVE",
"550 241 CURVE SMOOTH",
"490 151 OFFCURVE",
"414 73 OFFCURVE",
"361 -22 CURVE SMOOTH",
"355 -33 OFFCURVE",
"351 -48 OFFCURVE",
"351 -62 CURVE SMOOTH",
"351 -85 OFFCURVE",
"361 -105 OFFCURVE",
"387 -105 CURVE SMOOTH",
"393 -105 OFFCURVE",
"400 -104 OFFCURVE",
"409 -101 CURVE SMOOTH"
);
},
{
closed = 1;
nodes = (
"504.55 -149.25 OFFCURVE",
"578.5 -76.15 OFFCURVE",
"578.5 -62.55 CURVE SMOOTH",
"578.5 -48.95 OFFCURVE",
"543.65 -38.75 OFFCURVE",
"532.6 -38.75 CURVE SMOOTH",
"526.65 -38.75 OFFCURVE",
"524.1 -43 OFFCURVE",
"524.1 -48.1 CURVE SMOOTH",
"524.1 -55.75 OFFCURVE",
"526.65 -63.4 OFFCURVE",
"526.65 -70.2 CURVE SMOOTH",
"526.65 -99.1 OFFCURVE",
"507.95 -119.5 OFFCURVE",
"488.4 -137.35 CURVE SMOOTH",
"486.7 -139.05 OFFCURVE",
"485.85 -140.75 OFFCURVE",
"485.85 -143.3 CURVE SMOOTH",
"485.85 -145.85 OFFCURVE",
"487.55 -149.25 OFFCURVE",
"491.8 -149.25 CURVE SMOOTH"
);
},
{
closed = 1;
nodes = (
"862 -63 OFFCURVE",
"865 -59 OFFCURVE",
"865 -55 CURVE SMOOTH",
"865 -51 OFFCURVE",
"863 -48 OFFCURVE",
"860 -47 CURVE SMOOTH",
"795 -29 OFFCURVE",
"679 59 OFFCURVE",
"649 148 CURVE SMOOTH",
"644 162 OFFCURVE",
"642 175 OFFCURVE",
"642 188 CURVE SMOOTH",
"642 269 OFFCURVE",
"731 325 OFFCURVE",
"796 366 CURVE SMOOTH",
"889 426 OFFCURVE",
"1012 480 OFFCURVE",
"1068 495 CURVE SMOOTH",
"1077 497 OFFCURVE",
"1075 505 OFFCURVE",
"1067 505 CURVE SMOOTH",
"1067 505 OFFCURVE",
"1066 505 OFFCURVE",
"1066 505 CURVE SMOOTH",
"1010 497 OFFCURVE",
"866 431 OFFCURVE",
"764 370 CURVE SMOOTH",
"687 324 OFFCURVE",
"571 255 OFFCURVE",
"571 165 CURVE SMOOTH",
"571 140 OFFCURVE",
"580 114 OFFCURVE",
"600 86 CURVE SMOOTH",
"654 12 OFFCURVE",
"773 -47 OFFCURVE",
"854 -61 CURVE SMOOTH"
);
}
);
};
layerId = "D7866281-830A-4E76-BB32-392A4BC3306E";
paths = (
{
closed = 1;
nodes = (
"393 -105 OFFCURVE",
"400 -104 OFFCURVE",
"409 -101 CURVE SMOOTH",
"414 -99 OFFCURVE",
"417 -96 OFFCURVE",
"417 -94 CURVE SMOOTH",
"417 -93 OFFCURVE",
"416 -92 OFFCURVE",
"414 -92 CURVE SMOOTH",
"413 -92 OFFCURVE",
"411 -93 OFFCURVE",
"410 -93 CURVE SMOOTH",
"405 -94 OFFCURVE",
"401 -95 OFFCURVE",
"397 -95 CURVE SMOOTH",
"380 -95 OFFCURVE",
"374 -81 OFFCURVE",
"374 -65 CURVE SMOOTH",
"374 11 OFFCURVE",
"535 177 OFFCURVE",
"595 249 CURVE SMOOTH",
"630 292 OFFCURVE",
"665 351 OFFCURVE",
"665 401 CURVE SMOOTH",
"665 455 OFFCURVE",
"624 499 OFFCURVE",
"496 499 CURVE SMOOTH",
"368 499 OFFCURVE",
"186 457 OFFCURVE",
"70 391 CURVE SMOOTH",
"25 365 OFFCURVE",
"3 326 OFFCURVE",
"3 294 CURVE SMOOTH",
"3 274 OFFCURVE",
"12 256 OFFCURVE",
"28 245 CURVE",
"31 243 OFFCURVE",
"34 242 OFFCURVE",
"37 242 CURVE SMOOTH",
"39 242 OFFCURVE",
"41 243 OFFCURVE",
"41 244 CURVE SMOOTH",
"41 244 OFFCURVE",
"41 245 OFFCURVE",
"39 246 CURVE SMOOTH",
"27 255 OFFCURVE",
"21 263 OFFCURVE",
"21 272 CURVE SMOOTH",
"21 299 OFFCURVE",
"73 327 OFFCURVE",
"133 353 CURVE SMOOTH",
"186 375 OFFCURVE",
"361 429 OFFCURVE",
"480 429 CURVE SMOOTH",
"531 429 OFFCURVE",
"573 419 OFFCURVE",
"590 393 CURVE SMOOTH",
"596 384 OFFCURVE",
"599 373 OFFCURVE",
"599 360 CURVE SMOOTH",
"599 331 OFFCURVE",
"584 292 OFFCURVE",
"550 241 CURVE SMOOTH",
"490 151 OFFCURVE",
"414 73 OFFCURVE",
"361 -22 CURVE SMOOTH",
"355 -33 OFFCURVE",
"351 -48 OFFCURVE",
"351 -62 CURVE SMOOTH",
"351 -85 OFFCURVE",
"361 -105 OFFCURVE",
"387 -105 CURVE SMOOTH"
);
},
{
closed = 1;
nodes = (
"504.55 -149.25 OFFCURVE",
"578.5 -76.15 OFFCURVE",
"578.5 -62.55 CURVE SMOOTH",
"578.5 -48.95 OFFCURVE",
"543.65 -38.75 OFFCURVE",
"532.6 -38.75 CURVE SMOOTH",
"526.65 -38.75 OFFCURVE",
"524.1 -43 OFFCURVE",
"524.1 -48.1 CURVE SMOOTH",
"524.1 -55.75 OFFCURVE",
"526.65 -63.4 OFFCURVE",
"526.65 -70.2 CURVE SMOOTH",
"526.65 -99.1 OFFCURVE",
"507.95 -119.5 OFFCURVE",
"488.4 -137.35 CURVE SMOOTH",
"486.7 -139.05 OFFCURVE",
"485.85 -140.75 OFFCURVE",
"485.85 -143.3 CURVE SMOOTH",
"485.85 -145.85 OFFCURVE",
"487.55 -149.25 OFFCURVE",
"491.8 -149.25 CURVE SMOOTH"
);
},
{
closed = 1;
nodes = (
"862 -63 OFFCURVE",
"865 -59 OFFCURVE",
"865 -55 CURVE SMOOTH",
"865 -51 OFFCURVE",
"863 -48 OFFCURVE",
"860 -47 CURVE SMOOTH",
"795 -29 OFFCURVE",
"679 59 OFFCURVE",
"649 148 CURVE SMOOTH",
"644 162 OFFCURVE",
"642 175 OFFCURVE",
"642 188 CURVE SMOOTH",
"642 269 OFFCURVE",
"731 325 OFFCURVE",
"796 366 CURVE SMOOTH",
"889 426 OFFCURVE",
"1012 480 OFFCURVE",
"1068 495 CURVE SMOOTH",
"1077 497 OFFCURVE",
"1075 505 OFFCURVE",
"1067 505 CURVE SMOOTH",
"1067 505 OFFCURVE",
"1066 505 OFFCURVE",
"1066 505 CURVE SMOOTH",
"1010 497 OFFCURVE",
"866 431 OFFCURVE",
"764 370 CURVE SMOOTH",
"687 324 OFFCURVE",
"571 255 OFFCURVE",
"571 165 CURVE SMOOTH",
"571 140 OFFCURVE",
"580 114 OFFCURVE",
"600 86 CURVE SMOOTH",
"654 12 OFFCURVE",
"773 -47 OFFCURVE",
"854 -61 CURVE SMOOTH"
);
}
);
width = 775;
}
);
},
{
glyphname = L.ss01;
lastChange = "2021-07-28 10:59:02 +0000";
layers = (
{
anchors = (
{
name = bottom;
position = "{269, -37}";
},
{
name = center;
position = "{284, 325}";
},
{
name = top;
position = "{572, 503}";
},
{
name = topright;
position = "{698, 486}";
}
);
layerId = "D7866281-830A-4E76-BB32-392A4BC3306E";
paths = (
{
closed = 1;
nodes = (
"89 51 OFFCURVE",
"114 58 OFFCURVE",
"138 81 CURVE SMOOTH",
"165 107 OFFCURVE",
"195 155 OFFCURVE",
"230 208 CURVE",
"241 207 OFFCURVE",
"253 207 OFFCURVE",
"264 207 CURVE SMOOTH",
"377 207 OFFCURVE",
"487 245 OFFCURVE",
"566 287 CURVE SMOOTH",
"616 315 OFFCURVE",
"681 372 OFFCURVE",
"681 426 CURVE SMOOTH",
"681 487 OFFCURVE",
"623 503 OFFCURVE",
"572 503 CURVE SMOOTH",
"522 503 OFFCURVE",
"477 489 OFFCURVE",
"437 467 CURVE SMOOTH",
"346 415 OFFCURVE",
"299 331 OFFCURVE",
"240 248 CURVE",
"233 248 OFFCURVE",
"218 247 OFFCURVE",
"203 247 CURVE SMOOTH",
"179 247 OFFCURVE",
"153 249 OFFCURVE",
"146 260 CURVE SMOOTH",
"144 264 OFFCURVE",
"139 264 OFFCURVE",
"142 257 CURVE SMOOTH",
"151 230 OFFCURVE",
"182 217 OFFCURVE",
"214 211 CURVE",
"183 166 OFFCURVE",
"156 126 OFFCURVE",
"130 100 CURVE SMOOTH",
"98 68 OFFCURVE",
"67 61 OFFCURVE",
"49 61 CURVE SMOOTH",
"41 61 OFFCURVE",
"35 63 OFFCURVE",
"33 64 CURVE SMOOTH",
"31 65 OFFCURVE",
"30 64 OFFCURVE",
"31 62 CURVE SMOOTH",
"34 58 OFFCURVE",
"49 51 OFFCURVE",
"69 51 CURVE SMOOTH"
);
},
{
closed = 1;
nodes = (
"543 -75 OFFCURVE",
"546 -72 OFFCURVE",
"547 -65 CURVE SMOOTH",
"562 44 OFFCURVE",
"404 76 OFFCURVE",
"273 76 CURVE SMOOTH",
"222 76 OFFCURVE",
"176 71 OFFCURVE",
"145 64 CURVE SMOOTH",
"29 38 OFFCURVE",
"3 0 OFFCURVE",
"3 -22 CURVE SMOOTH",
"3 -29 OFFCURVE",
"6 -35 OFFCURVE",
"9 -37 CURVE SMOOTH",
"14 -40 OFFCURVE",
"21 -42 OFFCURVE",
"29 -42 CURVE SMOOTH",
"45 -42 OFFCURVE",
"67 -35 OFFCURVE",
"89 -26 CURVE SMOOTH",
"150 0 OFFCURVE",
"241 18 OFFCURVE",
"327 18 CURVE SMOOTH",
"403 18 OFFCURVE",
"476 4 OFFCURVE",
"521 -31 CURVE SMOOTH",
"534 -41 OFFCURVE",
"541 -53 OFFCURVE",
"538 -66 CURVE SMOOTH",
"536 -71 OFFCURVE",
"538 -75 OFFCURVE",
"541 -75 CURVE SMOOTH"
);
},
{
closed = 1;
nodes = (
"311 326 OFFCURVE",
"383 413 OFFCURVE",
"465 458 CURVE SMOOTH",
"497 476 OFFCURVE",
"531 484 OFFCURVE",
"560 484 CURVE SMOOTH",
"598 484 OFFCURVE",
"627 469 OFFCURVE",
"627 443 CURVE SMOOTH",
"627 433 OFFCURVE",
"622 421 OFFCURVE",
"612 407 CURVE SMOOTH",
"589 377 OFFCURVE",
"542 341 OFFCURVE",
"463 309 CURVE SMOOTH",
"401 283 OFFCURVE",
"323 258 OFFCURVE",
"258 250 CURVE"
);
}
);
width = 568;
}
);
},
{
glyphname = LJ.ss01;
lastChange = "2021-07-28 10:59:02 +0000";
layers = (
{
layerId = "D7866281-830A-4E76-BB32-392A4BC3306E";
paths = (
{
closed = 1;
nodes = (
"595 -309 OFFCURVE",
"637 -298 OFFCURVE",
"686 -274 CURVE SMOOTH",
"858 -189 OFFCURVE",
"1065 38 OFFCURVE",
"1160 217 CURVE SMOOTH",
"1187 267 OFFCURVE",
"1211 332 OFFCURVE",
"1211 388 CURVE SMOOTH",
"1211 451 OFFCURVE",
"1179 501 OFFCURVE",
"1079 501 CURVE SMOOTH",
"955 502 OFFCURVE",
"836 473 OFFCURVE",
"735 412 CURVE SMOOTH",
"698 389 OFFCURVE",
"684 353 OFFCURVE",
"684 316 CURVE SMOOTH",
"684 274 OFFCURVE",
"703 232 OFFCURVE",
"728 214 CURVE SMOOTH",
"732 212 OFFCURVE",
"738 210 OFFCURVE",
"742 210 CURVE SMOOTH",
"745 210 OFFCURVE",
"747 211 OFFCURVE",
"747 212 CURVE SMOOTH",
"747 212 OFFCURVE",
"746 213 OFFCURVE",
"745 214 CURVE SMOOTH",
"722 230 OFFCURVE",
"712 248 OFFCURVE",
"712 266 CURVE SMOOTH",
"712 297 OFFCURVE",
"745 329 OFFCURVE",
"794 357 CURVE SMOOTH",
"874 403 OFFCURVE",
"976 428 OFFCURVE",
"1068 428 CURVE SMOOTH",
"1127 428 OFFCURVE",
"1161 406 OFFCURVE",
"1161 354 CURVE SMOOTH",
"1161 323 OFFCURVE",
"1149 282 OFFCURVE",
"1124 228 CURVE SMOOTH",
"1038 45 OFFCURVE",
"824 -195 OFFCURVE",
"663 -262 CURVE SMOOTH",
"636 -274 OFFCURVE",
"608 -280 OFFCURVE",
"585 -280 CURVE SMOOTH",
"547 -280 OFFCURVE",
"519 -264 OFFCURVE",
"519 -231 CURVE SMOOTH",
"519 -209 OFFCURVE",
"530 -181 OFFCURVE",
"558 -146 CURVE SMOOTH",
"618 -68 OFFCURVE",
"718 2 OFFCURVE",
"804 51 CURVE SMOOTH",
"865 85 OFFCURVE",
"923 109 OFFCURVE",
"964 109 CURVE SMOOTH",
"971 109 OFFCURVE",
"976 108 OFFCURVE",
"982 108 CURVE SMOOTH",
"987 108 OFFCURVE",
"989 111 OFFCURVE",
"989 115 CURVE SMOOTH",
"989 116 OFFCURVE",
"989 116 OFFCURVE",
"989 117 CURVE SMOOTH",
"982 143 OFFCURVE",
"954 155 OFFCURVE",
"915 155 CURVE SMOOTH",
"771 155 OFFCURVE",
"579 13 OFFCURVE",
"508 -97 CURVE SMOOTH",
"478 -143 OFFCURVE",
"464 -185 OFFCURVE",
"464 -219 CURVE SMOOTH",
"464 -274 OFFCURVE",
"499 -309 OFFCURVE",
"561 -309 CURVE SMOOTH"
);
},
{
closed = 1;
nodes = (
"543 -75 OFFCURVE",
"546 -72 OFFCURVE",
"547 -65 CURVE SMOOTH",
"562 44 OFFCURVE",
"404 76 OFFCURVE",
"273 76 CURVE SMOOTH",
"222 76 OFFCURVE",
"176 71 OFFCURVE",
"145 64 CURVE SMOOTH",
"29 38 OFFCURVE",
"3 0 OFFCURVE",
"3 -22 CURVE SMOOTH",
"3 -29 OFFCURVE",
"6 -35 OFFCURVE",
"9 -37 CURVE SMOOTH",
"14 -40 OFFCURVE",
"21 -42 OFFCURVE",
"29 -42 CURVE SMOOTH",
"45 -42 OFFCURVE",
"67 -35 OFFCURVE",
"89 -26 CURVE SMOOTH",
"150 0 OFFCURVE",
"241 18 OFFCURVE",
"327 18 CURVE SMOOTH",
"403 18 OFFCURVE",
"476 4 OFFCURVE",
"521 -31 CURVE SMOOTH",
"534 -41 OFFCURVE",
"541 -53 OFFCURVE",
"538 -66 CURVE SMOOTH",
"536 -71 OFFCURVE",
"538 -75 OFFCURVE",
"541 -75 CURVE SMOOTH"
);
},
{
closed = 1;
nodes = (
"89 51 OFFCURVE",
"114 58 OFFCURVE",
"138 81 CURVE SMOOTH",
"165 107 OFFCURVE",
"195 155 OFFCURVE",
"230 208 CURVE",
"241 207 OFFCURVE",
"253 207 OFFCURVE",
"264 207 CURVE SMOOTH",
"377 207 OFFCURVE",
"487 245 OFFCURVE",
"566 287 CURVE SMOOTH",
"616 315 OFFCURVE",
"681 372 OFFCURVE",
"681 426 CURVE SMOOTH",
"681 487 OFFCURVE",
"623 503 OFFCURVE",
"572 503 CURVE SMOOTH",
"522 503 OFFCURVE",
"477 489 OFFCURVE",
"437 467 CURVE SMOOTH",
"346 415 OFFCURVE",
"299 331 OFFCURVE",
"240 248 CURVE",
"233 248 OFFCURVE",
"218 247 OFFCURVE",
"203 247 CURVE SMOOTH",
"179 247 OFFCURVE",
"153 249 OFFCURVE",
"146 260 CURVE SMOOTH",
"144 264 OFFCURVE",
"139 264 OFFCURVE",
"142 257 CURVE SMOOTH",
"151 230 OFFCURVE",
"182 217 OFFCURVE",
"214 211 CURVE",
"183 166 OFFCURVE",
"156 126 OFFCURVE",
"130 100 CURVE SMOOTH",
"98 68 OFFCURVE",
"67 61 OFFCURVE",
"49 61 CURVE SMOOTH",
"41 61 OFFCURVE",
"35 63 OFFCURVE",
"33 64 CURVE SMOOTH",
"31 65 OFFCURVE",
"30 64 OFFCURVE",
"31 62 CURVE SMOOTH",
"34 58 OFFCURVE",
"49 51 OFFCURVE",
"69 51 CURVE SMOOTH"
);
},
{
closed = 1;
nodes = (
"311 326 OFFCURVE",
"383 413 OFFCURVE",
"465 458 CURVE SMOOTH",
"497 476 OFFCURVE",
"531 484 OFFCURVE",
"560 484 CURVE SMOOTH",
"598 484 OFFCURVE",
"627 469 OFFCURVE",
"627 443 CURVE SMOOTH",
"627 433 OFFCURVE",
"622 421 OFFCURVE",
"612 407 CURVE SMOOTH",
"589 377 OFFCURVE",
"542 341 OFFCURVE",
"463 309 CURVE SMOOTH",
"401 283 OFFCURVE",
"323 258 OFFCURVE",
"258 250 CURVE"
);
}
);
width = 1160;
}
);
},
{
glyphname = Lacute.ss01;
lastChange = "2021-07-28 10:59:02 +0000";
layers = (
{
layerId = "D7866281-830A-4E76-BB32-392A4BC3306E";
paths = (
{
closed = 1;
nodes = (
"89 51 OFFCURVE",
"114 58 OFFCURVE",
"138 81 CURVE SMOOTH",
"165 107 OFFCURVE",
"195 155 OFFCURVE",
"230 208 CURVE",
"241 207 OFFCURVE",
"253 207 OFFCURVE",
"264 207 CURVE SMOOTH",
"377 207 OFFCURVE",
"487 245 OFFCURVE",
"566 287 CURVE SMOOTH",
"616 315 OFFCURVE",
"681 372 OFFCURVE",
"681 426 CURVE SMOOTH",
"681 487 OFFCURVE",
"623 503 OFFCURVE",
"572 503 CURVE SMOOTH",
"522 503 OFFCURVE",
"477 489 OFFCURVE",
"437 467 CURVE SMOOTH",
"346 415 OFFCURVE",
"299 331 OFFCURVE",
"240 248 CURVE",
"233 248 OFFCURVE",
"218 247 OFFCURVE",
"203 247 CURVE SMOOTH",
"179 247 OFFCURVE",
"153 249 OFFCURVE",
"146 260 CURVE SMOOTH",
"144 264 OFFCURVE",
"139 264 OFFCURVE",
"142 257 CURVE SMOOTH",
"151 230 OFFCURVE",
"182 217 OFFCURVE",
"214 211 CURVE",
"183 166 OFFCURVE",
"156 126 OFFCURVE",
"130 100 CURVE SMOOTH",
"98 68 OFFCURVE",
"67 61 OFFCURVE",
"49 61 CURVE SMOOTH",
"41 61 OFFCURVE",
"35 63 OFFCURVE",
"33 64 CURVE SMOOTH",
"31 65 OFFCURVE",
"30 64 OFFCURVE",
"31 62 CURVE SMOOTH",
"34 58 OFFCURVE",
"49 51 OFFCURVE",
"69 51 CURVE SMOOTH"
);
},
{
closed = 1;
nodes = (
"543 -75 OFFCURVE",
"546 -72 OFFCURVE",
"547 -65 CURVE SMOOTH",
"562 44 OFFCURVE",
"404 76 OFFCURVE",
"273 76 CURVE SMOOTH",
"222 76 OFFCURVE",
"176 71 OFFCURVE",
"145 64 CURVE SMOOTH",
"29 38 OFFCURVE",
"3 0 OFFCURVE",
"3 -22 CURVE SMOOTH",
"3 -29 OFFCURVE",
"6 -35 OFFCURVE",
"9 -37 CURVE SMOOTH",
"14 -40 OFFCURVE",
"21 -42 OFFCURVE",
"29 -42 CURVE SMOOTH",
"45 -42 OFFCURVE",
"67 -35 OFFCURVE",
"89 -26 CURVE SMOOTH",
"150 0 OFFCURVE",
"241 18 OFFCURVE",
"327 18 CURVE SMOOTH",
"403 18 OFFCURVE",
"476 4 OFFCURVE",
"521 -31 CURVE SMOOTH",
"534 -41 OFFCURVE",
"541 -53 OFFCURVE",
"538 -66 CURVE SMOOTH",
"536 -71 OFFCURVE",
"538 -75 OFFCURVE",
"541 -75 CURVE SMOOTH"
);
},
{
closed = 1;
nodes = (
"311 326 OFFCURVE",
"383 413 OFFCURVE",
"465 458 CURVE SMOOTH",
"497 476 OFFCURVE",
"531 484 OFFCURVE",
"560 484 CURVE SMOOTH",
"598 484 OFFCURVE",
"627 469 OFFCURVE",
"627 443 CURVE SMOOTH",
"627 433 OFFCURVE",
"622 421 OFFCURVE",
"612 407 CURVE SMOOTH",
"589 377 OFFCURVE",
"542 341 OFFCURVE",
"463 309 CURVE SMOOTH",
"401 283 OFFCURVE",
"323 258 OFFCURVE",
"258 250 CURVE"
);
},
{
closed = 1;
nodes = (
"586 539 OFFCURVE",
"588 539 OFFCURVE",
"589 540 CURVE SMOOTH",
"594 542 OFFCURVE",
"596 543 OFFCURVE",
"618 555 CURVE SMOOTH",
"637 565 OFFCURVE",
"713 628 OFFCURVE",
"713 638 CURVE",
"709 639 LINE SMOOTH",
"697 642 OFFCURVE",
"688 645 OFFCURVE",
"682 645 CURVE SMOOTH",
"678 645 OFFCURVE",
"674 644 OFFCURVE",
"671 641 CURVE SMOOTH",
"648 622 OFFCURVE",
"615 577 OFFCURVE",
"590 553 CURVE SMOOTH",
"584 547 OFFCURVE",
"581 543 OFFCURVE",
"581 541 CURVE SMOOTH",
"581 540 OFFCURVE",
"582 539 OFFCURVE",
"584 539 CURVE SMOOTH"
);
}
);
width = 568;
}
);
note = Lacute;
},
{
glyphname = Lcommaaccent.ss01;
lastChange = "2021-07-28 10:59:02 +0000";
layers = (
{
background = {
paths = (
{
closed = 1;
nodes = (
"34 58 OFFCURVE",
"49 51 OFFCURVE",
"69 51 CURVE SMOOTH",
"89 51 OFFCURVE",
"114 58 OFFCURVE",
"138 81 CURVE SMOOTH",
"165 107 OFFCURVE",
"195 155 OFFCURVE",
"230 208 CURVE",
"241 207 OFFCURVE",
"253 207 OFFCURVE",
"264 207 CURVE SMOOTH",
"377 207 OFFCURVE",
"487 245 OFFCURVE",
"566 287 CURVE SMOOTH",
"616 315 OFFCURVE",
"681 372 OFFCURVE",
"681 426 CURVE SMOOTH",
"681 487 OFFCURVE",
"623 503 OFFCURVE",
"572 503 CURVE SMOOTH",
"522 503 OFFCURVE",
"477 489 OFFCURVE",
"437 467 CURVE SMOOTH",
"346 415 OFFCURVE",
"299 331 OFFCURVE",
"240 248 CURVE",
"233 248 OFFCURVE",
"218 247 OFFCURVE",
"203 247 CURVE SMOOTH",
"179 247 OFFCURVE",
"153 249 OFFCURVE",
"146 260 CURVE SMOOTH",
"144 264 OFFCURVE",
"139 264 OFFCURVE",
"142 257 CURVE SMOOTH",
"151 230 OFFCURVE",
"182 217 OFFCURVE",
"214 211 CURVE",
"183 166 OFFCURVE",
"156 126 OFFCURVE",
"130 100 CURVE SMOOTH",
"98 68 OFFCURVE",
"67 61 OFFCURVE",
"49 61 CURVE SMOOTH",
"41 61 OFFCURVE",
"35 63 OFFCURVE",
"33 64 CURVE SMOOTH",
"31 65 OFFCURVE",
"30 64 OFFCURVE",
"31 62 CURVE SMOOTH"
);
},
{
closed = 1;
nodes = (
"126.55 -193.25 OFFCURVE",
"200.5 -120.15 OFFCURVE",
"200.5 -106.55 CURVE SMOOTH",
"200.5 -92.95 OFFCURVE",
"165.65 -82.75 OFFCURVE",
"154.6 -82.75 CURVE SMOOTH",
"148.65 -82.75 OFFCURVE",
"146.1 -87 OFFCURVE",
"146.1 -92.1 CURVE SMOOTH",
"146.1 -99.75 OFFCURVE",
"148.65 -107.4 OFFCURVE",
"148.65 -114.2 CURVE SMOOTH",
"148.65 -143.1 OFFCURVE",
"129.95 -163.5 OFFCURVE",
"110.4 -181.35 CURVE SMOOTH",
"108.7 -183.05 OFFCURVE",
"107.85 -184.75 OFFCURVE",
"107.85 -187.3 CURVE SMOOTH",
"107.85 -189.85 OFFCURVE",
"109.55 -193.25 OFFCURVE",
"113.8 -193.25 CURVE SMOOTH"
);
},
{
closed = 1;
nodes = (
"536 -71 OFFCURVE",
"538 -75 OFFCURVE",
"541 -75 CURVE SMOOTH",
"543 -75 OFFCURVE",
"546 -72 OFFCURVE",
"547 -65 CURVE SMOOTH",
"562 44 OFFCURVE",
"404 76 OFFCURVE",
"273 76 CURVE SMOOTH",
"222 76 OFFCURVE",
"176 71 OFFCURVE",
"145 64 CURVE SMOOTH",
"29 38 OFFCURVE",
"3 0 OFFCURVE",
"3 -22 CURVE SMOOTH",
"3 -29 OFFCURVE",
"6 -35 OFFCURVE",
"9 -37 CURVE SMOOTH",
"14 -40 OFFCURVE",
"21 -42 OFFCURVE",
"29 -42 CURVE SMOOTH",
"45 -42 OFFCURVE",
"67 -35 OFFCURVE",
"89 -26 CURVE SMOOTH",
"150 0 OFFCURVE",
"241 18 OFFCURVE",
"327 18 CURVE SMOOTH",
"403 18 OFFCURVE",
"476 4 OFFCURVE",
"521 -31 CURVE SMOOTH",
"534 -41 OFFCURVE",
"541 -53 OFFCURVE",
"538 -66 CURVE SMOOTH"
);
},
{
closed = 1;
nodes = (
"311 326 OFFCURVE",
"383 413 OFFCURVE",
"465 458 CURVE SMOOTH",
"497 476 OFFCURVE",
"531 484 OFFCURVE",
"560 484 CURVE SMOOTH",
"598 484 OFFCURVE",
"627 469 OFFCURVE",
"627 443 CURVE SMOOTH",
"627 433 OFFCURVE",
"622 421 OFFCURVE",
"612 407 CURVE SMOOTH",
"589 377 OFFCURVE",
"542 341 OFFCURVE",
"463 309 CURVE SMOOTH",
"401 283 OFFCURVE",
"323 258 OFFCURVE",
"258 250 CURVE"
);
}
);
};
components = (
{
name = L.ss01;
},
{
name = commaaccentcomb;
transform = "{1, 0, 0, 1, 189, -37}";
}
);
layerId = "D7866281-830A-4E76-BB32-392A4BC3306E";
width = 568;
}
);
},
{
glyphname = Lj.ss01;
lastChange = "2021-07-28 10:59:02 +0000";
layers = (
{
layerId = "D7866281-830A-4E76-BB32-392A4BC3306E";
paths = (
{
closed = 1;
nodes = (
"266 -332 OFFCURVE",
"301 -324 OFFCURVE",
"334 -307 CURVE SMOOTH",
"454 -243 OFFCURVE",
"532 -88 OFFCURVE",
"583 6 CURVE",
"627 6 OFFCURVE",
"669 -4 OFFCURVE",
"687 -17 CURVE SMOOTH",
"691 -20 OFFCURVE",
"694 -13 OFFCURVE",
"690 -11 CURVE",
"671 4 OFFCURVE",
"630 13 OFFCURVE",
"586 14 CURVE",
"599 51 OFFCURVE",
"685 260 OFFCURVE",
"733 265 CURVE SMOOTH",
"739 266 OFFCURVE",
"742 269 OFFCURVE",
"742 271 CURVE SMOOTH",
"742 274 OFFCURVE",
"739 277 OFFCURVE",
"735 277 CURVE",
"695 282 OFFCURVE",
"661 218 OFFCURVE",
"649 196 CURVE SMOOTH",
"613 131 OFFCURVE",
"581 69 OFFCURVE",
"543 10 CURVE",
"537 10 LINE",
"419 -3 OFFCURVE",
"285 -63 OFFCURVE",
"181 -169 CURVE SMOOTH",
"146 -205 OFFCURVE",
"132 -236 OFFCURVE",
"132 -261 CURVE SMOOTH",
"132 -306 OFFCURVE",
"177 -332 OFFCURVE",
"234 -332 CURVE SMOOTH"
);
},
{
closed = 1;
nodes = (
"172 -318 OFFCURVE",
"147 -297 OFFCURVE",
"147 -265 CURVE SMOOTH",
"147 -242 OFFCURVE",
"159 -214 OFFCURVE",
"188 -183 CURVE SMOOTH",
"286 -81 OFFCURVE",
"419 -18 OFFCURVE",
"536 0 CURVE",
"473 -92 OFFCURVE",
"402 -186 OFFCURVE",
"321 -263 CURVE SMOOTH",
"280 -302 OFFCURVE",
"240 -318 OFFCURVE",
"208 -318 CURVE SMOOTH"
);
},
{
closed = 1;
nodes = (
"543 -75 OFFCURVE",
"546 -72 OFFCURVE",
"547 -65 CURVE SMOOTH",
"562 44 OFFCURVE",
"404 76 OFFCURVE",
"273 76 CURVE SMOOTH",
"222 76 OFFCURVE",
"176 71 OFFCURVE",
"145 64 CURVE SMOOTH",
"29 38 OFFCURVE",
"3 0 OFFCURVE",
"3 -22 CURVE SMOOTH",
"3 -29 OFFCURVE",
"6 -35 OFFCURVE",
"9 -37 CURVE SMOOTH",
"14 -40 OFFCURVE",
"21 -42 OFFCURVE",
"29 -42 CURVE SMOOTH",
"45 -42 OFFCURVE",
"67 -35 OFFCURVE",
"89 -26 CURVE SMOOTH",
"150 0 OFFCURVE",
"241 18 OFFCURVE",
"327 18 CURVE SMOOTH",
"403 18 OFFCURVE",
"476 4 OFFCURVE",
"521 -31 CURVE SMOOTH",
"534 -41 OFFCURVE",
"541 -53 OFFCURVE",
"538 -66 CURVE SMOOTH",
"536 -71 OFFCURVE",
"538 -75 OFFCURVE",
"541 -75 CURVE SMOOTH"
);
},
{
closed = 1;
nodes = (
"89 51 OFFCURVE",
"114 58 OFFCURVE",
"138 81 CURVE SMOOTH",
"165 107 OFFCURVE",
"195 155 OFFCURVE",
"230 208 CURVE",
"241 207 OFFCURVE",
"253 207 OFFCURVE",
"264 207 CURVE SMOOTH",
"377 207 OFFCURVE",
"487 245 OFFCURVE",
"566 287 CURVE SMOOTH",
"616 315 OFFCURVE",
"681 372 OFFCURVE",
"681 426 CURVE SMOOTH",
"681 487 OFFCURVE",
"623 503 OFFCURVE",
"572 503 CURVE SMOOTH",
"522 503 OFFCURVE",
"477 489 OFFCURVE",
"437 467 CURVE SMOOTH",
"346 415 OFFCURVE",
"299 331 OFFCURVE",
"240 248 CURVE",
"233 248 OFFCURVE",
"218 247 OFFCURVE",
"203 247 CURVE SMOOTH",
"179 247 OFFCURVE",
"153 249 OFFCURVE",
"146 260 CURVE SMOOTH",
"144 264 OFFCURVE",
"139 264 OFFCURVE",
"142 257 CURVE SMOOTH",
"151 230 OFFCURVE",
"182 217 OFFCURVE",
"214 211 CURVE",
"183 166 OFFCURVE",
"156 126 OFFCURVE",
"130 100 CURVE SMOOTH",
"98 68 OFFCURVE",
"67 61 OFFCURVE",
"49 61 CURVE SMOOTH",
"41 61 OFFCURVE",
"35 63 OFFCURVE",
"33 64 CURVE SMOOTH",
"31 65 OFFCURVE",
"30 64 OFFCURVE",
"31 62 CURVE SMOOTH",
"34 58 OFFCURVE",
"49 51 OFFCURVE",
"69 51 CURVE SMOOTH"
);
},
{
closed = 1;
nodes = (
"311 326 OFFCURVE",
"383 413 OFFCURVE",
"465 458 CURVE SMOOTH",
"497 476 OFFCURVE",
"531 484 OFFCURVE",
"560 484 CURVE SMOOTH",
"598 484 OFFCURVE",
"627 469 OFFCURVE",
"627 443 CURVE SMOOTH",
"627 433 OFFCURVE",
"622 421 OFFCURVE",
"612 407 CURVE SMOOTH",
"589 377 OFFCURVE",
"542 341 OFFCURVE",
"463 309 CURVE SMOOTH",
"401 283 OFFCURVE",
"323 258 OFFCURVE",
"258 250 CURVE"
);
},
{
closed = 1;
nodes = (
"786 301 OFFCURVE",
"809 330 OFFCURVE",
"809 351 CURVE SMOOTH",
"809 365 OFFCURVE",
"799 374 OFFCURVE",
"786 374 CURVE SMOOTH",
"766 374 OFFCURVE",
"739 349 OFFCURVE",
"739 325 CURVE SMOOTH",
"739 311 OFFCURVE",
"749 301 OFFCURVE",
"763 301 CURVE SMOOTH"
);
}
);
width = 669;
}
);
},
{
glyphname = M.ss01;
lastChange = "2021-07-28 10:59:02 +0000";
layers = (
{
layerId = "D7866281-830A-4E76-BB32-392A4BC3306E";
paths = (
{
closed = 1;
nodes = (
"869 -57 OFFCURVE",
"881 -48 OFFCURVE",
"889 -37 CURVE SMOOTH",
"892 -34 OFFCURVE",
"887 -30 OFFCURVE",
"885 -33 CURVE",
"878 -40 OFFCURVE",
"870 -45 OFFCURVE",
"865 -45 CURVE SMOOTH",
"843 -46 OFFCURVE",
"837 -33 OFFCURVE",
"837 -17 CURVE SMOOTH",
"837 -5 OFFCURVE",
"841 9 OFFCURVE",
"844 17 CURVE SMOOTH",
"870 81 OFFCURVE",
"943 156 OFFCURVE",
"1021 249 CURVE SMOOTH",
"1059 294 OFFCURVE",
"1099 337 OFFCURVE",
"1111 352 CURVE SMOOTH",
"1142 390 OFFCURVE",
"1155 423 OFFCURVE",
"1155 449 CURVE SMOOTH",
"1155 484 OFFCURVE",
"1130 505 OFFCURVE",
"1089 505 CURVE SMOOTH",
"1058 505 OFFCURVE",
"1019 494 OFFCURVE",
"975 468 CURVE SMOOTH",
"917 434 OFFCURVE",
"835 356 OFFCURVE",
"772 293 CURVE",
"794 328 LINE SMOOTH",
"818 365 OFFCURVE",
"830 397 OFFCURVE",
"830 421 CURVE SMOOTH",
"830 455 OFFCURVE",
"809 474 OFFCURVE",
"773 474 CURVE SMOOTH",
"747 474 OFFCURVE",
"713 463 OFFCURVE",
"673 440 CURVE SMOOTH",
"617 407 OFFCURVE",
"533 332 OFFCURVE",
"465 263 CURVE SMOOTH",
"450 248 OFFCURVE",
"435 233 OFFCURVE",
"420 219 CURVE",
"445 253 OFFCURVE",
"468 283 OFFCURVE",
"487 305 CURVE SMOOTH",
"530 355 OFFCURVE",
"567 422 OFFCURVE",
"567 476 CURVE SMOOTH",
"567 531 OFFCURVE",
"529 574 OFFCURVE",
"423 574 CURVE SMOOTH",
"315 574 OFFCURVE",
"161 535 OFFCURVE",
"62 472 CURVE SMOOTH",
"23 447 OFFCURVE",
"5 411 OFFCURVE",
"5 380 CURVE SMOOTH",
"5 361 OFFCURVE",
"12 343 OFFCURVE",
"26 333 CURVE SMOOTH",
"28 331 OFFCURVE",
"31 331 OFFCURVE",
"34 331 CURVE SMOOTH",
"36 331 OFFCURVE",
"37 331 OFFCURVE",
"37 332 CURVE SMOOTH",
"37 333 OFFCURVE",
"37 333 OFFCURVE",
"36 334 CURVE SMOOTH",
"25 342 OFFCURVE",
"20 350 OFFCURVE",
"20 359 CURVE SMOOTH",
"20 385 OFFCURVE",
"65 411 OFFCURVE",
"115 435 CURVE SMOOTH",
"161 457 OFFCURVE",
"310 508 OFFCURVE",
"412 508 CURVE SMOOTH",
"482 508 OFFCURVE",
"512 487 OFFCURVE",
"512 448 CURVE SMOOTH",
"512 430 OFFCURVE",
"506 408 OFFCURVE",
"494 383 CURVE SMOOTH",
"441 272 OFFCURVE",
"297 96 OFFCURVE",
"265 38 CURVE SMOOTH",
"259 27 OFFCURVE",
"255 12 OFFCURVE",
"255 -2 CURVE SMOOTH",
"255 -25 OFFCURVE",
"265 -45 OFFCURVE",
"291 -45 CURVE SMOOTH",
"297 -45 OFFCURVE",
"304 -44 OFFCURVE",
"313 -41 CURVE SMOOTH",
"318 -39 OFFCURVE",
"321 -36 OFFCURVE",
"321 -34 CURVE SMOOTH",
"321 -33 OFFCURVE",
"320 -32 OFFCURVE",
"318 -32 CURVE SMOOTH",
"317 -32 OFFCURVE",
"315 -33 OFFCURVE",
"314 -33 CURVE SMOOTH",
"298 -37 OFFCURVE",
"290 -29 OFFCURVE",
"290 -16 CURVE SMOOTH",
"290 37 OFFCURVE",
"462 234 OFFCURVE",
"495 268 CURVE SMOOTH",
"567 342 OFFCURVE",
"628 398 OFFCURVE",
"683 430 CURVE SMOOTH",
"710 446 OFFCURVE",
"728 452 OFFCURVE",
"739 452 CURVE SMOOTH",
"752 452 OFFCURVE",
"756 444 OFFCURVE",
"756 434 CURVE SMOOTH",
"756 425 OFFCURVE",
"752 412 OFFCURVE",
"747 401 CURVE SMOOTH",
"701 303 OFFCURVE",
"646 223 OFFCURVE",
"594 128 CURVE SMOOTH",
"562 68 OFFCURVE",
"550 33 OFFCURVE",
"550 16 CURVE SMOOTH",
"550 4 OFFCURVE",
"555 0 OFFCURVE",
"562 0 CURVE SMOOTH",
"573 0 OFFCURVE",
"591 12 OFFCURVE",
"603 25 CURVE SMOOTH",
"626 48 OFFCURVE",
"641 72 OFFCURVE",
"670 121 CURVE SMOOTH",
"726 216 OFFCURVE",
"847 368 OFFCURVE",
"983 451 CURVE SMOOTH",
"1014 470 OFFCURVE",
"1036 478 OFFCURVE",
"1050 478 CURVE SMOOTH",
"1067 478 OFFCURVE",
"1073 468 OFFCURVE",
"1073 456 CURVE SMOOTH",
"1073 447 OFFCURVE",
"1070 437 OFFCURVE",
"1065 428 CURVE SMOOTH",
"995 298 OFFCURVE",
"802 123 OFFCURVE",
"788 22 CURVE SMOOTH",
"787 16 OFFCURVE",
"787 10 OFFCURVE",
"787 4 CURVE SMOOTH",
"787 -29 OFFCURVE",
"802 -55 OFFCURVE",
"844 -57 CURVE SMOOTH"
);
}
);
width = 990;
}
);
},
{
glyphname = N.ss01;
lastChange = "2021-07-28 10:59:02 +0000";
layers = (
{
anchors = (
{
name = bottom;
position = "{410, 0}";
},
{
name = top;
position = "{803, 509}";
}
);
layerId = "D7866281-830A-4E76-BB32-392A4BC3306E";
paths = (
{
closed = 1;
nodes = (
"602 -57 OFFCURVE",
"614 -48 OFFCURVE",
"622 -37 CURVE SMOOTH",
"625 -34 OFFCURVE",
"620 -30 OFFCURVE",
"618 -33 CURVE",
"611 -40 OFFCURVE",
"603 -45 OFFCURVE",
"598 -45 CURVE SMOOTH",
"576 -46 OFFCURVE",
"570 -33 OFFCURVE",
"570 -17 CURVE SMOOTH",
"570 -5 OFFCURVE",
"574 9 OFFCURVE",
"577 17 CURVE SMOOTH",
"604 81 OFFCURVE",
"676 156 OFFCURVE",
"754 249 CURVE SMOOTH",
"792 294 OFFCURVE",
"832 337 OFFCURVE",
"844 352 CURVE SMOOTH",
"872 387 OFFCURVE",
"884 418 OFFCURVE",
"884 443 CURVE SMOOTH",
"884 484 OFFCURVE",
"851 509 OFFCURVE",
"803 509 CURVE SMOOTH",
"771 509 OFFCURVE",
"731 499 OFFCURVE",
"689 474 CURVE SMOOTH",
"631 440 OFFCURVE",
"547 357 OFFCURVE",
"488 296 CURVE",
"488 296 OFFCURVE",
"482 294 OFFCURVE",
"486 298 CURVE SMOOTH",
"529 348 OFFCURVE",
"566 416 OFFCURVE",
"566 472 CURVE SMOOTH",
"566 529 OFFCURVE",
"528 574 OFFCURVE",
"421 574 CURVE SMOOTH",
"312 574 OFFCURVE",
"158 535 OFFCURVE",
"60 472 CURVE SMOOTH",
"21 447 OFFCURVE",
"3 411 OFFCURVE",
"3 380 CURVE SMOOTH",
"3 361 OFFCURVE",
"10 343 OFFCURVE",
"24 333 CURVE SMOOTH",
"26 331 OFFCURVE",
"29 331 OFFCURVE",
"32 331 CURVE SMOOTH",
"34 331 OFFCURVE",
"35 331 OFFCURVE",
"35 332 CURVE SMOOTH",
"35 333 OFFCURVE",
"35 333 OFFCURVE",
"34 334 CURVE SMOOTH",
"23 342 OFFCURVE",
"18 350 OFFCURVE",
"18 359 CURVE SMOOTH",
"18 385 OFFCURVE",
"63 411 OFFCURVE",
"113 435 CURVE SMOOTH",
"159 457 OFFCURVE",
"308 508 OFFCURVE",
"410 508 CURVE SMOOTH",
"480 508 OFFCURVE",
"510 487 OFFCURVE",
"510 448 CURVE SMOOTH",
"510 430 OFFCURVE",
"504 408 OFFCURVE",
"492 383 CURVE SMOOTH",
"428 248 OFFCURVE",
"320 122 OFFCURVE",
"264 31 CURVE SMOOTH",
"259 23 OFFCURVE",
"257 15 OFFCURVE",
"257 9 CURVE SMOOTH",
"257 0 OFFCURVE",
"262 -5 OFFCURVE",
"269 -5 CURVE SMOOTH",
"275 -5 OFFCURVE",
"282 -1 OFFCURVE",
"288 7 CURVE SMOOTH",
"302 26 OFFCURVE",
"321 52 OFFCURVE",
"333 72 CURVE SMOOTH",
"389 166 OFFCURVE",
"561 370 OFFCURVE",
"696 453 CURVE SMOOTH",
"727 472 OFFCURVE",
"752 479 OFFCURVE",
"769 479 CURVE SMOOTH",
"793 479 OFFCURVE",
"804 465 OFFCURVE",
"804 449 CURVE SMOOTH",
"804 442 OFFCURVE",
"802 435 OFFCURVE",
"798 428 CURVE SMOOTH",
"728 298 OFFCURVE",
"535 123 OFFCURVE",
"521 22 CURVE SMOOTH",
"520 16 OFFCURVE",
"520 10 OFFCURVE",
"520 5 CURVE SMOOTH",
"520 -29 OFFCURVE",
"536 -55 OFFCURVE",
"577 -57 CURVE SMOOTH"
);
}
);
width = 721;
}
);
},
{
glyphname = NJ.ss01;
lastChange = "2021-07-28 10:59:02 +0000";
layers = (
{
layerId = "D7866281-830A-4E76-BB32-392A4BC3306E";
paths = (
{
closed = 1;
nodes = (
"748 -309 OFFCURVE",
"790 -298 OFFCURVE",
"839 -274 CURVE SMOOTH",
"1011 -189 OFFCURVE",
"1218 38 OFFCURVE",
"1313 217 CURVE SMOOTH",
"1340 267 OFFCURVE",
"1364 332 OFFCURVE",
"1364 388 CURVE SMOOTH",
"1364 451 OFFCURVE",
"1332 501 OFFCURVE",
"1232 501 CURVE SMOOTH",
"1108 502 OFFCURVE",
"989 473 OFFCURVE",
"888 412 CURVE SMOOTH",
"851 389 OFFCURVE",
"837 353 OFFCURVE",
"837 316 CURVE SMOOTH",
"837 274 OFFCURVE",
"856 232 OFFCURVE",
"881 214 CURVE SMOOTH",
"885 212 OFFCURVE",
"891 210 OFFCURVE",
"895 210 CURVE SMOOTH",
"898 210 OFFCURVE",
"900 211 OFFCURVE",
"900 212 CURVE SMOOTH",
"900 212 OFFCURVE",
"899 213 OFFCURVE",
"898 214 CURVE SMOOTH",
"875 230 OFFCURVE",
"865 248 OFFCURVE",
"865 266 CURVE SMOOTH",
"865 297 OFFCURVE",
"898 329 OFFCURVE",
"947 357 CURVE SMOOTH",
"1027 403 OFFCURVE",
"1129 428 OFFCURVE",
"1221 428 CURVE SMOOTH",
"1280 428 OFFCURVE",
"1314 406 OFFCURVE",
"1314 354 CURVE SMOOTH",
"1314 323 OFFCURVE",
"1302 282 OFFCURVE",
"1277 228 CURVE SMOOTH",
"1191 45 OFFCURVE",
"977 -195 OFFCURVE",
"816 -262 CURVE SMOOTH",
"789 -274 OFFCURVE",
"761 -280 OFFCURVE",
"738 -280 CURVE SMOOTH",
"700 -280 OFFCURVE",
"672 -264 OFFCURVE",
"672 -231 CURVE SMOOTH",
"672 -209 OFFCURVE",
"683 -181 OFFCURVE",
"711 -146 CURVE SMOOTH",
"771 -68 OFFCURVE",
"871 2 OFFCURVE",
"957 51 CURVE SMOOTH",
"1018 85 OFFCURVE",
"1076 109 OFFCURVE",
"1117 109 CURVE SMOOTH",
"1124 109 OFFCURVE",
"1129 108 OFFCURVE",
"1135 108 CURVE SMOOTH",
"1140 108 OFFCURVE",
"1142 111 OFFCURVE",
"1142 115 CURVE SMOOTH",
"1142 116 OFFCURVE",
"1142 116 OFFCURVE",
"1142 117 CURVE SMOOTH",
"1135 143 OFFCURVE",
"1107 155 OFFCURVE",
"1068 155 CURVE SMOOTH",
"924 155 OFFCURVE",
"732 13 OFFCURVE",
"661 -97 CURVE SMOOTH",
"631 -143 OFFCURVE",
"617 -185 OFFCURVE",
"617 -219 CURVE SMOOTH",
"617 -274 OFFCURVE",
"652 -309 OFFCURVE",
"714 -309 CURVE SMOOTH"
);
},
{
closed = 1;
nodes = (
"602 -57 OFFCURVE",
"614 -48 OFFCURVE",
"622 -37 CURVE SMOOTH",
"625 -34 OFFCURVE",
"620 -30 OFFCURVE",
"618 -33 CURVE",
"611 -40 OFFCURVE",
"603 -45 OFFCURVE",
"598 -45 CURVE SMOOTH",
"576 -46 OFFCURVE",
"570 -33 OFFCURVE",
"570 -17 CURVE SMOOTH",
"570 -5 OFFCURVE",
"574 9 OFFCURVE",
"577 17 CURVE SMOOTH",
"604 81 OFFCURVE",
"676 156 OFFCURVE",
"754 249 CURVE SMOOTH",
"792 294 OFFCURVE",
"832 337 OFFCURVE",
"844 352 CURVE SMOOTH",
"872 387 OFFCURVE",
"884 418 OFFCURVE",
"884 443 CURVE SMOOTH",
"884 484 OFFCURVE",
"851 509 OFFCURVE",
"803 509 CURVE SMOOTH",
"771 509 OFFCURVE",
"731 499 OFFCURVE",
"689 474 CURVE SMOOTH",
"631 440 OFFCURVE",
"547 357 OFFCURVE",
"488 296 CURVE",
"488 296 OFFCURVE",
"482 294 OFFCURVE",
"486 298 CURVE SMOOTH",
"529 348 OFFCURVE",
"566 416 OFFCURVE",
"566 472 CURVE SMOOTH",
"566 529 OFFCURVE",
"528 574 OFFCURVE",
"421 574 CURVE SMOOTH",
"312 574 OFFCURVE",
"158 535 OFFCURVE",
"60 472 CURVE SMOOTH",
"21 447 OFFCURVE",
"3 411 OFFCURVE",
"3 380 CURVE SMOOTH",
"3 361 OFFCURVE",
"10 343 OFFCURVE",
"24 333 CURVE SMOOTH",
"26 331 OFFCURVE",
"29 331 OFFCURVE",
"32 331 CURVE SMOOTH",
"34 331 OFFCURVE",
"35 331 OFFCURVE",
"35 332 CURVE SMOOTH",
"35 333 OFFCURVE",
"35 333 OFFCURVE",
"34 334 CURVE SMOOTH",
"23 342 OFFCURVE",
"18 350 OFFCURVE",
"18 359 CURVE SMOOTH",
"18 385 OFFCURVE",
"63 411 OFFCURVE",
"113 435 CURVE SMOOTH",
"159 457 OFFCURVE",
"308 508 OFFCURVE",
"410 508 CURVE SMOOTH",
"480 508 OFFCURVE",
"510 487 OFFCURVE",
"510 448 CURVE SMOOTH",
"510 430 OFFCURVE",
"504 408 OFFCURVE",
"492 383 CURVE SMOOTH",
"428 248 OFFCURVE",
"320 122 OFFCURVE",
"264 31 CURVE SMOOTH",
"259 23 OFFCURVE",
"257 15 OFFCURVE",
"257 9 CURVE SMOOTH",
"257 0 OFFCURVE",
"262 -5 OFFCURVE",
"269 -5 CURVE SMOOTH",
"275 -5 OFFCURVE",
"282 -1 OFFCURVE",
"288 7 CURVE SMOOTH",
"302 26 OFFCURVE",
"321 52 OFFCURVE",
"333 72 CURVE SMOOTH",
"389 166 OFFCURVE",
"561 370 OFFCURVE",
"696 453 CURVE SMOOTH",
"727 472 OFFCURVE",
"752 479 OFFCURVE",
"769 479 CURVE SMOOTH",
"793 479 OFFCURVE",
"804 465 OFFCURVE",
"804 449 CURVE SMOOTH",
"804 442 OFFCURVE",
"802 435 OFFCURVE",
"798 428 CURVE SMOOTH",
"728 298 OFFCURVE",
"535 123 OFFCURVE",
"521 22 CURVE SMOOTH",
"520 16 OFFCURVE",
"520 10 OFFCURVE",
"520 5 CURVE SMOOTH",
"520 -29 OFFCURVE",
"536 -55 OFFCURVE",
"577 -57 CURVE SMOOTH"
);
}
);
width = 1313;
}
);
},
{
glyphname = Ncommaaccent.ss01;
lastChange = "2021-07-28 10:59:02 +0000";
layers = (
{
background = {
paths = (
{
closed = 1;
nodes = (
"602 -57 OFFCURVE",
"614 -48 OFFCURVE",
"622 -37 CURVE SMOOTH",
"625 -34 OFFCURVE",
"620 -30 OFFCURVE",
"618 -33 CURVE",
"611 -40 OFFCURVE",
"603 -45 OFFCURVE",
"598 -45 CURVE SMOOTH",
"576 -46 OFFCURVE",
"570 -33 OFFCURVE",
"570 -17 CURVE SMOOTH",
"570 -5 OFFCURVE",
"574 9 OFFCURVE",
"577 17 CURVE SMOOTH",
"604 81 OFFCURVE",
"676 156 OFFCURVE",
"754 249 CURVE SMOOTH",
"792 294 OFFCURVE",
"832 337 OFFCURVE",
"844 352 CURVE SMOOTH",
"872 387 OFFCURVE",
"884 418 OFFCURVE",
"884 443 CURVE SMOOTH",
"884 484 OFFCURVE",
"851 509 OFFCURVE",
"803 509 CURVE SMOOTH",
"771 509 OFFCURVE",
"731 499 OFFCURVE",
"689 474 CURVE SMOOTH",
"631 440 OFFCURVE",
"547 357 OFFCURVE",
"488 296 CURVE",
"488 296 OFFCURVE",
"482 294 OFFCURVE",
"486 298 CURVE SMOOTH",
"529 348 OFFCURVE",
"566 416 OFFCURVE",
"566 472 CURVE SMOOTH",
"566 529 OFFCURVE",
"528 574 OFFCURVE",
"421 574 CURVE SMOOTH",
"312 574 OFFCURVE",
"158 535 OFFCURVE",
"60 472 CURVE SMOOTH",
"21 447 OFFCURVE",
"3 411 OFFCURVE",
"3 380 CURVE SMOOTH",
"3 361 OFFCURVE",
"10 343 OFFCURVE",
"24 333 CURVE SMOOTH",
"26 331 OFFCURVE",
"29 331 OFFCURVE",
"32 331 CURVE SMOOTH",
"34 331 OFFCURVE",
"35 331 OFFCURVE",
"35 332 CURVE SMOOTH",
"35 333 OFFCURVE",
"35 333 OFFCURVE",
"34 334 CURVE SMOOTH",
"23 342 OFFCURVE",
"18 350 OFFCURVE",
"18 359 CURVE SMOOTH",
"18 385 OFFCURVE",
"63 411 OFFCURVE",
"113 435 CURVE SMOOTH",
"159 457 OFFCURVE",
"308 508 OFFCURVE",
"410 508 CURVE SMOOTH",
"480 508 OFFCURVE",
"510 487 OFFCURVE",
"510 448 CURVE SMOOTH",
"510 430 OFFCURVE",
"504 408 OFFCURVE",
"492 383 CURVE SMOOTH",
"428 248 OFFCURVE",
"320 122 OFFCURVE",
"264 31 CURVE SMOOTH",
"259 23 OFFCURVE",
"257 15 OFFCURVE",
"257 9 CURVE SMOOTH",
"257 0 OFFCURVE",
"262 -5 OFFCURVE",
"269 -5 CURVE SMOOTH",
"275 -5 OFFCURVE",
"282 -1 OFFCURVE",
"288 7 CURVE SMOOTH",
"302 26 OFFCURVE",
"321 52 OFFCURVE",
"333 72 CURVE SMOOTH",
"389 166 OFFCURVE",
"561 370 OFFCURVE",
"696 453 CURVE SMOOTH",
"727 472 OFFCURVE",
"752 479 OFFCURVE",
"769 479 CURVE SMOOTH",
"793 479 OFFCURVE",
"804 465 OFFCURVE",
"804 449 CURVE SMOOTH",
"804 442 OFFCURVE",
"802 435 OFFCURVE",
"798 428 CURVE SMOOTH",
"728 298 OFFCURVE",
"535 123 OFFCURVE",
"521 22 CURVE SMOOTH",
"520 16 OFFCURVE",
"520 10 OFFCURVE",
"520 5 CURVE SMOOTH",
"520 -29 OFFCURVE",
"536 -55 OFFCURVE",
"577 -57 CURVE SMOOTH"
);
},
{
closed = 1;
nodes = (
"128.55 -163.25 OFFCURVE",
"202.5 -90.15 OFFCURVE",
"202.5 -76.55 CURVE SMOOTH",
"202.5 -62.95 OFFCURVE",
"167.65 -52.75 OFFCURVE",
"156.6 -52.75 CURVE SMOOTH",
"150.65 -52.75 OFFCURVE",
"148.1 -57 OFFCURVE",
"148.1 -62.1 CURVE SMOOTH",
"148.1 -69.75 OFFCURVE",
"150.65 -77.4 OFFCURVE",
"150.65 -84.2 CURVE SMOOTH",
"150.65 -113.1 OFFCURVE",
"131.95 -133.5 OFFCURVE",
"112.4 -151.35 CURVE SMOOTH",
"110.7 -153.05 OFFCURVE",
"109.85 -154.75 OFFCURVE",
"109.85 -157.3 CURVE SMOOTH",
"109.85 -159.85 OFFCURVE",
"111.55 -163.25 OFFCURVE",
"115.8 -163.25 CURVE SMOOTH"
);
}
);
};
components = (
{
name = N.ss01;
},
{
name = commaaccentcomb;
transform = "{1, 0, 0, 1, 330, 0}";
}
);
layerId = "D7866281-830A-4E76-BB32-392A4BC3306E";
width = 721;
}
);
},
{
glyphname = Eng.ss01;
lastChange = "2021-07-28 10:59:02 +0000";
layers = (
{
layerId = "D7866281-830A-4E76-BB32-392A4BC3306E";
paths = (
{
closed = 1;
nodes = (
"173 -323 OFFCURVE",
"254 -210 OFFCURVE",
"338 -71 CURVE SMOOTH",
"358 -38 OFFCURVE",
"536 284 OFFCURVE",
"557 335 CURVE SMOOTH",
"571 370 OFFCURVE",
"597 407 OFFCURVE",
"597 444 CURVE SMOOTH",
"597 478 OFFCURVE",
"579 498 OFFCURVE",
"545 498 CURVE SMOOTH",
"429 498 OFFCURVE",
"231 285 OFFCURVE",
"155 201 CURVE",
"193 261 OFFCURVE",
"232 321 OFFCURVE",
"272 380 CURVE SMOOTH",
"294 412 OFFCURVE",
"316 444 OFFCURVE",
"341 473 CURVE SMOOTH",
"348 482 OFFCURVE",
"351 489 OFFCURVE",
"351 495 CURVE SMOOTH",
"351 509 OFFCURVE",
"333 516 OFFCURVE",
"315 516 CURVE SMOOTH",
"300 516 OFFCURVE",
"284 511 OFFCURVE",
"278 503 CURVE SMOOTH",
"247 463 OFFCURVE",
"221 417 OFFCURVE",
"195 374 CURVE SMOOTH",
"127 258 OFFCURVE",
"51 121 OFFCURVE",
"3 -5 CURVE",
"1 -13 OFFCURVE",
"9 -14 OFFCURVE",
"18 -14 CURVE SMOOTH",
"25 -14 OFFCURVE",
"32 -13 OFFCURVE",
"32 -13 CURVE",
"104 130 OFFCURVE",
"308 340 OFFCURVE",
"440 437 CURVE SMOOTH",
"456 449 OFFCURVE",
"491 467 OFFCURVE",
"511 467 CURVE SMOOTH",
"521 467 OFFCURVE",
"532 455 OFFCURVE",
"532 444 CURVE SMOOTH",
"532 372 OFFCURVE",
"320 1 OFFCURVE",
"281 -63 CURVE SMOOTH",
"235 -138 OFFCURVE",
"154 -264 OFFCURVE",
"90 -296 CURVE SMOOTH",
"76 -303 OFFCURVE",
"60 -307 OFFCURVE",
"44 -307 CURVE SMOOTH",
"27 -307 OFFCURVE",
"11 -301 OFFCURVE",
"7 -282 CURVE",
"-2 -284 LINE",
"7 -316 OFFCURVE",
"37 -323 OFFCURVE",
"66 -323 CURVE SMOOTH"
);
}
);
width = 484;
}
);
note = Eng;
},
{
glyphname = Nj.ss01;
lastChange = "2021-07-28 10:59:02 +0000";
layers = (
{
layerId = "D7866281-830A-4E76-BB32-392A4BC3306E";
paths = (
{
closed = 1;
nodes = (
"602 -57 OFFCURVE",
"614 -48 OFFCURVE",
"622 -37 CURVE SMOOTH",
"625 -34 OFFCURVE",
"620 -30 OFFCURVE",
"618 -33 CURVE",
"611 -40 OFFCURVE",
"603 -45 OFFCURVE",
"598 -45 CURVE SMOOTH",
"576 -46 OFFCURVE",
"570 -33 OFFCURVE",
"570 -17 CURVE SMOOTH",
"570 -5 OFFCURVE",
"574 9 OFFCURVE",
"577 17 CURVE SMOOTH",
"604 81 OFFCURVE",
"676 156 OFFCURVE",
"754 249 CURVE SMOOTH",
"792 294 OFFCURVE",
"832 337 OFFCURVE",
"844 352 CURVE SMOOTH",
"872 387 OFFCURVE",
"884 418 OFFCURVE",
"884 443 CURVE SMOOTH",
"884 484 OFFCURVE",
"851 509 OFFCURVE",
"803 509 CURVE SMOOTH",
"771 509 OFFCURVE",
"731 499 OFFCURVE",
"689 474 CURVE SMOOTH",
"631 440 OFFCURVE",
"547 357 OFFCURVE",
"488 296 CURVE",
"488 296 OFFCURVE",
"482 294 OFFCURVE",
"486 298 CURVE SMOOTH",
"529 348 OFFCURVE",
"566 416 OFFCURVE",
"566 472 CURVE SMOOTH",
"566 529 OFFCURVE",
"528 574 OFFCURVE",
"421 574 CURVE SMOOTH",
"312 574 OFFCURVE",
"158 535 OFFCURVE",
"60 472 CURVE SMOOTH",
"21 447 OFFCURVE",
"3 411 OFFCURVE",
"3 380 CURVE SMOOTH",
"3 361 OFFCURVE",
"10 343 OFFCURVE",
"24 333 CURVE SMOOTH",
"26 331 OFFCURVE",
"29 331 OFFCURVE",
"32 331 CURVE SMOOTH",
"34 331 OFFCURVE",
"35 331 OFFCURVE",
"35 332 CURVE SMOOTH",
"35 333 OFFCURVE",
"35 333 OFFCURVE",
"34 334 CURVE SMOOTH",
"23 342 OFFCURVE",
"18 350 OFFCURVE",
"18 359 CURVE SMOOTH",
"18 385 OFFCURVE",
"63 411 OFFCURVE",
"113 435 CURVE SMOOTH",
"159 457 OFFCURVE",
"308 508 OFFCURVE",
"410 508 CURVE SMOOTH",
"480 508 OFFCURVE",
"510 487 OFFCURVE",
"510 448 CURVE SMOOTH",
"510 430 OFFCURVE",
"504 408 OFFCURVE",
"492 383 CURVE SMOOTH",
"428 248 OFFCURVE",
"320 122 OFFCURVE",
"264 31 CURVE SMOOTH",
"259 23 OFFCURVE",
"257 15 OFFCURVE",
"257 9 CURVE SMOOTH",
"257 0 OFFCURVE",
"262 -5 OFFCURVE",
"269 -5 CURVE SMOOTH",
"275 -5 OFFCURVE",
"282 -1 OFFCURVE",
"288 7 CURVE SMOOTH",
"302 26 OFFCURVE",
"321 52 OFFCURVE",
"333 72 CURVE SMOOTH",
"389 166 OFFCURVE",
"561 370 OFFCURVE",
"696 453 CURVE SMOOTH",
"727 472 OFFCURVE",
"752 479 OFFCURVE",
"769 479 CURVE SMOOTH",
"793 479 OFFCURVE",
"804 465 OFFCURVE",
"804 449 CURVE SMOOTH",
"804 442 OFFCURVE",
"802 435 OFFCURVE",
"798 428 CURVE SMOOTH",
"728 298 OFFCURVE",
"535 123 OFFCURVE",
"521 22 CURVE SMOOTH",
"520 16 OFFCURVE",
"520 10 OFFCURVE",
"520 5 CURVE SMOOTH",
"520 -29 OFFCURVE",
"536 -55 OFFCURVE",
"577 -57 CURVE SMOOTH"
);
},
{
closed = 1;
nodes = (
"325 -318 OFFCURVE",
"300 -297 OFFCURVE",
"300 -265 CURVE SMOOTH",
"300 -242 OFFCURVE",
"312 -214 OFFCURVE",
"341 -183 CURVE SMOOTH",
"439 -81 OFFCURVE",
"572 -18 OFFCURVE",
"689 0 CURVE",
"626 -92 OFFCURVE",
"555 -186 OFFCURVE",
"474 -263 CURVE SMOOTH",
"433 -302 OFFCURVE",
"393 -318 OFFCURVE",
"361 -318 CURVE SMOOTH"
);
},
{
closed = 1;
nodes = (
"419 -332 OFFCURVE",
"454 -324 OFFCURVE",
"487 -307 CURVE SMOOTH",
"607 -243 OFFCURVE",
"685 -88 OFFCURVE",
"736 6 CURVE",
"780 6 OFFCURVE",
"822 -4 OFFCURVE",
"840 -17 CURVE SMOOTH",
"844 -20 OFFCURVE",
"847 -13 OFFCURVE",
"843 -11 CURVE",
"824 4 OFFCURVE",
"783 13 OFFCURVE",
"739 14 CURVE",
"752 51 OFFCURVE",
"838 260 OFFCURVE",
"886 265 CURVE SMOOTH",
"892 266 OFFCURVE",
"895 269 OFFCURVE",
"895 271 CURVE SMOOTH",
"895 274 OFFCURVE",
"892 277 OFFCURVE",
"888 277 CURVE",
"848 282 OFFCURVE",
"814 218 OFFCURVE",
"802 196 CURVE SMOOTH",
"766 131 OFFCURVE",
"734 69 OFFCURVE",
"696 10 CURVE",
"690 10 LINE",
"572 -3 OFFCURVE",
"438 -63 OFFCURVE",
"334 -169 CURVE SMOOTH",
"299 -205 OFFCURVE",
"285 -236 OFFCURVE",
"285 -261 CURVE SMOOTH",
"285 -306 OFFCURVE",
"330 -332 OFFCURVE",
"387 -332 CURVE SMOOTH"
);
},
{
closed = 1;
nodes = (
"939 301 OFFCURVE",
"962 330 OFFCURVE",
"962 351 CURVE SMOOTH",
"962 365 OFFCURVE",
"952 374 OFFCURVE",
"939 374 CURVE SMOOTH",
"919 374 OFFCURVE",
"892 349 OFFCURVE",
"892 325 CURVE SMOOTH",
"892 311 OFFCURVE",
"902 301 OFFCURVE",
"916 301 CURVE SMOOTH"
);
}
);
width = 822;
}
);
},
{
glyphname = O.ss01;
lastChange = "2021-07-28 10:59:02 +0000";
layers = (
{
anchors = (
{
name = bottom;
position = "{121, -17}";
},
{
name = center;
position = "{241, 325}";
},
{
name = ogonek;
position = "{159, -16}";
},
{
name = top;
position = "{501, 504}";
},
{
name = topleft;
position = "{20, 650}";
},
{
name = topright;
position = "{546, 460}";
}
);
layerId = "D7866281-830A-4E76-BB32-392A4BC3306E";
paths = (
{
closed = 1;
nodes = (
"310 -39 OFFCURVE",
"440 87 OFFCURVE",
"514 217 CURVE SMOOTH",
"539 262 OFFCURVE",
"570 330 OFFCURVE",
"570 390 CURVE SMOOTH",
"570 426 OFFCURVE",
"559 460 OFFCURVE",
"527 484 CURVE SMOOTH",
"501 504 OFFCURVE",
"453 516 OFFCURVE",
"396 516 CURVE SMOOTH",
"311 516 OFFCURVE",
"205 490 OFFCURVE",
"123 428 CURVE SMOOTH",
"33 361 OFFCURVE",
"5 306 OFFCURVE",
"5 262 CURVE SMOOTH",
"5 248 OFFCURVE",
"8 235 OFFCURVE",
"12 223 CURVE SMOOTH",
"20 201 OFFCURVE",
"42 186 OFFCURVE",
"71 176 CURVE",
"56 144 OFFCURVE",
"47 114 OFFCURVE",
"47 86 CURVE SMOOTH",
"47 58 OFFCURVE",
"56 34 OFFCURVE",
"77 14 CURVE SMOOTH",
"111 -18 OFFCURVE",
"163 -39 OFFCURVE",
"211 -39 CURVE SMOOTH"
);
},
{
closed = 1;
nodes = (
"152 -17 OFFCURVE",
"121 10 OFFCURVE",
"121 60 CURVE SMOOTH",
"121 72 OFFCURVE",
"123 85 OFFCURVE",
"126 99 CURVE SMOOTH",
"131 119 OFFCURVE",
"140 141 OFFCURVE",
"151 163 CURVE",
"155 162 OFFCURVE",
"161 162 OFFCURVE",
"168 162 CURVE SMOOTH",
"186 162 OFFCURVE",
"210 165 OFFCURVE",
"219 169 CURVE SMOOTH",
"225 172 OFFCURVE",
"224 178 OFFCURVE",
"217 178 CURVE SMOOTH",
"216 178 OFFCURVE",
"213 178 OFFCURVE",
"211 177 CURVE SMOOTH",
"206 175 OFFCURVE",
"191 174 OFFCURVE",
"178 174 CURVE SMOOTH",
"169 174 OFFCURVE",
"160 174 OFFCURVE",
"157 175 CURVE",
"165 190 OFFCURVE",
"176 206 OFFCURVE",
"186 222 CURVE SMOOTH",
"249 313 OFFCURVE",
"344 402 OFFCURVE",
"416 439 CURVE SMOOTH",
"452 458 OFFCURVE",
"479 467 OFFCURVE",
"500 467 CURVE SMOOTH",
"536 467 OFFCURVE",
"552 442 OFFCURVE",
"552 403 CURVE SMOOTH",
"552 357 OFFCURVE",
"529 291 OFFCURVE",
"491 225 CURVE SMOOTH",
"444 142 OFFCURVE",
"358 56 OFFCURVE",
"300 19 CURVE SMOOTH",
"262 -5 OFFCURVE",
"226 -17 OFFCURVE",
"197 -17 CURVE SMOOTH"
);
},
{
closed = 1;
nodes = (
"75 204 OFFCURVE",
"69 212 OFFCURVE",
"66 221 CURVE SMOOTH",
"63 228 OFFCURVE",
"62 237 OFFCURVE",
"62 245 CURVE SMOOTH",
"62 282 OFFCURVE",
"88 331 OFFCURVE",
"161 395 CURVE SMOOTH",
"219 445 OFFCURVE",
"306 479 OFFCURVE",
"381 489 CURVE",
"285 439 OFFCURVE",
"146 313 OFFCURVE",
"82 197 CURVE"
);
}
);
width = 481;
}
);
},
{
glyphname = Oslash.ss01;
lastChange = "2021-07-28 10:59:02 +0000";
layers = (
{
anchors = (
{
name = bottom;
position = "{241, 0}";
},
{
name = top;
position = "{600, 601}";
}
);
layerId = "D7866281-830A-4E76-BB32-392A4BC3306E";
paths = (
{
closed = 1;
nodes = (
"147 -111 OFFCURVE",
"156 -107 OFFCURVE",
"159 -103 CURVE SMOOTH",
"161 -101 OFFCURVE",
"162 -99 OFFCURVE",
"160 -97 CURVE",
"154 -94 OFFCURVE",
"151 -89 OFFCURVE",
"151 -82 CURVE SMOOTH",
"151 -70 OFFCURVE",
"160 -52 OFFCURVE",
"170 -34 CURVE",
"185 -38 OFFCURVE",
"200 -39 OFFCURVE",
"214 -39 CURVE SMOOTH",
"313 -37 OFFCURVE",
"441 89 OFFCURVE",
"514 217 CURVE SMOOTH",
"539 262 OFFCURVE",
"570 329 OFFCURVE",
"570 389 CURVE SMOOTH",
"570 415 OFFCURVE",
"565 439 OFFCURVE",
"551 459 CURVE",
"594 513 OFFCURVE",
"630 557 OFFCURVE",
"650 580 CURVE SMOOTH",
"655 585 OFFCURVE",
"656 590 OFFCURVE",
"656 593 CURVE SMOOTH",
"656 596 OFFCURVE",
"655 599 OFFCURVE",
"653 600 CURVE SMOOTH",
"649 604 OFFCURVE",
"619 609 OFFCURVE",
"616 609 CURVE SMOOTH",
"611 609 OFFCURVE",
"571 560 OFFCURVE",
"518 490 CURVE",
"491 506 OFFCURVE",
"447 516 OFFCURVE",
"396 516 CURVE SMOOTH",
"310 516 OFFCURVE",
"205 490 OFFCURVE",
"123 428 CURVE SMOOTH",
"33 361 OFFCURVE",
"5 306 OFFCURVE",
"5 262 CURVE SMOOTH",
"5 248 OFFCURVE",
"8 235 OFFCURVE",
"12 223 CURVE SMOOTH",
"20 201 OFFCURVE",
"42 186 OFFCURVE",
"71 176 CURVE",
"56 144 OFFCURVE",
"47 114 OFFCURVE",
"47 86 CURVE SMOOTH",
"47 58 OFFCURVE",
"56 34 OFFCURVE",
"77 14 CURVE SMOOTH",
"96 -4 OFFCURVE",
"120 -18 OFFCURVE",
"147 -28 CURVE",
"136 -48 OFFCURVE",
"128 -69 OFFCURVE",
"128 -84 CURVE SMOOTH",
"128 -96 OFFCURVE",
"133 -106 OFFCURVE",
"145 -110 CURVE SMOOTH"
);
},
{
closed = 1;
nodes = (
"135 3 OFFCURVE",
"121 27 OFFCURVE",
"121 61 CURVE SMOOTH",
"121 72 OFFCURVE",
"123 85 OFFCURVE",
"126 99 CURVE SMOOTH",
"131 119 OFFCURVE",
"140 141 OFFCURVE",
"151 163 CURVE",
"155 162 OFFCURVE",
"161 162 OFFCURVE",
"168 162 CURVE SMOOTH",
"186 162 OFFCURVE",
"210 165 OFFCURVE",
"219 169 CURVE SMOOTH",
"225 172 OFFCURVE",
"224 178 OFFCURVE",
"217 178 CURVE SMOOTH",
"216 178 OFFCURVE",
"213 178 OFFCURVE",
"211 177 CURVE SMOOTH",
"206 175 OFFCURVE",
"191 174 OFFCURVE",
"178 174 CURVE SMOOTH",
"169 174 OFFCURVE",
"160 174 OFFCURVE",
"157 175 CURVE",
"165 190 OFFCURVE",
"176 206 OFFCURVE",
"186 222 CURVE SMOOTH",
"249 313 OFFCURVE",
"344 402 OFFCURVE",
"416 439 CURVE SMOOTH",
"451 458 OFFCURVE",
"479 466 OFFCURVE",
"500 466 CURVE",
"400 336 OFFCURVE",
"264 150 OFFCURVE",
"206 63 CURVE SMOOTH",
"201 56 OFFCURVE",
"177 26 OFFCURVE",
"157 -8 CURVE"
);
},
{
closed = 1;
nodes = (
"75 204 OFFCURVE",
"69 212 OFFCURVE",
"66 221 CURVE SMOOTH",
"63 228 OFFCURVE",
"62 237 OFFCURVE",
"62 245 CURVE SMOOTH",
"62 282 OFFCURVE",
"88 331 OFFCURVE",
"161 395 CURVE SMOOTH",
"219 445 OFFCURVE",
"306 479 OFFCURVE",
"381 489 CURVE",
"285 439 OFFCURVE",
"146 313 OFFCURVE",
"82 197 CURVE"
);
},
{
closed = 1;
nodes = (
"192 -17 OFFCURVE",
"187 -17 OFFCURVE",
"182 -16 CURVE",
"200 10 OFFCURVE",
"220 34 OFFCURVE",
"225 41 CURVE SMOOTH",
"285 121 OFFCURVE",
"434 311 OFFCURVE",
"542 447 CURVE",
"549 436 OFFCURVE",
"553 421 OFFCURVE",
"553 404 CURVE SMOOTH",
"553 357 OFFCURVE",
"529 291 OFFCURVE",
"491 225 CURVE SMOOTH",
"444 142 OFFCURVE",
"358 56 OFFCURVE",
"300 19 CURVE SMOOTH",
"262 -5 OFFCURVE",
"226 -17 OFFCURVE",
"197 -17 CURVE SMOOTH"
);
}
);
width = 481;
}
);
},
{
glyphname = OE.ss01;
lastChange = "2021-07-28 10:59:02 +0000";
layers = (
{
layerId = "D7866281-830A-4E76-BB32-392A4BC3306E";
paths = (
{
closed = 1;
nodes = (
"754 -36 OFFCURVE",
"911 19 OFFCURVE",
"990 105 CURVE SMOOTH",
"994 109 OFFCURVE",
"994 116 OFFCURVE",
"990 116 CURVE SMOOTH",
"989 116 OFFCURVE",
"988 115 OFFCURVE",
"986 114 CURVE SMOOTH",
"894 40 OFFCURVE",
"787 13 OFFCURVE",
"668 13 CURVE SMOOTH",
"550 13 OFFCURVE",
"500 71 OFFCURVE",
"500 143 CURVE SMOOTH",
"500 156 OFFCURVE",
"502 169 OFFCURVE",
"505 183 CURVE",
"527 187 OFFCURVE",
"554 196 OFFCURVE",
"582 204 CURVE SMOOTH",
"651 224 OFFCURVE",
"758 242 OFFCURVE",
"838 242 CURVE SMOOTH",
"874 242 OFFCURVE",
"905 238 OFFCURVE",
"923 229 CURVE SMOOTH",
"931 225 OFFCURVE",
"937 224 OFFCURVE",
"940 224 CURVE SMOOTH",
"942 224 OFFCURVE",
"943 225 OFFCURVE",
"943 226 CURVE SMOOTH",
"943 229 OFFCURVE",
"939 234 OFFCURVE",
"934 239 CURVE SMOOTH",
"894 273 OFFCURVE",
"801 284 OFFCURVE",
"713 284 CURVE SMOOTH",
"646 284 OFFCURVE",
"582 277 OFFCURVE",
"545 270 CURVE",
"617 374 OFFCURVE",
"807 479 OFFCURVE",
"935 480 CURVE SMOOTH",
"976 480 OFFCURVE",
"1010 467 OFFCURVE",
"1010 429 CURVE SMOOTH",
"1010 416 OFFCURVE",
"1005 401 OFFCURVE",
"991 388 CURVE SMOOTH",
"972 370 OFFCURVE",
"964 359 OFFCURVE",
"964 354 CURVE SMOOTH",
"964 350 OFFCURVE",
"967 349 OFFCURVE",
"972 349 CURVE SMOOTH",
"980 349 OFFCURVE",
"996 354 OFFCURVE",
"1012 362 CURVE SMOOTH",
"1038 375 OFFCURVE",
"1073 413 OFFCURVE",
"1073 439 CURVE SMOOTH",
"1073 490 OFFCURVE",
"1023 504 OFFCURVE",
"966 504 CURVE SMOOTH",
"799 504 OFFCURVE",
"576 383 OFFCURVE",
"483 252 CURVE",
"454 239 OFFCURVE",
"445 224 OFFCURVE",
"445 211 CURVE SMOOTH",
"445 204 OFFCURVE",
"448 198 OFFCURVE",
"451 194 CURVE",
"442 170 OFFCURVE",
"437 146 OFFCURVE",
"437 122 CURVE SMOOTH",
"437 10 OFFCURVE",
"542 -36 OFFCURVE",
"640 -36 CURVE SMOOTH"
);
},
{
closed = 1;
nodes = (
"310 -39 OFFCURVE",
"440 87 OFFCURVE",
"514 217 CURVE SMOOTH",
"539 262 OFFCURVE",
"570 330 OFFCURVE",
"570 390 CURVE SMOOTH",
"570 426 OFFCURVE",
"559 460 OFFCURVE",
"527 484 CURVE SMOOTH",
"501 504 OFFCURVE",
"453 516 OFFCURVE",
"396 516 CURVE SMOOTH",
"311 516 OFFCURVE",
"205 490 OFFCURVE",
"123 428 CURVE SMOOTH",
"33 361 OFFCURVE",
"5 306 OFFCURVE",
"5 262 CURVE SMOOTH",
"5 248 OFFCURVE",
"8 235 OFFCURVE",
"12 223 CURVE SMOOTH",
"20 201 OFFCURVE",
"42 186 OFFCURVE",
"71 176 CURVE",
"56 144 OFFCURVE",
"47 114 OFFCURVE",
"47 86 CURVE SMOOTH",
"47 58 OFFCURVE",
"56 34 OFFCURVE",
"77 14 CURVE SMOOTH",
"111 -18 OFFCURVE",
"163 -39 OFFCURVE",
"211 -39 CURVE SMOOTH"
);
},
{
closed = 1;
nodes = (
"152 -17 OFFCURVE",
"121 10 OFFCURVE",
"121 60 CURVE SMOOTH",
"121 72 OFFCURVE",
"123 85 OFFCURVE",
"126 99 CURVE SMOOTH",
"131 119 OFFCURVE",
"140 141 OFFCURVE",
"151 163 CURVE",
"155 162 OFFCURVE",
"161 162 OFFCURVE",
"168 162 CURVE SMOOTH",
"186 162 OFFCURVE",
"210 165 OFFCURVE",
"219 169 CURVE SMOOTH",
"225 172 OFFCURVE",
"224 178 OFFCURVE",
"217 178 CURVE SMOOTH",
"216 178 OFFCURVE",
"213 178 OFFCURVE",
"211 177 CURVE SMOOTH",
"206 175 OFFCURVE",
"191 174 OFFCURVE",
"178 174 CURVE SMOOTH",
"169 174 OFFCURVE",
"160 174 OFFCURVE",
"157 175 CURVE",
"165 190 OFFCURVE",
"176 206 OFFCURVE",
"186 222 CURVE SMOOTH",
"249 313 OFFCURVE",
"344 402 OFFCURVE",
"416 439 CURVE SMOOTH",
"452 458 OFFCURVE",
"479 467 OFFCURVE",
"500 467 CURVE SMOOTH",
"536 467 OFFCURVE",
"552 442 OFFCURVE",
"552 403 CURVE SMOOTH",
"552 357 OFFCURVE",
"529 291 OFFCURVE",
"491 225 CURVE SMOOTH",
"444 142 OFFCURVE",
"358 56 OFFCURVE",
"300 19 CURVE SMOOTH",
"262 -5 OFFCURVE",
"226 -17 OFFCURVE",
"197 -17 CURVE SMOOTH"
);
},
{
closed = 1;
nodes = (
"75 204 OFFCURVE",
"69 212 OFFCURVE",
"66 221 CURVE SMOOTH",
"63 228 OFFCURVE",
"62 237 OFFCURVE",
"62 245 CURVE SMOOTH",
"62 282 OFFCURVE",
"88 331 OFFCURVE",
"161 395 CURVE SMOOTH",
"219 445 OFFCURVE",
"306 479 OFFCURVE",
"381 489 CURVE",
"285 439 OFFCURVE",
"146 313 OFFCURVE",
"82 197 CURVE"
);
}
);
width = 980;
}
);
},
{
glyphname = P.ss01;
lastChange = "2021-07-28 10:59:02 +0000";
layers = (
{
layerId = "D7866281-830A-4E76-BB32-392A4BC3306E";
paths = (
{
closed = 1;
nodes = (
"61 -67 OFFCURVE",
"62 -59 OFFCURVE",
"65 -50 CURVE SMOOTH",
"78 -13 OFFCURVE",
"111 45 OFFCURVE",
"151 109 CURVE",
"160 108 OFFCURVE",
"170 108 OFFCURVE",
"181 108 CURVE SMOOTH",
"244 108 OFFCURVE",
"328 123 OFFCURVE",
"407 155 CURVE SMOOTH",
"562 219 OFFCURVE",
"633 316 OFFCURVE",
"633 392 CURVE SMOOTH",
"633 460 OFFCURVE",
"578 512 OFFCURVE",
"476 512 CURVE SMOOTH",
"448 512 OFFCURVE",
"416 508 OFFCURVE",
"381 499 CURVE SMOOTH",
"292 477 OFFCURVE",
"230 467 OFFCURVE",
"150 445 CURVE SMOOTH",
"119 437 OFFCURVE",
"77 426 OFFCURVE",
"48 426 CURVE SMOOTH",
"27 426 OFFCURVE",
"16 433 OFFCURVE",
"16 442 CURVE SMOOTH",
"16 450 OFFCURVE",
"23 460 OFFCURVE",
"38 469 CURVE SMOOTH",
"42 472 OFFCURVE",
"47 474 OFFCURVE",
"52 476 CURVE SMOOTH",
"57 478 OFFCURVE",
"59 480 OFFCURVE",
"59 482 CURVE SMOOTH",
"59 484 OFFCURVE",
"57 486 OFFCURVE",
"53 486 CURVE SMOOTH",
"51 486 OFFCURVE",
"49 486 OFFCURVE",
"46 485 CURVE SMOOTH",
"24 477 OFFCURVE",
"-1 450 OFFCURVE",
"5 425 CURVE SMOOTH",
"9 407 OFFCURVE",
"20 391 OFFCURVE",
"34 379 CURVE SMOOTH",
"43 371 OFFCURVE",
"57 367 OFFCURVE",
"78 367 CURVE SMOOTH",
"104 367 OFFCURVE",
"138 373 OFFCURVE",
"185 387 CURVE SMOOTH",
"269 413 OFFCURVE",
"382 452 OFFCURVE",
"465 468 CURVE SMOOTH",
"488 472 OFFCURVE",
"509 474 OFFCURVE",
"526 474 CURVE SMOOTH",
"586 474 OFFCURVE",
"613 451 OFFCURVE",
"613 416 CURVE SMOOTH",
"613 355 OFFCURVE",
"528 260 OFFCURVE",
"391 205 CURVE SMOOTH",
"312 173 OFFCURVE",
"231 158 OFFCURVE",
"182 158 CURVE",
"203 190 OFFCURVE",
"225 222 OFFCURVE",
"247 253 CURVE",
"278 257 OFFCURVE",
"308 259 OFFCURVE",
"330 259 CURVE SMOOTH",
"340 259 OFFCURVE",
"348 258 OFFCURVE",
"355 258 CURVE SMOOTH",
"360 258 OFFCURVE",
"362 259 OFFCURVE",
"362 262 CURVE SMOOTH",
"362 263 OFFCURVE",
"361 265 OFFCURVE",
"359 268 CURVE SMOOTH",
"354 274 OFFCURVE",
"324 279 OFFCURVE",
"289 279 CURVE SMOOTH",
"281 279 OFFCURVE",
"273 279 OFFCURVE",
"265 278 CURVE",
"299 324 OFFCURVE",
"330 364 OFFCURVE",
"353 389 CURVE",
"357 394 OFFCURVE",
"331 401 OFFCURVE",
"316 401 CURVE SMOOTH",
"311 401 OFFCURVE",
"307 401 OFFCURVE",
"306 399 CURVE SMOOTH",
"283 372 OFFCURVE",
"250 324 OFFCURVE",
"216 270 CURVE",
"186 264 OFFCURVE",
"145 256 OFFCURVE",
"123 245 CURVE SMOOTH",
"77 223 OFFCURVE",
"55 193 OFFCURVE",
"55 167 CURVE SMOOTH",
"55 141 OFFCURVE",
"77 118 OFFCURVE",
"121 111 CURVE",
"89 54 OFFCURVE",
"63 1 OFFCURVE",
"51 -35 CURVE SMOOTH",
"47 -46 OFFCURVE",
"45 -53 OFFCURVE",
"45 -58 CURVE SMOOTH",
"45 -64 OFFCURVE",
"48 -67 OFFCURVE",
"55 -67 CURVE SMOOTH"
);
},
{
closed = 1;
nodes = (
"100 162 OFFCURVE",
"81 173 OFFCURVE",
"81 186 CURVE SMOOTH",
"81 199 OFFCURVE",
"100 214 OFFCURVE",
"127 225 CURVE SMOOTH",
"147 233 OFFCURVE",
"173 239 OFFCURVE",
"200 245 CURVE",
"182 217 OFFCURVE",
"165 187 OFFCURVE",
"148 158 CURVE"
);
}
);
width = 508;
}
);
},
{
glyphname = Thorn.ss01;
lastChange = "2021-07-28 10:59:02 +0000";
layers = (
{
layerId = "D7866281-830A-4E76-BB32-392A4BC3306E";
paths = (
{
closed = 1;
nodes = (
"-9 -109 OFFCURVE",
"-6 -103 OFFCURVE",
"-3 -99 CURVE SMOOTH",
"36 -36 OFFCURVE",
"69 30 OFFCURVE",
"112 90 CURVE SMOOTH",
"159 158 OFFCURVE",
"327 451 OFFCURVE",
"381 512 CURVE",
"388 525 OFFCURVE",
"346 532 OFFCURVE",
"329 532 CURVE SMOOTH",
"312 532 OFFCURVE",
"151 255 OFFCURVE",
"42 41 CURVE SMOOTH",
"25 8 OFFCURVE",
"-9 -62 OFFCURVE",
"-20 -97 CURVE",
"-20 -99 OFFCURVE",
"-21 -101 OFFCURVE",
"-21 -103 CURVE SMOOTH",
"-21 -106 OFFCURVE",
"-19 -109 OFFCURVE",
"-16 -109 CURVE SMOOTH"
);
},
{
closed = 1;
nodes = (
"150 100 LINE SMOOTH",
"200 103 OFFCURVE",
"256 121 OFFCURVE",
"304 133 CURVE SMOOTH",
"376 151 OFFCURVE",
"530 203 OFFCURVE",
"530 295 CURVE SMOOTH",
"530 386 OFFCURVE",
"432 406 OFFCURVE",
"359 406 CURVE SMOOTH",
"278 406 OFFCURVE",
"196 388 OFFCURVE",
"117 372 CURVE SMOOTH",
"107 370 OFFCURVE",
"97 368 OFFCURVE",
"88 364 CURVE SMOOTH",
"73 358 OFFCURVE",
"66 346 OFFCURVE",
"66 330 CURVE SMOOTH",
"66 315 OFFCURVE",
"75 304 OFFCURVE",
"91 304 CURVE SMOOTH",
"96 304 OFFCURVE",
"101 305 OFFCURVE",
"107 307 CURVE SMOOTH",
"188 331 OFFCURVE",
"289 361 OFFCURVE",
"374 361 CURVE SMOOTH",
"411 361 OFFCURVE",
"489 353 OFFCURVE",
"489 301 CURVE SMOOTH",
"489 216 OFFCURVE",
"311 156 OFFCURVE",
"246 138 CURVE SMOOTH",
"225 132 OFFCURVE",
"204 127 OFFCURVE",
"183 124 CURVE SMOOTH",
"175 123 OFFCURVE",
"168 123 OFFCURVE",
"161 121 CURVE SMOOTH",
"155 119 OFFCURVE",
"139 113 OFFCURVE",
"139 105 CURVE SMOOTH",
"139 101 OFFCURVE",
"144 100 OFFCURVE",
"147 100 CURVE SMOOTH"
);
}
);
width = 439;
}
);
},
{
glyphname = Q.ss01;
lastChange = "2021-07-28 10:59:02 +0000";
layers = (
{
layerId = "D7866281-830A-4E76-BB32-392A4BC3306E";
paths = (
{
closed = 1;
nodes = (
"333 -280 OFFCURVE",
"359 -278 OFFCURVE",
"382 -272 CURVE SMOOTH",
"499 -242 OFFCURVE",
"572 -164 OFFCURVE",
"572 -104 CURVE SMOOTH",
"572 -63 OFFCURVE",
"536 -30 OFFCURVE",
"455 -30 CURVE SMOOTH",
"437 -30 OFFCURVE",
"415 -32 OFFCURVE",
"391 -36 CURVE SMOOTH",
"313 -48 OFFCURVE",
"256 -66 OFFCURVE",
"188 -85 CURVE SMOOTH",
"162 -92 OFFCURVE",
"126 -101 OFFCURVE",
"100 -101 CURVE SMOOTH",
"81 -101 OFFCURVE",
"74 -93 OFFCURVE",
"74 -84 CURVE SMOOTH",
"74 -70 OFFCURVE",
"91 -49 OFFCURVE",
"110 -39 CURVE SMOOTH",
"120 -33 OFFCURVE",
"131 -29 OFFCURVE",
"141 -25 CURVE",
"164 -34 OFFCURVE",
"190 -39 OFFCURVE",
"214 -39 CURVE SMOOTH",
"313 -37 OFFCURVE",
"441 89 OFFCURVE",
"514 217 CURVE SMOOTH",
"539 262 OFFCURVE",
"570 330 OFFCURVE",
"570 390 CURVE SMOOTH",
"570 426 OFFCURVE",
"559 460 OFFCURVE",
"527 484 CURVE SMOOTH",
"501 504 OFFCURVE",
"453 516 OFFCURVE",
"396 516 CURVE SMOOTH",
"311 516 OFFCURVE",
"205 490 OFFCURVE",
"123 428 CURVE SMOOTH",
"33 361 OFFCURVE",
"5 306 OFFCURVE",
"5 262 CURVE SMOOTH",
"5 248 OFFCURVE",
"8 235 OFFCURVE",
"12 223 CURVE SMOOTH",
"20 201 OFFCURVE",
"42 186 OFFCURVE",
"71 176 CURVE",
"56 144 OFFCURVE",
"47 114 OFFCURVE",
"47 86 CURVE SMOOTH",
"47 58 OFFCURVE",
"56 34 OFFCURVE",
"77 14 CURVE SMOOTH",
"92 0 OFFCURVE",
"109 -11 OFFCURVE",
"129 -20 CURVE",
"91 -31 OFFCURVE",
"60 -58 OFFCURVE",
"60 -90 CURVE SMOOTH",
"60 -106 OFFCURVE",
"68 -124 OFFCURVE",
"89 -141 CURVE SMOOTH",
"97 -148 OFFCURVE",
"110 -152 OFFCURVE",
"130 -152 CURVE SMOOTH",
"151 -152 OFFCURVE",
"180 -147 OFFCURVE",
"218 -134 CURVE SMOOTH",
"302 -105 OFFCURVE",
"386 -73 OFFCURVE",
"464 -73 CURVE SMOOTH",
"521 -73 OFFCURVE",
"547 -95 OFFCURVE",
"547 -124 CURVE SMOOTH",
"547 -169 OFFCURVE",
"484 -231 OFFCURVE",
"381 -258 CURVE SMOOTH",
"354 -265 OFFCURVE",
"323 -267 OFFCURVE",
"295 -267 CURVE SMOOTH",
"267 -267 OFFCURVE",
"243 -265 OFFCURVE",
"233 -261 CURVE",
"227 -261 OFFCURVE",
"222 -267 OFFCURVE",
"238 -273 CURVE SMOOTH",
"248 -276 OFFCURVE",
"277 -280 OFFCURVE",
"310 -280 CURVE SMOOTH"
);
},
{
closed = 1;
nodes = (
"151 -17 OFFCURVE",
"121 10 OFFCURVE",
"121 60 CURVE SMOOTH",
"121 72 OFFCURVE",
"123 85 OFFCURVE",
"126 99 CURVE SMOOTH",
"131 119 OFFCURVE",
"140 141 OFFCURVE",
"151 163 CURVE",
"155 162 OFFCURVE",
"161 162 OFFCURVE",
"168 162 CURVE SMOOTH",
"186 162 OFFCURVE",
"210 165 OFFCURVE",
"219 169 CURVE SMOOTH",
"225 172 OFFCURVE",
"224 178 OFFCURVE",
"217 178 CURVE SMOOTH",
"216 178 OFFCURVE",
"213 178 OFFCURVE",
"211 177 CURVE SMOOTH",
"206 175 OFFCURVE",
"191 174 OFFCURVE",
"178 174 CURVE SMOOTH",
"169 174 OFFCURVE",
"160 174 OFFCURVE",
"157 175 CURVE",
"165 190 OFFCURVE",
"176 206 OFFCURVE",
"186 222 CURVE SMOOTH",
"249 313 OFFCURVE",
"344 402 OFFCURVE",
"415 439 CURVE SMOOTH",
"451 458 OFFCURVE",
"479 467 OFFCURVE",
"500 467 CURVE SMOOTH",
"536 467 OFFCURVE",
"552 442 OFFCURVE",
"552 403 CURVE SMOOTH",
"552 357 OFFCURVE",
"529 291 OFFCURVE",
"491 225 CURVE SMOOTH",
"444 142 OFFCURVE",
"358 56 OFFCURVE",
"300 19 CURVE SMOOTH",
"262 -5 OFFCURVE",
"226 -17 OFFCURVE",
"196 -17 CURVE SMOOTH"
);
},
{
closed = 1;
nodes = (
"74 204 OFFCURVE",
"69 212 OFFCURVE",
"66 221 CURVE SMOOTH",
"63 228 OFFCURVE",
"62 237 OFFCURVE",
"62 245 CURVE SMOOTH",
"62 282 OFFCURVE",
"88 331 OFFCURVE",
"161 395 CURVE SMOOTH",
"219 445 OFFCURVE",
"306 479 OFFCURVE",
"381 489 CURVE",
"284 439 OFFCURVE",
"146 313 OFFCURVE",
"82 197 CURVE"
);
}
);
width = 532;
}
);
},
{
glyphname = R.ss01;
lastChange = "2021-07-28 10:59:02 +0000";
layers = (
{
anchors = (
{
name = bottom;
position = "{218, -40}";
},
{
name = top;
position = "{473, 508}";
}
);
layerId = "D7866281-830A-4E76-BB32-392A4BC3306E";
paths = (
{
closed = 1;
nodes = (
"61 -67 OFFCURVE",
"62 -59 OFFCURVE",
"65 -50 CURVE SMOOTH",
"79 -11 OFFCURVE",
"116 53 OFFCURVE",
"159 122 CURVE",
"219 25 OFFCURVE",
"403 -36 OFFCURVE",
"488 -31 CURVE SMOOTH",
"496 -30 OFFCURVE",
"499 -27 OFFCURVE",
"499 -23 CURVE SMOOTH",
"499 -20 OFFCURVE",
"497 -17 OFFCURVE",
"493 -17 CURVE SMOOTH",
"408 -14 OFFCURVE",
"254 62 OFFCURVE",
"214 160 CURVE",
"254 158 OFFCURVE",
"301 161 OFFCURVE",
"341 171 CURVE SMOOTH",
"514 215 OFFCURVE",
"606 321 OFFCURVE",
"606 402 CURVE SMOOTH",
"606 462 OFFCURVE",
"557 508 OFFCURVE",
"455 508 CURVE SMOOTH",
"434 508 OFFCURVE",
"412 506 OFFCURVE",
"387 502 CURVE SMOOTH",
"297 488 OFFCURVE",
"230 467 OFFCURVE",
"150 445 CURVE SMOOTH",
"119 437 OFFCURVE",
"77 426 OFFCURVE",
"48 426 CURVE SMOOTH",
"27 426 OFFCURVE",
"16 433 OFFCURVE",
"16 442 CURVE SMOOTH",
"16 450 OFFCURVE",
"23 460 OFFCURVE",
"38 469 CURVE SMOOTH",
"42 472 OFFCURVE",
"47 474 OFFCURVE",
"52 476 CURVE SMOOTH",
"57 478 OFFCURVE",
"59 480 OFFCURVE",
"59 482 CURVE SMOOTH",
"59 484 OFFCURVE",
"57 486 OFFCURVE",
"53 486 CURVE SMOOTH",
"51 486 OFFCURVE",
"49 486 OFFCURVE",
"46 485 CURVE SMOOTH",
"24 477 OFFCURVE",
"-1 450 OFFCURVE",
"5 425 CURVE SMOOTH",
"9 407 OFFCURVE",
"20 391 OFFCURVE",
"34 379 CURVE SMOOTH",
"43 371 OFFCURVE",
"59 366 OFFCURVE",
"82 366 CURVE SMOOTH",
"107 366 OFFCURVE",
"141 372 OFFCURVE",
"185 387 CURVE SMOOTH",
"283 421 OFFCURVE",
"377 458 OFFCURVE",
"467 458 CURVE SMOOTH",
"538 458 OFFCURVE",
"573 426 OFFCURVE",
"573 382 CURVE SMOOTH",
"573 317 OFFCURVE",
"493 226 OFFCURVE",
"339 187 CURVE SMOOTH",
"298 177 OFFCURVE",
"250 173 OFFCURVE",
"209 173 CURVE",
"207 179 OFFCURVE",
"206 186 OFFCURVE",
"205 192 CURVE",
"259 272 OFFCURVE",
"317 349 OFFCURVE",
"353 389 CURVE",
"358 396 OFFCURVE",
"317 406 OFFCURVE",
"312 400 CURVE SMOOTH",
"283 365 OFFCURVE",
"238 300 OFFCURVE",
"193 229 CURVE",
"153 233 OFFCURVE",
"140 211 OFFCURVE",
"140 184 CURVE SMOOTH",
"140 173 OFFCURVE",
"142 161 OFFCURVE",
"146 151 CURVE",
"103 78 OFFCURVE",
"66 9 OFFCURVE",
"51 -35 CURVE SMOOTH",
"47 -46 OFFCURVE",
"45 -53 OFFCURVE",
"45 -58 CURVE SMOOTH",
"45 -64 OFFCURVE",
"48 -67 OFFCURVE",
"55 -67 CURVE SMOOTH"
);
}
);
width = 469;
}
);
},
{
glyphname = Rcommaaccent.ss01;
lastChange = "2021-07-28 10:59:02 +0000";
layers = (
{
background = {
paths = (
{
closed = 1;
nodes = (
"61 -67 OFFCURVE",
"62 -59 OFFCURVE",
"65 -50 CURVE SMOOTH",
"79 -11 OFFCURVE",
"116 53 OFFCURVE",
"159 122 CURVE",
"219 25 OFFCURVE",
"403 -36 OFFCURVE",
"488 -31 CURVE SMOOTH",
"496 -30 OFFCURVE",
"499 -27 OFFCURVE",
"499 -23 CURVE SMOOTH",
"499 -20 OFFCURVE",
"497 -17 OFFCURVE",
"493 -17 CURVE SMOOTH",
"408 -14 OFFCURVE",
"254 62 OFFCURVE",
"214 160 CURVE",
"254 158 OFFCURVE",
"301 161 OFFCURVE",
"341 171 CURVE SMOOTH",
"514 215 OFFCURVE",
"606 321 OFFCURVE",
"606 402 CURVE SMOOTH",
"606 462 OFFCURVE",
"557 508 OFFCURVE",
"455 508 CURVE SMOOTH",
"434 508 OFFCURVE",
"412 506 OFFCURVE",
"387 502 CURVE SMOOTH",
"297 488 OFFCURVE",
"230 467 OFFCURVE",
"150 445 CURVE SMOOTH",
"119 437 OFFCURVE",
"77 426 OFFCURVE",
"48 426 CURVE SMOOTH",
"27 426 OFFCURVE",
"16 433 OFFCURVE",
"16 442 CURVE SMOOTH",
"16 450 OFFCURVE",
"23 460 OFFCURVE",
"38 469 CURVE SMOOTH",
"42 472 OFFCURVE",
"47 474 OFFCURVE",
"52 476 CURVE SMOOTH",
"57 478 OFFCURVE",
"59 480 OFFCURVE",
"59 482 CURVE SMOOTH",
"59 484 OFFCURVE",
"57 486 OFFCURVE",
"53 486 CURVE SMOOTH",
"51 486 OFFCURVE",
"49 486 OFFCURVE",
"46 485 CURVE SMOOTH",
"24 477 OFFCURVE",
"-1 450 OFFCURVE",
"5 425 CURVE SMOOTH",
"9 407 OFFCURVE",
"20 391 OFFCURVE",
"34 379 CURVE SMOOTH",
"43 371 OFFCURVE",
"59 366 OFFCURVE",
"82 366 CURVE SMOOTH",
"107 366 OFFCURVE",
"141 372 OFFCURVE",
"185 387 CURVE SMOOTH",
"283 421 OFFCURVE",
"377 458 OFFCURVE",
"467 458 CURVE SMOOTH",
"538 458 OFFCURVE",
"573 426 OFFCURVE",
"573 382 CURVE SMOOTH",
"573 317 OFFCURVE",
"493 226 OFFCURVE",
"339 187 CURVE SMOOTH",
"298 177 OFFCURVE",
"250 173 OFFCURVE",
"209 173 CURVE",
"207 179 OFFCURVE",
"206 186 OFFCURVE",
"205 192 CURVE",
"259 272 OFFCURVE",
"317 349 OFFCURVE",
"353 389 CURVE",
"358 396 OFFCURVE",
"317 406 OFFCURVE",
"312 400 CURVE SMOOTH",
"283 365 OFFCURVE",
"238 300 OFFCURVE",
"193 229 CURVE",
"153 233 OFFCURVE",
"140 211 OFFCURVE",
"140 184 CURVE SMOOTH",
"140 173 OFFCURVE",
"142 161 OFFCURVE",
"146 151 CURVE",
"103 78 OFFCURVE",
"66 9 OFFCURVE",
"51 -35 CURVE SMOOTH",
"47 -46 OFFCURVE",
"45 -53 OFFCURVE",
"45 -58 CURVE SMOOTH",
"45 -64 OFFCURVE",
"48 -67 OFFCURVE",
"55 -67 CURVE SMOOTH"
);
},
{
closed = 1;
nodes = (
"147.55 -176.25 OFFCURVE",
"221.5 -103.15 OFFCURVE",
"221.5 -89.55 CURVE SMOOTH",
"221.5 -75.95 OFFCURVE",
"186.65 -65.75 OFFCURVE",
"175.6 -65.75 CURVE SMOOTH",
"169.65 -65.75 OFFCURVE",
"167.1 -70 OFFCURVE",
"167.1 -75.1 CURVE SMOOTH",
"167.1 -82.75 OFFCURVE",
"169.65 -90.4 OFFCURVE",
"169.65 -97.2 CURVE SMOOTH",
"169.65 -126.1 OFFCURVE",
"150.95 -146.5 OFFCURVE",
"131.4 -164.35 CURVE SMOOTH",
"129.7 -166.05 OFFCURVE",
"128.85 -167.75 OFFCURVE",
"128.85 -170.3 CURVE SMOOTH",
"128.85 -172.85 OFFCURVE",
"130.55 -176.25 OFFCURVE",
"134.8 -176.25 CURVE SMOOTH"
);
}
);
};
components = (
{
name = R.ss01;
},
{
name = commaaccentcomb;
transform = "{1, 0, 0, 1, 138, -40}";
}
);
layerId = "D7866281-830A-4E76-BB32-392A4BC3306E";
width = 469;
}
);
},
{
glyphname = S.ss01;
lastChange = "2021-07-28 10:59:02 +0000";
layers = (
{
anchors = (
{
name = bottom;
position = "{146, 0}";
},
{
name = top;
position = "{526, 497}";
}
);
layerId = "D7866281-830A-4E76-BB32-392A4BC3306E";
paths = (
{
closed = 1;
nodes = (
"187 -16 OFFCURVE",
"232 -10 OFFCURVE",
"252 -7 CURVE SMOOTH",
"313 4 OFFCURVE",
"444 50 OFFCURVE",
"444 131 CURVE SMOOTH",
"444 224 OFFCURVE",
"266 237 OFFCURVE",
"272 287 CURVE SMOOTH",
"280 367 OFFCURVE",
"467 477 OFFCURVE",
"546 477 CURVE SMOOTH",
"554 477 OFFCURVE",
"558 474 OFFCURVE",
"558 471 CURVE SMOOTH",
"558 454 OFFCURVE",
"499 413 OFFCURVE",
"494 408 CURVE SMOOTH",
"487 400 OFFCURVE",
"484 391 OFFCURVE",
"484 383 CURVE SMOOTH",
"484 368 OFFCURVE",
"494 355 OFFCURVE",
"512 350 CURVE",
"511 372 OFFCURVE",
"543 390 OFFCURVE",
"567 410 CURVE SMOOTH",
"580 421 OFFCURVE",
"599 433 OFFCURVE",
"599 447 CURVE SMOOTH",
"599 483 OFFCURVE",
"573 497 OFFCURVE",
"526 497 CURVE SMOOTH",
"429 497 OFFCURVE",
"230 411 OFFCURVE",
"219 318 CURVE SMOOTH",
"210 231 OFFCURVE",
"409 221 OFFCURVE",
"409 153 CURVE SMOOTH",
"409 123 OFFCURVE",
"343 90 OFFCURVE",
"313 76 CURVE SMOOTH",
"244 46 OFFCURVE",
"142 25 OFFCURVE",
"71 25 CURVE SMOOTH",
"22 25 OFFCURVE",
"-12 34 OFFCURVE",
"-12 57 CURVE SMOOTH",
"-12 67 OFFCURVE",
"-5 79 OFFCURVE",
"9 94 CURVE SMOOTH",
"27 112 OFFCURVE",
"60 129 OFFCURVE",
"110 137 CURVE SMOOTH",
"131 140 OFFCURVE",
"151 142 OFFCURVE",
"171 142 CURVE SMOOTH",
"197 142 OFFCURVE",
"223 139 OFFCURVE",
"246 131 CURVE SMOOTH",
"262 126 OFFCURVE",
"281 118 OFFCURVE",
"286 113 CURVE SMOOTH",
"291 108 OFFCURVE",
"296 106 OFFCURVE",
"292 121 CURVE SMOOTH",
"290 130 OFFCURVE",
"275 149 OFFCURVE",
"260 159 CURVE SMOOTH",
"231 179 OFFCURVE",
"194 188 OFFCURVE",
"156 188 CURVE SMOOTH",
"141 188 OFFCURVE",
"125 187 OFFCURVE",
"110 184 CURVE SMOOTH",
"36 172 OFFCURVE",
"-11 131 OFFCURVE",
"-23 93 CURVE SMOOTH",
"-26 84 OFFCURVE",
"-27 76 OFFCURVE",
"-27 68 CURVE SMOOTH",
"-27 22 OFFCURVE",
"22 -3 OFFCURVE",
"82 -12 CURVE SMOOTH",
"101 -15 OFFCURVE",
"121 -16 OFFCURVE",
"140 -16 CURVE SMOOTH"
);
}
);
width = 468;
}
);
},
{
glyphname = Scommaaccent.ss01;
lastChange = "2021-07-28 10:59:02 +0000";
layers = (
{
background = {
paths = (
{
closed = 1;
nodes = (
"101 -15 OFFCURVE",
"121 -16 OFFCURVE",
"140 -16 CURVE SMOOTH",
"187 -16 OFFCURVE",
"232 -10 OFFCURVE",
"252 -7 CURVE SMOOTH",
"313 4 OFFCURVE",
"444 50 OFFCURVE",
"444 131 CURVE SMOOTH",
"444 224 OFFCURVE",
"266 237 OFFCURVE",
"272 287 CURVE SMOOTH",
"280 367 OFFCURVE",
"467 477 OFFCURVE",
"546 477 CURVE SMOOTH",
"554 477 OFFCURVE",
"558 474 OFFCURVE",
"558 471 CURVE SMOOTH",
"558 454 OFFCURVE",
"499 413 OFFCURVE",
"494 408 CURVE SMOOTH",
"487 400 OFFCURVE",
"484 391 OFFCURVE",
"484 383 CURVE SMOOTH",
"484 368 OFFCURVE",
"494 355 OFFCURVE",
"512 350 CURVE",
"511 372 OFFCURVE",
"543 390 OFFCURVE",
"567 410 CURVE SMOOTH",
"580 421 OFFCURVE",
"599 433 OFFCURVE",
"599 447 CURVE SMOOTH",
"599 483 OFFCURVE",
"573 497 OFFCURVE",
"526 497 CURVE SMOOTH",
"429 497 OFFCURVE",
"230 411 OFFCURVE",
"219 318 CURVE SMOOTH",
"210 231 OFFCURVE",
"409 221 OFFCURVE",
"409 153 CURVE SMOOTH",
"409 123 OFFCURVE",
"343 90 OFFCURVE",
"313 76 CURVE SMOOTH",
"244 46 OFFCURVE",
"142 25 OFFCURVE",
"71 25 CURVE SMOOTH",
"22 25 OFFCURVE",
"-12 34 OFFCURVE",
"-12 57 CURVE SMOOTH",
"-12 67 OFFCURVE",
"-5 79 OFFCURVE",
"9 94 CURVE SMOOTH",
"27 112 OFFCURVE",
"60 129 OFFCURVE",
"110 137 CURVE SMOOTH",
"131 140 OFFCURVE",
"151 142 OFFCURVE",
"171 142 CURVE SMOOTH",
"197 142 OFFCURVE",
"223 139 OFFCURVE",
"246 131 CURVE SMOOTH",
"262 126 OFFCURVE",
"281 118 OFFCURVE",
"286 113 CURVE SMOOTH",
"291 108 OFFCURVE",
"296 106 OFFCURVE",
"292 121 CURVE SMOOTH",
"290 130 OFFCURVE",
"275 149 OFFCURVE",
"260 159 CURVE SMOOTH",
"231 179 OFFCURVE",
"194 188 OFFCURVE",
"156 188 CURVE SMOOTH",
"141 188 OFFCURVE",
"125 187 OFFCURVE",
"110 184 CURVE SMOOTH",
"36 172 OFFCURVE",
"-11 131 OFFCURVE",
"-23 93 CURVE SMOOTH",
"-26 84 OFFCURVE",
"-27 76 OFFCURVE",
"-27 68 CURVE SMOOTH",
"-27 22 OFFCURVE",
"22 -3 OFFCURVE",
"82 -12 CURVE SMOOTH"
);
},
{
closed = 1;
nodes = (
"69.55 -176.25 OFFCURVE",
"143.5 -103.15 OFFCURVE",
"143.5 -89.55 CURVE SMOOTH",
"143.5 -75.95 OFFCURVE",
"108.65 -65.75 OFFCURVE",
"97.6 -65.75 CURVE SMOOTH",
"91.65 -65.75 OFFCURVE",
"89.1 -70 OFFCURVE",
"89.1 -75.1 CURVE SMOOTH",
"89.1 -82.75 OFFCURVE",
"91.65 -90.4 OFFCURVE",
"91.65 -97.2 CURVE SMOOTH",
"91.65 -126.1 OFFCURVE",
"72.95 -146.5 OFFCURVE",
"53.4 -164.35 CURVE SMOOTH",
"51.7 -166.05 OFFCURVE",
"50.85 -167.75 OFFCURVE",
"50.85 -170.3 CURVE SMOOTH",
"50.85 -172.85 OFFCURVE",
"52.55 -176.25 OFFCURVE",
"56.8 -176.25 CURVE SMOOTH"
);
}
);
};
components = (
{
name = S.ss01;
},
{
name = commaaccentcomb;
transform = "{1, 0, 0, 1, 66, 0}";
}
);
layerId = "D7866281-830A-4E76-BB32-392A4BC3306E";
width = 468;
}
);
},
{
glyphname = Germandbls.ss01;
lastChange = "2021-07-28 10:59:02 +0000";
layers = (
{
layerId = "D7866281-830A-4E76-BB32-392A4BC3306E";
paths = (
{
closed = 1;
nodes = (
"-23 -97 OFFCURVE",
"26 -19 OFFCURVE",
"99 151 CURVE SMOOTH",
"145 261 OFFCURVE",
"221 393 OFFCURVE",
"325 462 CURVE SMOOTH",
"350 479 OFFCURVE",
"381 492 OFFCURVE",
"411 492 CURVE SMOOTH",
"437 492 OFFCURVE",
"463 481 OFFCURVE",
"461 451 CURVE SMOOTH",
"454 373 OFFCURVE",
"286 283 OFFCURVE",
"228 251 CURVE SMOOTH",
"217 245 OFFCURVE",
"196 232 OFFCURVE",
"196 217 CURVE SMOOTH",
"196 203 OFFCURVE",
"216 199 OFFCURVE",
"228 199 CURVE SMOOTH",
"250 199 OFFCURVE",
"275 205 OFFCURVE",
"300 205 CURVE SMOOTH",
"329 205 OFFCURVE",
"393 201 OFFCURVE",
"393 163 CURVE SMOOTH",
"393 102 OFFCURVE",
"231 42 OFFCURVE",
"183 29 CURVE SMOOTH",
"156 21 OFFCURVE",
"127 14 OFFCURVE",
"100 14 CURVE SMOOTH",
"76 14 OFFCURVE",
"70 25 OFFCURVE",
"64 25 CURVE SMOOTH",
"57 25 OFFCURVE",
"53 17 OFFCURVE",
"53 12 CURVE SMOOTH",
"53 -16 OFFCURVE",
"107 -23 OFFCURVE",
"127 -23 CURVE SMOOTH",
"161 -23 OFFCURVE",
"208 -16 OFFCURVE",
"241 -7 CURVE SMOOTH",
"304 11 OFFCURVE",
"450 76 OFFCURVE",
"450 156 CURVE SMOOTH",
"450 214 OFFCURVE",
"369 226 OFFCURVE",
"324 226 CURVE SMOOTH",
"303 226 OFFCURVE",
"282 222 OFFCURVE",
"261 222 CURVE SMOOTH",
"258 222 OFFCURVE",
"241 222 OFFCURVE",
"241 229 CURVE SMOOTH",
"242 238 OFFCURVE",
"269 253 OFFCURVE",
"276 256 CURVE SMOOTH",
"342 295 OFFCURVE",
"530 400 OFFCURVE",
"530 480 CURVE SMOOTH",
"530 514 OFFCURVE",
"498 524 OFFCURVE",
"468 524 CURVE SMOOTH",
"422 524 OFFCURVE",
"350 501 OFFCURVE",
"311 473 CURVE SMOOTH",
"167 372 OFFCURVE",
"39 164 OFFCURVE",
"-6 77 CURVE SMOOTH",
"-37 16 OFFCURVE",
"-93 -48 OFFCURVE",
"-141 -71 CURVE SMOOTH",
"-163 -81 OFFCURVE",
"-178 -89 OFFCURVE",
"-178 -94 CURVE SMOOTH",
"-178 -98 OFFCURVE",
"-168 -100 OFFCURVE",
"-143 -100 CURVE"
);
}
);
width = 470;
}
);
},
{
glyphname = Schwa.ss01;
lastChange = "2021-07-28 10:59:02 +0000";
layers = (
{
layerId = "D7866281-830A-4E76-BB32-392A4BC3306E";
paths = (
{
closed = 1;
nodes = (
"267 5 OFFCURVE",
"449 109 OFFCURVE",
"522 290 CURVE SMOOTH",
"542 340 OFFCURVE",
"551 380 OFFCURVE",
"551 412 CURVE SMOOTH",
"551 505 OFFCURVE",
"479 530 OFFCURVE",
"410 530 CURVE SMOOTH",
"312 530 OFFCURVE",
"228 456 OFFCURVE",
"184 392 CURVE SMOOTH",
"180 385 OFFCURVE",
"178 380 OFFCURVE",
"178 378 CURVE SMOOTH",
"178 375 OFFCURVE",
"179 374 OFFCURVE",
"181 374 CURVE SMOOTH",
"187 374 OFFCURVE",
"197 380 OFFCURVE",
"207 392 CURVE SMOOTH",
"257 452 OFFCURVE",
"350 504 OFFCURVE",
"409 504 CURVE SMOOTH",
"444 504 OFFCURVE",
"503 501 OFFCURVE",
"503 446 CURVE SMOOTH",
"503 368 OFFCURVE",
"470 301 OFFCURVE",
"435 251 CURVE",
"416 260 OFFCURVE",
"388 263 OFFCURVE",
"359 263 CURVE SMOOTH",
"300 263 OFFCURVE",
"235 250 OFFCURVE",
"216 245 CURVE SMOOTH",
"125 221 OFFCURVE",
"82 158 OFFCURVE",
"82 103 CURVE SMOOTH",
"82 51 OFFCURVE",
"120 5 OFFCURVE",
"191 5 CURVE SMOOTH"
);
},
{
closed = 1;
nodes = (
"139 31 OFFCURVE",
"128 49 OFFCURVE",
"128 74 CURVE SMOOTH",
"128 120 OFFCURVE",
"164 186 OFFCURVE",
"219 202 CURVE SMOOTH",
"241 208 OFFCURVE",
"303 232 OFFCURVE",
"368 232 CURVE SMOOTH",
"384 232 OFFCURVE",
"401 231 OFFCURVE",
"417 227 CURVE",
"382 190 OFFCURVE",
"253 31 OFFCURVE",
"164 31 CURVE SMOOTH"
);
}
);
width = 589;
}
);
},
{
glyphname = T.ss01;
lastChange = "2021-07-28 10:59:02 +0000";
layers = (
{
anchors = (
{
name = bottom;
position = "{296, -62}";
},
{
name = center;
position = "{449, 270}";
},
{
name = top;
position = "{600, 476}";
}
);
layerId = "D7866281-830A-4E76-BB32-392A4BC3306E";
paths = (
{
closed = 1;
nodes = (
"22 274 OFFCURVE",
"24 275 OFFCURVE",
"24 276 CURVE SMOOTH",
"24 277 OFFCURVE",
"24 278 OFFCURVE",
"23 279 CURVE SMOOTH",
"15 288 OFFCURVE",
"12 297 OFFCURVE",
"12 306 CURVE SMOOTH",
"12 379 OFFCURVE",
"275 422 OFFCURVE",
"334 429 CURVE SMOOTH",
"374 435 OFFCURVE",
"423 438 OFFCURVE",
"471 438 CURVE SMOOTH",
"578 438 OFFCURVE",
"683 419 OFFCURVE",
"683 360 CURVE SMOOTH",
"683 354 OFFCURVE",
"682 348 OFFCURVE",
"680 342 CURVE SMOOTH",
"679 338 OFFCURVE",
"671 329 OFFCURVE",
"667 325 CURVE SMOOTH",
"664 323 OFFCURVE",
"663 320 OFFCURVE",
"663 318 CURVE SMOOTH",
"663 314 OFFCURVE",
"667 310 OFFCURVE",
"671 310 CURVE SMOOTH",
"675 310 OFFCURVE",
"681 314 OFFCURVE",
"686 323 CURVE SMOOTH",
"693 335 OFFCURVE",
"695 354 OFFCURVE",
"695 368 CURVE SMOOTH",
"695 422 OFFCURVE",
"631 474 OFFCURVE",
"488 493 CURVE SMOOTH",
"459 497 OFFCURVE",
"425 499 OFFCURVE",
"388 499 CURVE SMOOTH",
"284 499 OFFCURVE",
"161 482 OFFCURVE",
"79 440 CURVE SMOOTH",
"26 412 OFFCURVE",
"-1 362 OFFCURVE",
"-1 321 CURVE SMOOTH",
"-1 304 OFFCURVE",
"3 289 OFFCURVE",
"12 278 CURVE SMOOTH",
"14 275 OFFCURVE",
"18 274 OFFCURVE",
"20 274 CURVE SMOOTH"
);
},
{
closed = 1;
nodes = (
"305 -72 OFFCURVE",
"309 -65 OFFCURVE",
"311 -55 CURVE SMOOTH",
"322 23 OFFCURVE",
"489 272 OFFCURVE",
"574 378 CURVE SMOOTH",
"583 389 OFFCURVE",
"591 399 OFFCURVE",
"600 409 CURVE SMOOTH",
"607 417 OFFCURVE",
"583 426 OFFCURVE",
"561 426 CURVE SMOOTH",
"547 426 OFFCURVE",
"534 423 OFFCURVE",
"528 414 CURVE SMOOTH",
"466 331 OFFCURVE",
"293 27 OFFCURVE",
"293 -55 CURVE SMOOTH",
"293 -66 OFFCURVE",
"296 -72 OFFCURVE",
"300 -72 CURVE SMOOTH"
);
}
);
width = 551;
}
);
},
{
glyphname = Tcommaaccent.ss01;
lastChange = "2021-07-28 10:59:02 +0000";
layers = (
{
background = {
paths = (
{
closed = 1;
nodes = (
"14 275 OFFCURVE",
"18 274 OFFCURVE",
"20 274 CURVE SMOOTH",
"22 274 OFFCURVE",
"24 275 OFFCURVE",
"24 276 CURVE SMOOTH",
"24 277 OFFCURVE",
"24 278 OFFCURVE",
"23 279 CURVE SMOOTH",
"15 288 OFFCURVE",
"12 297 OFFCURVE",
"12 306 CURVE SMOOTH",
"12 379 OFFCURVE",
"275 422 OFFCURVE",
"334 429 CURVE SMOOTH",
"374 435 OFFCURVE",
"423 438 OFFCURVE",
"471 438 CURVE SMOOTH",
"578 438 OFFCURVE",
"683 419 OFFCURVE",
"683 360 CURVE SMOOTH",
"683 354 OFFCURVE",
"682 348 OFFCURVE",
"680 342 CURVE SMOOTH",
"679 338 OFFCURVE",
"671 329 OFFCURVE",
"667 325 CURVE SMOOTH",
"664 323 OFFCURVE",
"663 320 OFFCURVE",
"663 318 CURVE SMOOTH",
"663 314 OFFCURVE",
"667 310 OFFCURVE",
"671 310 CURVE SMOOTH",
"675 310 OFFCURVE",
"681 314 OFFCURVE",
"686 323 CURVE SMOOTH",
"693 335 OFFCURVE",
"695 354 OFFCURVE",
"695 368 CURVE SMOOTH",
"695 422 OFFCURVE",
"631 474 OFFCURVE",
"488 493 CURVE SMOOTH",
"459 497 OFFCURVE",
"425 499 OFFCURVE",
"388 499 CURVE SMOOTH",
"284 499 OFFCURVE",
"161 482 OFFCURVE",
"79 440 CURVE SMOOTH",
"26 412 OFFCURVE",
"-1 362 OFFCURVE",
"-1 321 CURVE SMOOTH",
"-1 304 OFFCURVE",
"3 289 OFFCURVE",
"12 278 CURVE SMOOTH"
);
},
{
closed = 1;
nodes = (
"46.55 -176.25 OFFCURVE",
"120.5 -103.15 OFFCURVE",
"120.5 -89.55 CURVE SMOOTH",
"120.5 -75.95 OFFCURVE",
"85.65 -65.75 OFFCURVE",
"74.6 -65.75 CURVE SMOOTH",
"68.65 -65.75 OFFCURVE",
"66.1 -70 OFFCURVE",
"66.1 -75.1 CURVE SMOOTH",
"66.1 -82.75 OFFCURVE",
"68.65 -90.4 OFFCURVE",
"68.65 -97.2 CURVE SMOOTH",
"68.65 -126.1 OFFCURVE",
"49.95 -146.5 OFFCURVE",
"30.4 -164.35 CURVE SMOOTH",
"28.7 -166.05 OFFCURVE",
"27.85 -167.75 OFFCURVE",
"27.85 -170.3 CURVE SMOOTH",
"27.85 -172.85 OFFCURVE",
"29.55 -176.25 OFFCURVE",
"33.8 -176.25 CURVE SMOOTH"
);
},
{
closed = 1;
nodes = (
"293 -66 OFFCURVE",
"296 -72 OFFCURVE",
"300 -72 CURVE SMOOTH",
"305 -72 OFFCURVE",
"309 -65 OFFCURVE",
"311 -55 CURVE SMOOTH",
"322 23 OFFCURVE",
"489 272 OFFCURVE",
"574 378 CURVE SMOOTH",
"583 389 OFFCURVE",
"591 399 OFFCURVE",
"600 409 CURVE SMOOTH",
"607 417 OFFCURVE",
"583 426 OFFCURVE",
"561 426 CURVE SMOOTH",
"547 426 OFFCURVE",
"534 423 OFFCURVE",
"528 414 CURVE SMOOTH",
"466 331 OFFCURVE",
"293 27 OFFCURVE",
"293 -55 CURVE SMOOTH"
);
}
);
};
components = (
{
name = T.ss01;
},
{
name = commaaccentcomb;
transform = "{1, 0, 0, 1, 216, -62}";
}
);
layerId = "D7866281-830A-4E76-BB32-392A4BC3306E";
width = 551;
}
);
},
{
glyphname = U.ss01;
lastChange = "2021-07-28 10:59:02 +0000";
layers = (
{
anchors = (
{
name = bottom;
position = "{434, 0}";
},
{
name = ogonek;
position = "{650, -66}";
},
{
name = top;
position = "{675, 513}";
},
{
name = topright;
position = "{823, 539}";
}
);
layerId = "D7866281-830A-4E76-BB32-392A4BC3306E";
paths = (
{
closed = 1;
nodes = (
"663 -82 OFFCURVE",
"682 -77 OFFCURVE",
"693 -68 CURVE SMOOTH",
"697 -64 OFFCURVE",
"699 -59 OFFCURVE",
"699 -57 CURVE SMOOTH",
"699 -55 OFFCURVE",
"698 -54 OFFCURVE",
"697 -54 CURVE SMOOTH",
"696 -54 OFFCURVE",
"695 -55 OFFCURVE",
"693 -56 CURVE SMOOTH",
"684 -64 OFFCURVE",
"668 -73 OFFCURVE",
"656 -70 CURVE SMOOTH",
"632 -65 OFFCURVE",
"625 -40 OFFCURVE",
"625 -9 CURVE SMOOTH",
"625 39 OFFCURVE",
"644 103 OFFCURVE",
"653 128 CURVE SMOOTH",
"682 212 OFFCURVE",
"739 330 OFFCURVE",
"852 499 CURVE SMOOTH",
"855 504 OFFCURVE",
"852 511 OFFCURVE",
"844 511 CURVE SMOOTH",
"840 511 OFFCURVE",
"833 508 OFFCURVE",
"825 497 CURVE SMOOTH",
"793 451 LINE SMOOTH",
"687 299 OFFCURVE",
"586 133 OFFCURVE",
"420 38 CURVE SMOOTH",
"397 25 OFFCURVE",
"381 20 OFFCURVE",
"371 20 CURVE SMOOTH",
"357 20 OFFCURVE",
"352 29 OFFCURVE",
"352 42 CURVE SMOOTH",
"352 51 OFFCURVE",
"355 62 OFFCURVE",
"358 72 CURVE SMOOTH",
"386 155 OFFCURVE",
"480 287 OFFCURVE",
"523 376 CURVE SMOOTH",
"532 394 OFFCURVE",
"536 412 OFFCURVE",
"536 429 CURVE SMOOTH",
"536 482 OFFCURVE",
"491 523 OFFCURVE",
"392 523 CURVE SMOOTH",
"292 523 OFFCURVE",
"152 487 OFFCURVE",
"62 430 CURVE SMOOTH",
"26 407 OFFCURVE",
"10 374 OFFCURVE",
"10 346 CURVE SMOOTH",
"10 329 OFFCURVE",
"16 313 OFFCURVE",
"29 304 CURVE SMOOTH",
"33 301 OFFCURVE",
"39 301 OFFCURVE",
"39 303 CURVE SMOOTH",
"39 303 OFFCURVE",
"39 304 OFFCURVE",
"38 305 CURVE SMOOTH",
"28 312 OFFCURVE",
"24 320 OFFCURVE",
"24 328 CURVE SMOOTH",
"24 351 OFFCURVE",
"64 375 OFFCURVE",
"110 397 CURVE SMOOTH",
"154 418 OFFCURVE",
"300 468 OFFCURVE",
"392 463 CURVE SMOOTH",
"452 459 OFFCURVE",
"489 445 OFFCURVE",
"489 413 CURVE SMOOTH",
"489 400 OFFCURVE",
"483 386 OFFCURVE",
"472 368 CURVE SMOOTH",
"421 289 OFFCURVE",
"358 218 OFFCURVE",
"315 135 CURVE SMOOTH",
"297 100 OFFCURVE",
"289 71 OFFCURVE",
"289 48 CURVE SMOOTH",
"289 15 OFFCURVE",
"307 -3 OFFCURVE",
"338 -3 CURVE SMOOTH",
"362 -3 OFFCURVE",
"392 7 OFFCURVE",
"429 29 CURVE SMOOTH",
"493 66 OFFCURVE",
"548 105 OFFCURVE",
"609 175 CURVE",
"605 166 OFFCURVE",
"596 152 OFFCURVE",
"589 131 CURVE SMOOTH",
"576 96 OFFCURVE",
"563 51 OFFCURVE",
"563 12 CURVE SMOOTH",
"563 -36 OFFCURVE",
"583 -76 OFFCURVE",
"645 -81 CURVE SMOOTH"
);
}
);
width = 738;
}
);
},
{
glyphname = V.ss01;
lastChange = "2021-07-28 10:59:02 +0000";
layers = (
{
layerId = "D7866281-830A-4E76-BB32-392A4BC3306E";
paths = (
{
closed = 1;
nodes = (
"393 -7 OFFCURVE",
"420 -1 OFFCURVE",
"451 12 CURVE SMOOTH",
"555 56 OFFCURVE",
"677 165 OFFCURVE",
"719 211 CURVE SMOOTH",
"794 291 OFFCURVE",
"849 382 OFFCURVE",
"850 458 CURVE SMOOTH",
"850 500 OFFCURVE",
"831 537 OFFCURVE",
"781 537 CURVE SMOOTH",
"770 537 OFFCURVE",
"763 535 OFFCURVE",
"763 532 CURVE SMOOTH",
"763 530 OFFCURVE",
"766 527 OFFCURVE",
"773 525 CURVE SMOOTH",
"798 518 OFFCURVE",
"808 500 OFFCURVE",
"808 473 CURVE SMOOTH",
"808 421 OFFCURVE",
"766 338 OFFCURVE",
"702 258 CURVE SMOOTH",
"638 177 OFFCURVE",
"548 85 OFFCURVE",
"458 33 CURVE SMOOTH",
"435 20 OFFCURVE",
"418 15 OFFCURVE",
"406 15 CURVE SMOOTH",
"386 15 OFFCURVE",
"379 29 OFFCURVE",
"379 47 CURVE SMOOTH",
"379 58 OFFCURVE",
"382 69 OFFCURVE",
"385 79 CURVE SMOOTH",
"416 170 OFFCURVE",
"490 271 OFFCURVE",
"537 369 CURVE SMOOTH",
"549 395 OFFCURVE",
"556 419 OFFCURVE",
"556 439 CURVE SMOOTH",
"556 487 OFFCURVE",
"520 518 OFFCURVE",
"421 518 CURVE SMOOTH",
"313 518 OFFCURVE",
"157 479 OFFCURVE",
"57 415 CURVE SMOOTH",
"18 390 OFFCURVE",
"0 354 OFFCURVE",
"0 323 CURVE SMOOTH",
"0 303 OFFCURVE",
"7 286 OFFCURVE",
"21 276 CURVE SMOOTH",
"24 274 OFFCURVE",
"27 274 OFFCURVE",
"30 274 CURVE SMOOTH",
"32 274 OFFCURVE",
"33 274 OFFCURVE",
"33 275 CURVE SMOOTH",
"33 276 OFFCURVE",
"32 277 OFFCURVE",
"31 278 CURVE SMOOTH",
"20 286 OFFCURVE",
"16 294 OFFCURVE",
"16 302 CURVE SMOOTH",
"16 328 OFFCURVE",
"59 355 OFFCURVE",
"110 379 CURVE SMOOTH",
"162 403 OFFCURVE",
"340 454 OFFCURVE",
"438 454 CURVE SMOOTH",
"489 454 OFFCURVE",
"512 439 OFFCURVE",
"512 415 CURVE SMOOTH",
"512 403 OFFCURVE",
"506 389 OFFCURVE",
"496 373 CURVE SMOOTH",
"437 281 OFFCURVE",
"311 159 OFFCURVE",
"311 53 CURVE SMOOTH",
"311 15 OFFCURVE",
"332 -7 OFFCURVE",
"372 -7 CURVE SMOOTH"
);
}
);
width = 713;
}
);
},
{
glyphname = W.ss01;
lastChange = "2021-07-28 10:59:02 +0000";
layers = (
{
anchors = (
{
name = bottom;
position = "{531, 0}";
},
{
name = top;
position = "{837, 401}";
}
);
layerId = "D7866281-830A-4E76-BB32-392A4BC3306E";
paths = (
{
closed = 1;
nodes = (
"394 -7 OFFCURVE",
"420 -1 OFFCURVE",
"451 12 CURVE SMOOTH",
"520 41 OFFCURVE",
"627 151 OFFCURVE",
"699 237 CURVE",
"683 207 OFFCURVE",
"668 177 OFFCURVE",
"652 148 CURVE SMOOTH",
"633 110 OFFCURVE",
"623 78 OFFCURVE",
"623 53 CURVE SMOOTH",
"623 27 OFFCURVE",
"634 10 OFFCURVE",
"652 2 CURVE SMOOTH",
"663 -3 OFFCURVE",
"674 -5 OFFCURVE",
"687 -5 CURVE SMOOTH",
"797 -5 OFFCURVE",
"975 154 OFFCURVE",
"1029 211 CURVE SMOOTH",
"1103 291 OFFCURVE",
"1158 382 OFFCURVE",
"1159 458 CURVE SMOOTH",
"1159 500 OFFCURVE",
"1140 537 OFFCURVE",
"1090 537 CURVE SMOOTH",
"1079 537 OFFCURVE",
"1073 535 OFFCURVE",
"1073 532 CURVE SMOOTH",
"1073 530 OFFCURVE",
"1076 527 OFFCURVE",
"1083 525 CURVE SMOOTH",
"1105 519 OFFCURVE",
"1115 501 OFFCURVE",
"1115 476 CURVE SMOOTH",
"1115 418 OFFCURVE",
"1066 323 OFFCURVE",
"999 240 CURVE SMOOTH",
"974 209 OFFCURVE",
"801 19 OFFCURVE",
"722 19 CURVE SMOOTH",
"714 19 OFFCURVE",
"707 21 OFFCURVE",
"701 25 CURVE SMOOTH",
"695 29 OFFCURVE",
"692 37 OFFCURVE",
"692 46 CURVE SMOOTH",
"692 57 OFFCURVE",
"695 69 OFFCURVE",
"699 79 CURVE SMOOTH",
"715 126 OFFCURVE",
"797 258 OFFCURVE",
"855 363 CURVE SMOOTH",
"858 368 OFFCURVE",
"859 373 OFFCURVE",
"859 377 CURVE SMOOTH",
"859 394 OFFCURVE",
"837 401 OFFCURVE",
"818 401 CURVE SMOOTH",
"807 401 OFFCURVE",
"798 399 OFFCURVE",
"795 394 CURVE SMOOTH",
"781 371 OFFCURVE",
"766 347 OFFCURVE",
"751 326 CURVE SMOOTH",
"692 244 OFFCURVE",
"537 79 OFFCURVE",
"458 33 CURVE SMOOTH",
"435 20 OFFCURVE",
"418 14 OFFCURVE",
"406 14 CURVE SMOOTH",
"386 14 OFFCURVE",
"379 29 OFFCURVE",
"379 47 CURVE SMOOTH",
"379 111 OFFCURVE",
"500 292 OFFCURVE",
"537 369 CURVE SMOOTH",
"549 395 OFFCURVE",
"556 419 OFFCURVE",
"556 439 CURVE SMOOTH",
"556 487 OFFCURVE",
"520 518 OFFCURVE",
"421 518 CURVE SMOOTH",
"313 518 OFFCURVE",
"157 479 OFFCURVE",
"58 415 CURVE SMOOTH",
"19 390 OFFCURVE",
"0 354 OFFCURVE",
"0 323 CURVE SMOOTH",
"0 303 OFFCURVE",
"7 286 OFFCURVE",
"21 276 CURVE SMOOTH",
"24 274 OFFCURVE",
"27 274 OFFCURVE",
"30 274 CURVE SMOOTH",
"32 274 OFFCURVE",
"33 274 OFFCURVE",
"33 275 CURVE SMOOTH",
"33 276 OFFCURVE",
"32 277 OFFCURVE",
"31 278 CURVE SMOOTH",
"21 286 OFFCURVE",
"16 294 OFFCURVE",
"16 302 CURVE SMOOTH",
"16 328 OFFCURVE",
"60 355 OFFCURVE",
"111 379 CURVE SMOOTH",
"163 403 OFFCURVE",
"340 454 OFFCURVE",
"438 454 CURVE SMOOTH",
"490 454 OFFCURVE",
"512 439 OFFCURVE",
"512 415 CURVE SMOOTH",
"512 403 OFFCURVE",
"507 389 OFFCURVE",
"497 373 CURVE SMOOTH",
"449 300 OFFCURVE",
"310 156 OFFCURVE",
"310 55 CURVE SMOOTH",
"310 16 OFFCURVE",
"331 -7 OFFCURVE",
"372 -7 CURVE SMOOTH"
);
}
);
width = 1024;
}
);
},
